<?xml version="1.0" standalone="no"?>
<!DOCTYPE svg PUBLIC "-//W3C//DTD SVG 20010904//EN"
 "http://www.w3.org/TR/2001/REC-SVG-20010904/DTD/svg10.dtd">
<svg version="1.0" xmlns="http://www.w3.org/2000/svg"
 width="945.000000pt" height="860.000000pt" viewBox="0 0 945.000000 860.000000"
 preserveAspectRatio="xMidYMid meet">

<g transform="translate(0.000000,860.000000) scale(0.100000,-0.100000)"
fill="#000000" stroke="none">
<path d="M0 4300 l0 -4300 4725 0 4725 0 0 4300 0 4300 -4725 0 -4725 0 0
-4300z m203 4193 c-15 -3 -23 -12 -23 -24 0 -13 7 -19 23 -20 l22 -2 -22 -4
c-14 -3 -23 -12 -23 -23 0 -11 9 -20 23 -23 16 -3 13 -5 -10 -6 l-33 -1 0 55
0 55 33 -1 c23 -1 26 -3 10 -6z m2357 -48 c0 -30 -4 -55 -10 -55 -5 0 -10 25
-10 55 0 30 5 55 10 55 6 0 10 -25 10 -55z m350 35 c13 -11 18 -20 12 -20 -16
0 -15 -57 1 -63 7 -3 6 -6 -5 -6 -22 -1 -28 9 -30 59 -1 30 -5 40 -15 36 -8
-3 -11 -1 -8 4 9 15 19 12 45 -10z m130 -37 c0 -31 -3 -53 -7 -49 -11 10 -11
106 -1 106 4 0 8 -25 8 -57z m188 0 c-2 -58 -2 -58 -5 -10 -2 26 -8 45 -14 42
-5 -4 -9 -2 -9 4 0 8 9 14 28 20 1 1 1 -25 0 -56z m105 -15 c9 -6 9 -8 0 -8
-7 0 -14 -8 -14 -17 -1 -16 -2 -16 -6 -1 -2 9 -15 18 -29 20 l-24 3 27 40 28
40 3 -35 c2 -19 9 -38 15 -42z m127 19 c0 -51 -1 -53 -30 -55 -24 -2 -31 2
-36 23 -8 31 12 58 38 52 13 -4 18 0 18 14 0 10 2 19 5 19 3 0 5 -24 5 -53z
m2487 -29 c-2 -18 -4 -6 -4 27 0 33 2 48 4 33 2 -15 2 -42 0 -60z m123 67 c10
-12 10 -19 2 -27 -8 -8 -9 -15 -1 -25 17 -19 3 -43 -25 -43 -26 0 -43 27 -27
43 5 5 7 16 4 23 -14 37 23 58 47 29z m130 -40 c0 -52 -1 -55 -25 -55 -31 0
-50 32 -35 60 6 11 20 20 30 20 11 0 20 7 20 15 0 8 2 15 5 15 3 0 5 -25 5
-55z m-5671 17 c-13 -5 -11 -46 4 -61 10 -11 9 -13 -3 -9 -15 5 -30 62 -22 85
3 9 7 9 17 0 7 -7 9 -13 4 -15z m170 0 c-13 -5 -11 -46 3 -60 9 -9 8 -12 -4
-12 -11 0 -17 12 -20 39 -5 51 0 64 17 48 7 -7 9 -13 4 -15z m-402 -37 l1 -40
-6 35 c-4 22 -13 35 -22 35 -9 0 -17 -13 -21 -35 l-6 -35 -2 41 c-1 39 1 41
27 40 24 -1 27 -5 29 -41z m121 33 c19 -19 14 -28 -18 -28 -21 0 -28 -4 -24
-14 3 -8 15 -17 27 -19 18 -3 17 -5 -5 -6 -22 -1 -29 4 -34 24 -10 42 26 71
54 43z m50 5 c-23 -6 -23 -11 4 -32 25 -21 17 -42 -15 -40 -17 1 -18 2 -4 6
22 6 22 19 0 31 -20 12 -10 42 14 41 17 -1 17 -2 1 -6z m140 -36 c3 -37 2 -38
-25 -35 -37 4 -44 35 -9 44 14 3 23 10 20 16 -3 5 -12 7 -20 4 -8 -3 -14 -1
-14 5 0 6 10 9 23 7 18 -2 23 -10 25 -41z m170 2 c3 -34 1 -36 -25 -35 -37 1
-44 33 -9 42 14 3 23 10 20 16 -3 5 -12 7 -20 4 -8 -3 -14 -1 -14 5 0 6 10 9
23 7 17 -2 23 -10 25 -39z m55 34 c-7 -2 -13 -20 -13 -39 0 -19 -4 -34 -10
-34 -5 0 -10 18 -10 40 0 35 3 40 23 39 12 0 16 -3 10 -6z m75 -5 c19 -19 14
-28 -18 -28 -21 0 -28 -4 -24 -14 3 -8 15 -17 27 -19 18 -3 17 -5 -5 -6 -22
-1 -29 4 -34 24 -10 42 26 71 54 43z m76 -4 c3 -9 6 -27 6 -40 0 -22 -4 -25
-27 -22 -35 4 -45 37 -14 45 26 7 27 20 4 26 -14 4 -13 5 3 6 12 0 25 -6 28
-15z m99 6 c-14 -6 -23 -18 -23 -30 0 -12 9 -24 23 -30 l22 -9 -22 0 c-29 -1
-48 32 -33 59 6 11 20 20 33 19 l22 0 -22 -9z m101 -12 c8 -13 8 -23 0 -35
-16 -26 -51 -28 -64 -4 -25 47 36 83 64 39z m123 -23 c1 -40 1 -40 -5 -6 -10
48 -32 53 -32 7 0 -20 -4 -36 -10 -36 -5 0 -10 16 -10 36 0 46 -23 41 -31 -7
l-6 -34 -2 41 -1 41 48 -1 47 -1 2 -40z m91 3 c2 -21 -1 -38 -7 -38 -5 0 -9
14 -9 30 1 17 -2 33 -5 36 -12 12 -27 -8 -27 -37 0 -39 -15 -38 -18 2 -3 40 2
46 35 45 25 -1 28 -5 31 -38z m80 20 c3 -14 -3 -18 -23 -18 -17 0 -25 -5 -22
-12 2 -7 13 -13 25 -12 12 0 19 -3 16 -8 -9 -14 -43 -8 -52 10 -15 27 4 64 30
60 13 -2 24 -11 26 -20z m79 -23 c1 -40 1 -40 -5 -6 -9 44 -29 51 -38 14 -10
-48 -12 -49 -13 -7 -1 39 1 41 27 40 24 -1 27 -5 29 -41z m64 16 c-26 -36 -26
-39 2 -44 16 -3 13 -5 -10 -6 -39 -1 -40 2 -13 39 l20 29 -22 4 c-17 3 -14 5
10 6 l33 1 -20 -29z m83 13 c3 -9 6 -27 6 -40 0 -20 -5 -24 -30 -24 -24 0 -30
4 -30 21 0 12 8 23 20 26 25 7 26 20 3 26 -14 4 -13 5 3 6 12 0 25 -6 28 -15z
m53 3 c-9 -7 -18 -25 -20 -42 -3 -25 -4 -23 -6 10 -1 35 2 41 20 42 19 2 19 0
6 -10z m81 -9 c3 -14 -3 -18 -23 -18 -17 0 -25 -5 -22 -12 2 -7 13 -13 25 -12
12 0 19 -3 16 -8 -10 -15 -43 -8 -54 12 -15 28 4 62 33 58 12 -2 23 -11 25
-20z m124 8 c11 -16 10 -66 -2 -66 -5 0 -10 16 -10 36 0 46 -23 41 -29 -7 l-4
-34 -6 35 c-4 22 -12 35 -21 35 -9 0 -17 -13 -21 -35 l-6 -35 -2 42 -1 42 48
-1 c26 0 50 -6 54 -12z m88 -6 c22 -40 -26 -80 -58 -48 -25 25 -6 68 30 68 9
0 22 -9 28 -20z m70 10 c0 -5 -6 -7 -14 -4 -8 3 -17 1 -20 -5 -4 -5 3 -13 14
-16 27 -9 22 -39 -8 -43 -12 -2 -22 1 -22 6 0 6 9 8 20 5 11 -3 20 -1 20 5 0
6 -9 14 -20 17 -20 6 -26 25 -13 38 10 11 43 8 43 -3z m93 0 c-14 -6 -23 -18
-23 -30 0 -12 9 -24 23 -30 l22 -9 -23 0 c-15 -1 -26 7 -31 22 -11 29 4 57 32
56 l22 0 -22 -9z m101 -12 c14 -23 -3 -52 -33 -56 -26 -4 -44 33 -29 61 11 22
47 19 62 -5z m83 -23 l1 -40 -6 35 c-4 22 -13 35 -22 35 -9 0 -17 -13 -21 -35
l-6 -35 -2 41 c-1 39 1 41 27 40 24 -1 27 -5 29 -41z m121 33 c19 -19 14 -28
-18 -28 -22 0 -28 -4 -24 -15 4 -8 16 -16 28 -16 17 -1 18 -2 3 -6 -22 -6 -47
14 -47 36 0 19 19 41 35 41 6 0 16 -5 23 -12z m135 2 c-14 -6 -23 -18 -23 -30
0 -12 9 -24 23 -30 l22 -9 -22 0 c-13 -1 -27 8 -33 19 -15 27 4 60 33 59 l22
0 -22 -9z m87 -30 c0 -36 -3 -40 -24 -40 -13 0 -26 6 -29 14 -6 16 11 36 30
36 7 0 13 5 13 11 0 6 -9 9 -20 6 -11 -3 -18 -1 -14 4 3 5 14 9 25 9 16 0 19
-7 19 -40z m85 0 c0 -29 -4 -36 -22 -38 -13 -2 -23 -10 -23 -18 0 -8 -4 -14
-9 -14 -5 0 -8 24 -8 54 1 54 1 54 32 53 27 -2 30 -5 30 -37z m45 0 c0 -22 -5
-40 -11 -40 -9 0 -11 54 -1 73 8 16 12 5 12 -33z m100 -25 c9 0 17 13 21 35
l6 35 2 -41 c1 -39 -1 -41 -26 -40 -25 1 -28 5 -30 41 l-1 40 6 -35 c4 -22 13
-35 22 -35z m155 31 c0 -16 -7 -33 -16 -39 -26 -16 -49 -1 -49 31 0 36 8 44
40 40 20 -2 25 -8 25 -32z m413 12 c3 -14 -3 -18 -23 -18 -17 0 -25 -5 -22
-12 2 -7 14 -13 26 -12 13 0 18 -3 12 -9 -27 -27 -63 18 -47 59 8 21 50 14 54
-8z m2222 -8 c0 -32 18 -32 25 0 4 16 10 30 15 30 9 0 -17 -76 -33 -97 -5 -7
-15 -13 -21 -13 -6 0 -5 4 3 9 13 9 12 24 -5 80 -5 17 -4 22 4 17 7 -4 12 -16
12 -26z m158 8 c3 -14 -3 -18 -23 -18 -17 0 -25 -5 -22 -12 2 -7 14 -13 26
-12 13 0 18 -3 12 -9 -27 -27 -63 18 -47 59 8 21 50 14 54 -8z m362 18 c0 -2
3 -11 6 -20 5 -12 0 -16 -20 -16 -33 0 -36 -29 -3 -31 17 -1 18 -2 4 -6 -37
-9 -62 38 -35 65 11 11 48 17 48 8z m480 -66 c0 -5 -4 -10 -10 -10 -5 0 -10 5
-10 10 0 6 5 10 10 10 6 0 10 -4 10 -10z m-6540 -305 c16 -19 6 -45 -20 -52
-11 -3 -20 -14 -20 -24 0 -11 -4 -19 -10 -19 -5 0 -10 25 -10 55 0 51 2 55 24
55 13 0 29 -7 36 -15z m740 5 c12 -7 10 -9 -8 -7 -12 0 -22 5 -22 9 0 11 12
10 30 -2z m127 -72 c-2 -18 -4 -6 -4 27 0 33 2 48 4 33 2 -15 2 -42 0 -60z
m-793 36 c3 -9 6 -27 6 -40 0 -22 -4 -25 -27 -22 -35 4 -45 37 -14 45 26 7 27
20 4 26 -14 4 -13 5 3 6 12 0 25 -6 28 -15z m53 3 c-9 -7 -18 -25 -20 -42 -3
-25 -4 -23 -6 10 -1 35 2 41 20 42 19 2 19 0 6 -10z m73 -27 c0 -36 -3 -40
-24 -40 -13 0 -26 6 -29 14 -6 16 11 36 30 36 7 0 13 5 13 11 0 6 -9 9 -20 6
-11 -3 -18 -1 -14 4 3 5 14 9 25 9 16 0 19 -7 19 -40z m80 5 c0 -43 27 -49 36
-7 10 47 12 48 13 7 1 -38 -1 -41 -28 -43 -22 -2 -30 3 -35 20 -9 34 -7 58 4
58 6 0 10 -16 10 -35z m134 13 c9 -34 7 -58 -4 -58 -5 0 -10 16 -10 35 0 24
-5 35 -15 35 -10 0 -15 -11 -15 -35 0 -19 -4 -35 -10 -35 -5 0 -10 18 -10 40
0 37 2 40 29 40 21 0 30 -6 35 -22z m74 -21 c3 -37 2 -38 -25 -35 -37 4 -44
35 -9 44 14 3 26 11 26 16 0 6 -9 8 -20 5 -11 -3 -20 -1 -20 5 0 5 10 8 23 6
18 -2 23 -10 25 -41z m112 33 c0 -5 -6 -7 -14 -4 -8 3 -17 1 -20 -5 -4 -5 3
-13 14 -16 27 -9 22 -39 -8 -43 -12 -2 -22 1 -22 6 0 6 9 8 20 5 11 -3 20 -1
20 5 0 6 -9 14 -20 17 -20 6 -26 25 -13 38 10 11 43 8 43 -3z m70 6 c0 -2 3
-11 6 -20 5 -12 0 -16 -20 -16 -33 0 -36 -29 -3 -31 17 -1 18 -2 4 -6 -37 -9
-62 38 -35 65 11 11 48 17 48 8z m87 -41 l1 -40 -6 35 c-4 22 -13 35 -22 35
-9 0 -17 -13 -21 -35 l-6 -35 -2 41 c-1 39 1 41 27 40 24 -1 27 -5 29 -41z
m77 29 c3 -9 6 -27 6 -40 0 -20 -5 -24 -30 -24 -24 0 -30 4 -30 21 0 12 8 23
20 26 25 7 26 20 3 26 -14 4 -13 5 3 6 12 0 25 -6 28 -15z m5390 -341 c-16
-38 -12 -96 8 -120 7 -9 7 -13 0 -13 -32 0 -44 109 -16 148 22 32 25 27 8 -15z
m166 -50 c0 -47 -14 -83 -32 -83 -7 0 -7 4 0 13 20 24 24 83 8 123 l-16 39 20
-24 c13 -15 20 -38 20 -68z m864 52 c-18 -43 -18 -73 0 -107 8 -16 11 -28 6
-28 -30 0 -41 110 -14 148 22 32 25 27 8 -13z m496 -52 c0 -47 -14 -83 -32
-83 -7 0 -7 4 0 13 20 24 24 83 8 123 l-16 39 20 -24 c13 -15 20 -38 20 -68z
m386 65 c-19 -26 -21 -100 -5 -131 10 -20 10 -21 -5 -6 -25 23 -30 79 -12 122
8 20 20 37 26 37 7 0 5 -9 -4 -22z m161 -55 c4 -39 1 -53 -17 -73 -21 -25 -21
-25 -10 -1 12 24 9 102 -5 136 -7 19 -7 19 10 3 10 -10 20 -36 22 -65z m-2001
43 c-3 -13 0 -38 7 -55 11 -25 16 -29 26 -18 11 10 13 9 9 -3 -8 -24 -35 -23
-42 2 l-7 23 -10 -24 c-15 -39 -23 -16 -10 34 6 25 9 50 6 56 -4 5 1 9 10 9
13 0 16 -6 11 -24z m1088 5 c16 -18 16 -22 2 -50 -20 -39 -20 -47 1 -30 14 12
16 12 11 -1 -2 -8 -14 -16 -25 -18 -19 -3 -20 0 -10 36 12 47 5 72 -22 72 -25
0 -35 -29 -21 -64 14 -39 13 -46 -10 -46 -11 0 -20 7 -20 16 0 8 5 12 10 9 6
-3 10 -2 10 4 0 5 -4 13 -10 16 -5 3 -10 17 -10 30 0 43 63 60 94 26z m272 -5
c-3 -13 0 -38 7 -55 11 -25 16 -28 26 -18 10 10 11 8 6 -5 -10 -25 -31 -22
-39 5 l-7 22 -10 -24 c-15 -39 -23 -16 -10 34 6 25 9 50 6 56 -4 5 1 9 10 9
13 0 16 -6 11 -24z m549 -8 c-3 -36 -24 -88 -36 -88 -4 0 -1 25 6 55 7 30 10
57 7 60 -3 3 1 5 10 5 11 0 14 -9 13 -32z m-297 -39 l27 -2 -27 -4 c-22 -3
-28 -10 -29 -31 l-2 -27 -4 28 c-3 21 -10 27 -31 28 l-27 2 28 4 c21 3 27 10
28 31 l2 27 4 -27 c3 -22 10 -28 31 -29z m-1738 15 c0 -10 -6 -14 -14 -11 -9
4 -16 -3 -20 -16 -7 -27 0 -33 19 -17 13 11 14 10 9 -4 -9 -22 -74 -23 -74 0
0 10 6 14 15 10 11 -4 15 2 15 21 0 21 -2 24 -15 13 -8 -7 -15 -8 -15 -3 0 17
12 23 47 23 24 0 33 -5 33 -16z m163 10 c11 -11 -3 -24 -18 -18 -8 4 -12 10
-9 15 6 11 18 12 27 3z m387 -11 c0 -10 3 -28 6 -40 6 -21 3 -23 -30 -23 -42
0 -55 18 -38 56 14 29 62 35 62 7z m295 6 c4 -6 4 -13 0 -17 -4 -4 -10 -1 -12
6 -3 6 -9 9 -14 6 -6 -3 -3 -11 7 -19 22 -15 12 -45 -15 -45 -23 0 -36 16 -21
25 5 3 10 1 10 -4 0 -6 7 -11 15 -11 20 0 19 10 -2 25 -9 7 -14 19 -10 29 7
18 32 22 42 5z m80 -9 c0 -8 -10 -16 -22 -18 -13 -2 -23 -10 -23 -19 0 -11 7
-14 28 -9 25 5 25 5 5 -6 -45 -22 -73 21 -37 57 19 19 49 16 49 -5z m98 8 c2
-7 0 -24 -5 -37 -8 -21 -7 -22 7 -11 13 11 14 10 9 -4 -4 -9 -14 -15 -23 -13
-17 3 -18 8 -6 45 11 36 -14 26 -31 -13 -19 -46 -28 -45 -20 3 5 27 4 33 -3
22 -6 -8 -11 -10 -11 -4 0 18 12 24 46 24 18 0 34 -6 37 -12z m500 6 c11 -11
-3 -24 -18 -18 -8 4 -12 10 -9 15 6 11 18 12 27 3z m374 -30 c-5 -31 -4 -34 9
-23 12 10 13 9 8 -5 -4 -9 -14 -16 -23 -14 -12 2 -15 12 -13 36 5 43 -5 41
-25 -5 l-16 -38 -8 35 c-9 44 -7 46 37 48 36 1 37 1 31 -34z m173 21 c0 -8 -4
-15 -9 -15 -13 0 -22 16 -14 24 11 11 23 6 23 -9z m-1682 -12 c-15 -2 -42 -2
-60 0 -18 2 -6 4 27 4 33 0 48 -2 33 -4z m224 -43 c3 -31 0 -40 -12 -40 -11 0
-15 10 -13 37 2 46 1 43 12 43 5 0 11 -18 13 -40z m108 30 c0 -5 -4 -10 -10
-10 -5 0 -10 5 -10 10 0 6 5 10 10 10 6 0 10 -4 10 -10z m562 -30 c3 -35 1
-40 -17 -39 -11 0 -15 3 -8 5 8 4 9 14 3 34 -6 20 -5 30 3 34 7 2 13 5 13 5 1
1 4 -17 6 -39z m98 30 c0 -5 -4 -10 -10 -10 -5 0 -10 5 -10 10 0 6 5 10 10 10
6 0 10 -4 10 -10z m670 -17 c0 -15 2 -16 10 -3 8 13 10 12 10 -3 0 -12 -6 -17
-17 -15 -19 4 -31 38 -14 38 6 0 11 -8 11 -17z m-1662 0 c-15 -2 -42 -2 -60 0
-18 2 -6 4 27 4 33 0 48 -2 33 -4z m-6288 -346 c0 -51 -1 -53 -30 -55 -24 -2
-31 2 -36 23 -8 31 12 58 38 52 13 -4 18 0 18 14 0 10 2 19 5 19 3 0 5 -24 5
-53z m-302 16 c-23 -6 -23 -11 4 -32 25 -21 17 -41 -15 -40 -21 0 -21 1 3 11
l25 10 -22 11 c-34 15 -29 48 6 46 13 -1 13 -2 -1 -6z m52 -33 c0 -22 -4 -40
-8 -40 -5 0 -9 18 -9 40 0 22 4 40 9 40 4 0 8 -18 8 -40z m78 18 c3 -14 -3
-18 -23 -18 -17 0 -25 -5 -22 -12 2 -7 14 -13 26 -12 13 0 18 -3 12 -9 -27
-27 -63 18 -47 59 8 21 50 14 54 -8z m79 -23 c1 -40 1 -40 -5 -6 -4 19 -13 36
-19 39 -13 4 -14 3 -18 -36 -4 -41 -15 -36 -15 7 0 40 1 42 28 39 24 -3 27 -7
29 -43z m178 5 c0 -38 -24 -52 -50 -30 -31 25 -9 73 30 68 16 -2 20 -11 20
-38z m7395 -270 c12 -23 1 -52 -28 -70 -14 -9 -12 -10 10 -6 22 5 26 3 22 -9
-4 -9 -19 -15 -42 -15 l-36 0 28 29 c18 19 27 37 24 52 -1 13 -7 22 -13 19 -5
-3 -9 -11 -7 -17 3 -14 -10 -17 -21 -7 -11 12 13 44 33 44 11 0 24 -9 30 -20z
m97 -45 c-9 -8 -13 -24 -10 -35 3 -11 0 -20 -6 -20 -6 0 -11 15 -12 33 l-1 32
-10 -32 c-6 -18 -15 -33 -21 -33 -5 0 -7 6 -4 13 21 50 21 51 3 44 -10 -4 -15
-3 -11 3 3 6 24 10 46 10 36 0 39 -2 26 -15z m-1233 -77 c8 -13 7 -26 -1 -48
-6 -16 -7 -28 -2 -24 5 3 9 -2 9 -10 0 -9 -9 -16 -20 -16 -17 0 -19 4 -13 28
15 56 10 77 -17 77 -21 0 -25 -5 -25 -30 1 -16 4 -40 9 -52 6 -19 4 -23 -12
-23 -11 0 -22 7 -26 15 -3 8 -1 15 4 15 6 0 10 -5 10 -12 0 -6 3 -9 6 -6 3 4
-1 19 -10 36 -13 26 -13 31 0 51 19 27 71 26 88 -1z m427 12 c20 -11 26 -54 9
-65 -5 -3 -10 -11 -10 -16 0 -6 5 -7 10 -4 6 3 10 -1 10 -9 0 -9 -9 -16 -20
-16 -23 0 -23 3 -11 48 13 42 4 64 -23 60 -19 -3 -21 -9 -19 -56 2 -45 0 -53
-14 -50 -9 2 -19 10 -21 18 -5 13 -3 13 11 1 21 -17 21 -12 1 28 -15 30 -15
34 2 52 19 21 45 24 75 9z m407 -5 c-2 -5 -6 -9 -10 -7 -13 4 -9 -26 5 -31 7
-4 6 -6 -4 -6 -11 -1 -19 -14 -23 -41 -3 -23 -13 -43 -22 -47 -22 -8 -30 5
-12 20 19 15 30 67 14 67 -8 0 -8 2 0 8 6 4 15 17 19 30 4 13 13 22 21 20 8
-2 14 -7 12 -13z m-160 -56 l27 -2 -27 -4 c-22 -3 -28 -10 -29 -31 l-2 -27 -4
28 c-3 21 -10 27 -31 28 l-27 2 28 4 c21 3 27 10 28 31 l2 27 4 -27 c3 -22 10
-28 31 -29z m-430 4 c-15 -2 -42 -2 -60 0 -18 2 -6 4 27 4 33 0 48 -2 33 -4z
m-176 -43 c3 -31 0 -40 -12 -40 -24 0 -18 77 6 80 1 0 4 -18 6 -40z m443 0 c0
-28 -4 -35 -20 -35 -13 0 -21 8 -23 23 -5 34 5 54 25 50 13 -2 18 -13 18 -38z
m465 30 c0 -5 -4 -10 -10 -10 -5 0 -10 5 -10 10 0 6 5 10 10 10 6 0 10 -4 10
-10z m233 3 c-29 -2 -78 -2 -110 0 -32 2 -8 3 52 3 61 0 87 -1 58 -3z m-965
-20 c-15 -2 -42 -2 -60 0 -18 2 -6 4 27 4 33 0 48 -2 33 -4z m652 -3 c0 -5 -7
-10 -15 -10 -8 0 -15 -7 -15 -15 0 -8 -4 -15 -9 -15 -10 0 -21 36 -13 44 9 10
52 6 52 -4z m261 -55 c7 -19 16 -35 20 -35 12 0 17 55 6 62 -7 4 2 7 18 7 17
0 25 -3 18 -5 -6 -3 -17 -30 -24 -60 -7 -30 -16 -54 -20 -54 -4 0 -15 21 -25
46 l-18 47 -13 -38 c-11 -31 -11 -40 -1 -47 8 -5 3 -8 -15 -8 -25 0 -27 2 -14
15 16 16 31 80 22 95 -3 6 3 10 14 10 13 0 24 -11 32 -35z m-324 -656 c-12 -7
-15 -17 -11 -35 4 -14 2 -24 -5 -24 -6 0 -11 15 -12 33 l-1 32 -10 -32 c-6
-18 -15 -33 -21 -33 -5 0 -7 6 -4 13 21 50 21 51 3 44 -10 -4 -15 -3 -11 3 3
6 25 10 48 10 34 -1 38 -3 24 -11z m-449 -71 c6 -7 10 -34 10 -60 -1 -40 -4
-48 -20 -48 -15 0 -17 5 -11 28 14 53 10 77 -15 80 -29 4 -37 -18 -24 -68 9
-36 8 -40 -8 -40 -10 0 -20 7 -24 15 -3 8 -1 15 4 15 6 0 10 -5 10 -12 0 -6 3
-9 6 -6 3 4 -1 19 -10 36 -13 26 -13 31 0 51 17 24 65 29 82 9z m250 -55 c-15
-2 -42 -2 -60 0 -18 2 -6 4 27 4 33 0 48 -2 33 -4z m-165 -23 c9 -35 -3 -61
-27 -58 -21 3 -33 36 -22 64 8 21 43 17 49 -6z m360 13 c-18 -2 -48 -2 -65 0
-18 2 -4 4 32 4 36 0 50 -2 33 -4z m-195 -20 c-15 -2 -42 -2 -60 0 -18 2 -6 4
27 4 33 0 48 -2 33 -4z m200 -57 c3 -22 -3 -35 -20 -49 l-23 -19 23 5 c14 3
22 0 22 -9 0 -9 -12 -14 -36 -14 l-36 0 27 31 c27 33 30 69 7 77 -8 2 -12 -3
-10 -13 2 -10 -3 -20 -9 -22 -17 -6 -17 19 -1 35 22 22 53 10 56 -22z m-7378
-742 c0 -36 -4 -53 -10 -49 -13 8 -10 105 2 105 4 0 8 -25 8 -56z m549 23 c9
2 23 -3 31 -12 20 -24 -2 -65 -35 -63 -24 2 -25 5 -24 58 1 30 4 45 6 34 3
-15 10 -20 22 -17z m71 -22 c0 -30 -3 -55 -8 -55 -4 0 -8 25 -8 55 -1 30 3 55
8 55 4 0 8 -25 8 -55z m287 -27 c-2 -18 -4 -6 -4 27 0 33 2 48 4 33 2 -15 2
-42 0 -60z m653 29 c0 -49 -2 -53 -25 -55 -31 -2 -51 29 -35 58 6 11 20 20 30
20 11 0 20 7 20 15 0 8 2 15 5 15 3 0 5 -24 5 -53z m160 46 c-8 -2 -22 -7 -30
-9 -13 -5 -13 -6 0 -14 10 -7 11 -10 3 -10 -8 0 -14 -15 -14 -37 l-2 -38 -6
40 c-9 52 3 75 37 74 15 0 20 -3 12 -6z m210 -47 c0 -51 -1 -53 -27 -52 -25 1
-28 5 -28 36 0 29 4 36 23 38 12 2 22 10 22 18 0 8 2 14 5 14 3 0 5 -24 5 -54z
m-811 16 c-14 -5 -11 -60 4 -65 7 -3 5 -6 -5 -6 -14 -1 -18 7 -18 34 0 19 -5
35 -10 35 -7 0 -6 5 2 13 9 10 16 11 24 3 7 -6 8 -12 3 -14z m-1233 -24 l7
-33 14 34 c22 52 26 30 5 -25 -12 -31 -27 -50 -38 -52 -18 -4 -18 -3 -1 10 16
12 17 16 3 56 -8 23 -11 42 -6 42 4 0 12 -15 16 -32z m188 16 c3 -9 6 -27 6
-40 0 -20 -5 -24 -30 -24 -24 0 -30 4 -30 21 0 12 8 23 20 26 25 7 26 20 3 26
-14 4 -13 5 3 6 12 0 25 -6 28 -15z m54 9 c-24 -6 -23 -18 4 -35 12 -8 18 -19
14 -26 -8 -14 -42 -16 -50 -3 -4 5 3 7 14 4 23 -6 28 15 5 23 -25 10 -19 44 8
43 16 -1 18 -2 5 -6z m88 -25 l7 -33 14 34 c8 18 16 31 19 28 3 -3 -2 -22 -11
-43 -9 -21 -19 -34 -24 -28 -14 15 -31 74 -21 74 5 0 12 -15 16 -32z m112 -9
c3 -34 1 -36 -25 -35 -37 1 -44 33 -9 42 14 3 23 10 20 16 -3 5 -12 7 -20 4
-8 -3 -14 -1 -14 5 0 6 10 9 23 7 17 -2 23 -10 25 -39z m55 34 c-7 -2 -13 -20
-13 -39 0 -19 -4 -34 -10 -34 -5 0 -10 18 -10 40 0 35 3 40 23 39 12 0 16 -3
10 -6z m37 -34 c0 -22 -4 -38 -9 -35 -9 6 -12 55 -4 69 9 15 13 6 13 -34z m70
1 c0 -36 -2 -40 -25 -40 -32 0 -36 39 -5 47 11 3 20 10 20 15 0 6 -9 8 -20 5
-11 -3 -18 -1 -14 4 3 5 14 9 25 9 16 0 19 -7 19 -40z m208 18 c3 -14 -3 -18
-23 -18 -17 0 -25 -5 -22 -12 2 -7 13 -13 25 -12 12 0 19 -3 16 -8 -10 -15
-43 -8 -54 12 -15 28 4 62 33 58 12 -2 23 -11 25 -20z m50 15 c-24 -6 -23 -18
4 -35 25 -17 17 -39 -15 -37 -17 1 -18 2 -4 6 21 5 22 22 2 29 -25 10 -19 44
8 43 16 -1 18 -2 5 -6z m130 -34 c3 -34 1 -36 -25 -35 -37 1 -44 33 -9 42 14
3 23 10 20 16 -3 5 -12 7 -20 4 -8 -3 -14 -1 -14 5 0 6 10 9 23 7 17 -2 23
-10 25 -39z m112 37 c0 -2 3 -11 6 -20 5 -12 0 -16 -20 -16 -33 0 -36 -29 -3
-31 17 -1 18 -2 4 -6 -37 -9 -62 38 -35 65 11 11 48 17 48 8z m78 -37 c3 -34
1 -36 -25 -35 -37 1 -44 33 -9 42 14 3 23 10 20 16 -3 5 -12 7 -20 4 -8 -3
-14 -1 -14 5 0 6 10 9 23 7 17 -2 23 -10 25 -39z m137 7 c0 -16 -7 -33 -16
-39 -26 -16 -49 -1 -49 31 0 36 8 44 40 40 20 -2 25 -8 25 -32z m57 26 c-7 -5
-15 -22 -18 -38 -8 -44 -14 -42 -14 4 0 37 3 42 23 42 15 0 18 -3 9 -8z m38
-32 c0 -22 -4 -40 -10 -40 -5 0 -10 18 -10 40 0 22 5 40 10 40 6 0 10 -18 10
-40z m70 0 c0 -36 -3 -40 -24 -40 -13 0 -26 6 -29 14 -6 16 11 36 30 36 7 0
13 5 13 11 0 6 -9 9 -20 6 -11 -3 -18 -1 -14 4 3 5 14 9 25 9 16 0 19 -7 19
-40z m70 30 c0 -5 -6 -7 -14 -4 -8 3 -17 1 -20 -5 -4 -5 3 -13 14 -16 27 -9
22 -39 -8 -43 -12 -2 -22 1 -22 6 0 6 9 8 20 5 11 -3 20 -1 20 5 0 6 -9 14
-20 17 -20 6 -26 25 -13 38 10 11 43 8 43 -3z m200 6 c0 -2 3 -11 6 -20 5 -12
0 -16 -20 -16 -33 0 -36 -29 -3 -31 17 -1 18 -2 4 -6 -37 -9 -62 38 -35 65 11
11 48 17 48 8z m90 -36 c0 -22 -4 -40 -10 -40 -5 0 -10 18 -10 40 0 22 5 40
10 40 6 0 10 -18 10 -40z m80 15 c4 -11 4 -29 -1 -40 -6 -16 -8 -14 -8 12 -1
30 -16 51 -28 39 -3 -3 -6 -19 -7 -36 -2 -44 -16 -37 -16 9 0 35 2 38 26 37
17 -1 29 -8 34 -21z m40 -15 c0 -22 -4 -40 -10 -40 -5 0 -9 18 -7 40 3 52 17
52 17 0z m160 0 c0 -36 -3 -40 -24 -40 -13 0 -26 6 -29 14 -6 16 11 36 30 36
7 0 13 5 13 11 0 6 -9 9 -20 6 -11 -3 -18 -1 -14 4 3 5 14 9 25 9 16 0 19 -7
19 -40z m70 30 c0 -5 -6 -7 -14 -4 -8 3 -17 1 -20 -5 -4 -5 3 -13 14 -16 27
-9 22 -39 -8 -43 -12 -2 -22 1 -22 6 0 6 9 8 20 5 11 -3 20 -1 20 5 0 6 -9 14
-20 17 -20 6 -26 25 -13 38 10 11 43 8 43 -3z m128 -18 c4 -28 -14 -52 -38
-52 -10 0 -21 -8 -23 -17 -3 -10 -5 8 -6 40 l-1 58 33 -3 c25 -2 33 -8 35 -26z
m82 8 c22 -40 -26 -80 -58 -48 -25 25 -6 68 30 68 9 0 22 -9 28 -20z m57 7
c-9 -7 -18 -25 -20 -42 -3 -25 -4 -23 -6 10 -1 35 2 41 20 42 19 2 19 0 6 -10z
m4983 -346 c0 -30 5 -51 13 -54 6 -3 -4 -5 -23 -5 -19 0 -29 2 -22 5 7 2 12
22 12 44 0 24 -5 39 -12 39 -9 0 -8 4 2 10 26 17 30 11 30 -39z m260 0 c0 -30
5 -51 13 -54 6 -3 -4 -5 -23 -5 -19 0 -29 2 -22 5 7 2 12 22 12 44 0 24 -5 39
-12 39 -9 0 -8 4 2 10 26 17 30 11 30 -39z m-504 -73 c-19 -26 -21 -100 -5
-131 11 -20 10 -21 -6 -6 -25 24 -30 89 -11 127 9 18 21 32 27 32 5 0 3 -10
-5 -22z m616 -59 c0 -46 -15 -89 -32 -89 -5 0 -2 12 6 28 18 35 18 79 -2 117
l-15 30 21 -21 c14 -14 21 -34 22 -65z m-1077 62 c3 -6 -3 -14 -12 -20 -14 -9
-15 -12 -5 -19 11 -8 11 -10 -2 -15 -9 -4 -16 -16 -16 -27 0 -30 -18 -60 -35
-60 -8 0 -15 5 -15 10 0 6 6 10 14 10 17 0 28 62 12 72 -8 5 -8 8 0 8 6 0 16
11 22 25 12 26 26 32 37 16z m331 -18 c-17 -66 -18 -83 -7 -83 10 0 64 75 74
104 2 6 7 8 11 5 3 -3 -1 -26 -9 -49 -9 -24 -13 -50 -11 -57 3 -7 -1 -13 -8
-13 -8 0 -16 6 -19 13 -4 10 -7 10 -18 0 -7 -7 -22 -13 -32 -13 -16 0 -18 5
-14 33 3 17 8 43 13 56 5 19 4 22 -6 16 -9 -5 -11 -4 -6 3 4 7 14 12 23 12 12
0 14 -6 9 -27z m-149 -50 c24 -16 26 -16 39 2 8 10 14 14 14 8 0 -6 -7 -16
-16 -24 -13 -10 -21 -9 -46 6 -30 17 -32 17 -45 0 -10 -15 -13 -16 -13 -4 0
33 27 38 67 12z m391 0 c-16 -2 -40 -2 -55 0 -16 2 -3 4 27 4 30 0 43 -2 28
-4z m150 0 c-15 -2 -42 -2 -60 0 -18 2 -6 4 27 4 33 0 48 -2 33 -4z m260 0
c-15 -2 -42 -2 -60 0 -18 2 -6 4 27 4 33 0 48 -2 33 -4z m-928 -23 c0 -5 -7
-10 -15 -10 -8 0 -15 -7 -15 -15 0 -8 -4 -15 -9 -15 -10 0 -21 36 -13 44 9 10
52 6 52 -4z m750 -19 c0 -11 -5 -23 -12 -27 -7 -5 -9 -2 -5 8 3 9 0 21 -6 27
-8 8 -7 11 6 11 10 0 17 -8 17 -19z m-80 -21 c12 -23 1 -52 -28 -70 -14 -9
-12 -10 10 -6 22 5 26 3 22 -9 -4 -9 -19 -15 -42 -15 l-36 0 28 29 c29 30 33
71 7 79 -9 3 -11 -2 -6 -17 5 -15 2 -21 -9 -21 -19 0 -20 5 -6 31 14 25 46 24
60 -1z m260 0 c12 -23 1 -52 -28 -70 -14 -9 -12 -10 10 -6 22 5 26 3 22 -9 -4
-9 -19 -15 -42 -15 l-36 0 28 29 c18 19 27 37 24 52 -1 13 -7 22 -13 19 -5 -3
-9 -11 -7 -17 3 -14 -10 -17 -21 -7 -11 12 13 44 33 44 11 0 24 -9 30 -20z
m-53 -675 c3 -9 -3 -25 -13 -37 -17 -19 -17 -21 -1 -15 9 4 17 2 17 -3 0 -6
-11 -10 -25 -10 -28 0 -32 12 -10 30 16 14 20 40 6 40 -5 0 -12 -6 -14 -12 -3
-8 -6 -6 -6 5 -1 22 37 23 46 2z m-437 -4 c0 -5 -6 -11 -14 -14 -8 -3 -21 -31
-30 -61 -9 -31 -21 -56 -26 -56 -5 0 -18 16 -28 37 l-19 36 -7 -29 c-12 -46
-46 -75 -46 -39 0 8 5 14 11 13 11 -3 21 20 33 75 6 25 26 39 26 17 0 -6 7
-27 16 -48 l16 -37 15 50 c14 46 27 64 46 65 4 0 7 -4 7 -9z m51 -29 c-14 -26
-14 -97 0 -125 9 -19 8 -19 -11 3 -18 20 -21 34 -18 72 3 26 11 54 18 63 17
21 24 12 11 -13z m449 -61 c-1 -43 -17 -81 -35 -81 -4 0 -3 6 3 13 20 24 24
83 8 123 l-16 39 20 -24 c14 -16 20 -37 20 -70z m-349 52 c21 -57 -18 -114
-56 -83 -18 15 -20 81 -3 98 21 21 48 14 59 -15z m-570 -47 c9 -33 4 -46 -17
-46 -12 0 -13 8 -8 36 9 47 -16 43 -28 -4 -5 -18 -13 -32 -18 -32 -12 0 -12
-2 0 38 8 29 7 32 -6 21 -12 -10 -13 -9 -8 4 4 11 17 15 42 14 30 -2 37 -6 43
-31z m783 16 c-6 -4 -14 -17 -18 -29 -13 -40 -75 -40 -76 -1 0 18 35 38 68 38
20 0 32 -4 26 -8z m-641 -19 c18 -17 19 -17 33 2 12 17 14 17 14 2 0 -27 -25
-31 -60 -10 -27 15 -32 16 -40 3 -5 -8 -10 -10 -10 -4 0 28 34 32 63 7z m477
-42 c0 -11 -5 -23 -12 -27 -7 -5 -9 -2 -5 8 3 9 0 21 -6 27 -8 8 -7 11 6 11
10 0 17 -8 17 -19z m-4579 -651 c20 -11 26 -54 9 -65 -5 -3 -10 -11 -10 -16 0
-6 5 -7 10 -4 6 3 10 -1 10 -9 0 -9 -9 -16 -20 -16 -23 0 -23 3 -11 48 13 42
4 64 -23 60 -19 -3 -21 -9 -19 -56 2 -45 0 -53 -14 -50 -9 2 -19 10 -21 18 -5
13 -3 13 11 1 21 -17 21 -12 1 28 -15 30 -15 34 2 52 19 21 45 24 75 9z
m-2828 -7 c-15 -3 -23 -12 -23 -24 0 -13 7 -19 23 -20 l22 -2 -22 -4 c-14 -3
-23 -12 -23 -23 0 -11 9 -20 23 -23 16 -3 13 -5 -10 -6 l-33 -1 0 55 0 55 33
-1 c23 -1 26 -3 10 -6z m194 -75 c-2 -18 -4 -6 -4 27 0 33 2 48 4 33 2 -15 2
-42 0 -60z m240 0 c-2 -18 -4 -6 -4 27 0 33 2 48 4 33 2 -15 2 -42 0 -60z
m1423 28 c0 -51 -1 -53 -26 -52 -34 1 -53 29 -38 54 7 9 21 17 33 16 14 0 21
5 21 18 0 10 2 18 5 18 3 0 5 -24 5 -54z m410 1 c0 -49 -2 -53 -25 -55 -31 -2
-51 29 -35 58 6 11 20 20 30 20 11 0 20 7 20 15 0 8 2 15 5 15 3 0 5 -24 5
-53z m-1111 15 c-14 -5 -11 -60 4 -66 6 -3 3 -5 -8 -3 -14 2 -21 12 -26 39 -6
42 6 63 26 45 7 -7 9 -13 4 -15z m370 0 c-14 -5 -11 -60 4 -65 7 -4 6 -6 -4
-6 -12 -1 -18 10 -21 38 -5 51 0 64 17 48 7 -7 9 -13 4 -15z m-1479 -22 c0
-32 17 -32 24 0 3 17 10 30 15 30 5 0 2 -18 -6 -40 -9 -22 -19 -40 -23 -40 -6
0 -30 59 -30 74 0 4 5 4 10 1 6 -3 10 -15 10 -25z m110 -10 c0 -36 -3 -40 -24
-40 -13 0 -26 6 -29 14 -6 16 11 36 30 36 7 0 13 5 13 11 0 6 -9 9 -20 6 -11
-3 -18 -1 -14 4 3 5 14 9 25 9 16 0 19 -7 19 -40z m90 -25 c9 0 17 13 21 35
l6 35 2 -41 c1 -39 -1 -41 -26 -40 -25 1 -28 5 -30 41 l-1 40 6 -35 c4 -22 13
-35 22 -35z m110 61 c0 -2 3 -11 6 -20 5 -12 0 -16 -20 -16 -33 0 -36 -29 -3
-31 17 -1 18 -2 4 -6 -37 -9 -62 38 -35 65 11 11 48 17 48 8z m165 -30 c0 -16
-7 -33 -16 -39 -26 -16 -49 -1 -49 31 0 36 8 44 40 40 20 -2 25 -8 25 -32z
m53 27 c-23 -6 -23 -11 4 -32 25 -21 17 -42 -15 -40 -17 1 -18 2 -4 6 22 6 22
19 0 31 -20 12 -10 42 14 41 17 -1 17 -2 1 -6z m122 -3 c0 -5 -7 -7 -15 -4
-20 8 -19 -13 2 -24 21 -12 10 -42 -17 -42 -11 0 -20 4 -20 9 0 5 9 7 20 4 26
-7 25 4 -2 26 -12 10 -18 23 -14 29 9 14 46 16 46 2z m27 -52 c-2 -13 -4 -3
-4 22 0 25 2 35 4 23 2 -13 2 -33 0 -45z m93 16 c0 -45 -18 -69 -47 -61 -14 4
-13 5 5 6 12 0 22 5 22 10 0 5 -10 11 -22 13 -15 2 -24 11 -26 26 -5 31 15 52
44 50 21 -2 24 -7 24 -44z m40 11 c0 -24 5 -35 15 -35 14 0 20 17 16 47 -1 6
3 14 9 18 6 4 10 -9 10 -34 0 -39 -2 -41 -29 -41 -17 0 -31 6 -35 16 -9 25 -7
64 4 64 6 0 10 -16 10 -35z m77 -27 c-2 -13 -4 -3 -4 22 0 25 2 35 4 23 2 -13
2 -33 0 -45z m81 50 c19 -19 14 -28 -18 -28 -21 0 -28 -4 -24 -14 3 -8 15 -17
27 -19 18 -3 17 -5 -5 -6 -22 -1 -29 4 -34 24 -10 42 26 71 54 43z m90 -30 c2
-21 -1 -38 -6 -38 -5 0 -9 15 -8 33 1 22 -3 32 -14 32 -10 0 -16 -12 -18 -32
-5 -46 -20 -41 -17 5 1 20 3 37 4 38 0 1 13 1 29 0 24 -1 27 -5 30 -38z m130
20 c3 -14 -3 -18 -23 -18 -17 0 -25 -5 -22 -12 2 -7 13 -13 25 -12 12 0 19 -3
16 -8 -10 -15 -43 -8 -54 12 -15 28 4 62 33 58 12 -2 23 -11 25 -20z m62 12
c0 -5 -7 -7 -15 -4 -20 8 -19 -13 2 -24 21 -12 10 -42 -17 -42 -11 0 -20 4
-20 9 0 5 9 7 20 4 26 -7 25 4 -2 26 -12 10 -18 23 -14 29 9 14 46 16 46 2z
m118 -12 c3 -14 -3 -18 -23 -18 -17 0 -25 -5 -22 -12 2 -7 14 -13 26 -12 13 0
18 -3 12 -9 -27 -27 -63 18 -47 59 8 21 50 14 54 -8z m50 15 c-23 -6 -23 -11
4 -32 25 -21 17 -41 -15 -40 -21 0 -21 1 3 11 l25 10 -22 11 c-34 15 -29 48 6
46 13 -1 13 -2 -1 -6z m102 -33 c0 -22 -4 -40 -10 -40 -5 0 -10 18 -10 40 0
22 5 40 10 40 6 0 10 -18 10 -40z m128 -4 c2 -27 0 -36 -8 -31 -7 4 -10 15 -7
25 2 10 1 23 -3 30 -12 20 -30 1 -31 -33 l-2 -32 -6 34 c-8 48 -31 53 -31 7 0
-20 -4 -36 -10 -36 -5 0 -10 18 -10 40 l0 40 53 -3 52 -2 3 -39z m76 28 c3 -9
6 -27 6 -40 0 -20 -5 -24 -30 -24 -24 0 -30 4 -30 21 0 12 8 23 20 26 25 7 26
20 3 26 -14 4 -13 5 3 6 12 0 25 -6 28 -15z m171 -24 c0 -38 -24 -52 -50 -30
-31 25 -9 73 30 68 16 -2 20 -11 20 -38z m63 29 c-11 -6 -18 -22 -18 -39 0
-46 -16 -36 -17 10 -1 37 1 40 26 40 22 -1 24 -2 9 -11z m70 -1 c19 -19 14
-28 -18 -28 -21 0 -28 -4 -24 -14 3 -8 15 -17 27 -19 18 -3 17 -5 -5 -6 -22
-1 -29 4 -34 24 -10 42 26 71 54 43z m72 2 c0 -5 -6 -7 -14 -4 -8 3 -17 1 -20
-5 -4 -5 3 -13 14 -16 27 -9 22 -39 -8 -43 -12 -2 -22 1 -22 6 0 6 9 8 20 5
11 -3 20 -1 20 5 0 6 -9 14 -20 17 -20 6 -26 25 -13 38 10 11 43 8 43 -3z
m200 6 c0 -2 3 -11 6 -20 5 -12 0 -16 -20 -16 -33 0 -36 -29 -3 -31 17 -1 18
-2 4 -6 -37 -9 -62 38 -35 65 11 11 48 17 48 8z m136 -38 c3 -37 2 -38 -32
-38 -40 0 -52 19 -35 56 8 19 17 25 37 22 23 -3 27 -9 30 -40z m159 10 l7 -31
14 33 c22 51 26 30 5 -26 -12 -31 -26 -50 -37 -52 -18 -4 -18 -3 -1 10 18 13
18 16 3 52 -19 45 -19 46 -7 46 5 0 13 -14 16 -32z m-103 -38 c3 -31 0 -40
-12 -40 -24 0 -18 77 6 80 1 0 4 -18 6 -40z m370 0 c3 -31 0 -40 -12 -40 -11
0 -15 10 -13 37 2 46 1 43 12 43 5 0 11 -18 13 -40z m3136 -282 c8 -10 5 -13
-13 -13 -18 0 -21 3 -13 13 6 6 12 12 13 12 1 0 7 -6 13 -12z m339 -121 c-2
-23 -3 -1 -3 48 0 50 1 68 3 42 2 -26 2 -67 0 -90z m319 111 c-18 -26 -21 -84
-5 -125 9 -26 9 -27 -6 -12 -25 24 -30 90 -11 127 9 18 21 32 27 32 5 0 3 -10
-5 -22z m194 -60 c0 -50 -13 -88 -30 -88 -5 0 -2 12 6 28 18 35 18 80 -1 116
-16 30 -16 30 5 11 15 -13 20 -30 20 -67z m47 -51 c-2 -23 -3 -1 -3 48 0 50 1
68 3 42 2 -26 2 -67 0 -90z m280 0 c-2 -23 -3 -1 -3 48 0 50 1 68 3 42 2 -26
2 -67 0 -90z m235 124 c-19 -12 -19 -140 -1 -153 11 -7 9 -8 -6 -6 -14 2 -21
12 -23 33 -2 17 -8 36 -14 43 -7 8 -7 12 1 12 6 0 11 15 11 33 0 38 6 47 29
47 13 0 13 -2 3 -9z m169 -19 c-14 -26 -14 -97 0 -125 9 -19 8 -19 -11 3 -18
20 -21 34 -18 72 3 26 11 54 18 63 17 21 24 12 11 -13z m160 -36 c3 -56 -11
-106 -31 -106 -5 0 -2 12 6 28 18 35 18 79 -1 117 l-15 30 20 -24 c11 -13 20
-33 21 -45z m373 37 c-16 -33 -18 -71 -4 -109 13 -34 6 -43 -11 -12 -19 35
-16 104 6 128 24 27 27 25 9 -7z m166 -54 c0 -41 -17 -89 -33 -89 -6 0 -5 5 1
13 20 24 24 83 8 123 l-16 39 20 -24 c12 -14 20 -38 20 -62z m54 75 c10 -4 16
-18 16 -40 0 -19 5 -34 11 -34 8 0 8 -4 1 -12 -6 -7 -12 -26 -14 -43 -2 -21
-9 -31 -23 -33 -15 -2 -17 -1 -6 6 18 13 18 141 -1 153 -15 10 -6 12 16 3z
m78 -82 c2 -45 0 -82 -4 -82 -4 0 -8 39 -8 87 0 108 7 105 12 -5z m-1974 71
c-3 -14 14 -68 28 -90 14 -22 13 -23 -11 -23 -15 0 -24 4 -20 10 11 17 -5 32
-21 19 -7 -6 -11 -15 -8 -20 3 -5 -7 -9 -21 -9 l-27 0 31 26 c34 28 39 54 15
78 -14 15 -13 16 10 16 14 0 25 -3 24 -7z m41 -12 c-27 -22 -32 -21 -23 3 3 9
15 16 26 16 19 0 19 -1 -3 -19z m68 -1 c-3 -11 -1 -20 5 -20 5 0 6 -4 3 -10
-11 -17 -22 -11 -27 15 -5 26 -1 35 15 35 5 0 7 -9 4 -20z m231 8 c15 -15 16
-54 2 -63 -5 -3 -10 -11 -10 -16 0 -6 5 -7 10 -4 6 3 10 -1 10 -9 0 -9 -9 -16
-20 -16 -23 0 -24 7 -10 46 15 37 4 66 -23 62 -20 -3 -22 -8 -20 -56 2 -45 0
-53 -14 -50 -9 2 -19 10 -21 18 -5 13 -3 13 11 1 21 -17 21 -12 1 28 -15 30
-15 34 2 52 19 21 64 25 82 7z m562 1 c0 -6 -9 -8 -21 -4 -14 5 -25 2 -30 -6
-15 -23 -10 -37 14 -42 20 -4 20 -4 -4 -6 -17 -1 -30 -9 -37 -26 -12 -25 -52
-36 -52 -14 0 6 6 9 14 6 14 -5 25 15 41 71 6 21 4 23 -15 17 -15 -5 -20 -4
-16 4 9 14 106 15 106 0z m306 -21 c-5 -25 -4 -30 6 -20 17 17 38 15 38 -4 0
-10 -6 -14 -15 -11 -17 7 -30 -9 -15 -18 6 -4 7 -12 3 -18 -4 -7 2 -5 12 3 16
13 18 13 13 0 -7 -21 -38 -25 -38 -6 0 9 -4 16 -10 16 -5 0 -10 -7 -10 -15 0
-8 -5 -15 -10 -15 -7 0 -8 13 -3 38 4 20 7 47 8 60 0 12 6 22 14 22 10 0 12
-8 7 -32z m539 0 c-3 -36 -24 -88 -36 -88 -4 0 -1 25 6 55 7 30 10 57 7 60 -3
3 1 5 10 5 11 0 14 -9 13 -32z m-2209 -45 c-5 -29 -4 -35 4 -23 10 13 11 13 7
0 -5 -20 -76 -27 -78 -8 -4 43 14 68 48 68 24 0 25 -2 19 -37z m1547 22 c-2
-5 -9 -10 -15 -10 -7 0 -14 -10 -16 -22 -3 -23 12 -32 21 -13 3 6 4 5 3 -2 -1
-7 -19 -14 -39 -16 -29 -3 -37 0 -37 13 0 11 5 15 14 12 9 -4 16 3 20 16 7 28
0 33 -21 16 -17 -13 -17 -12 -4 4 15 19 78 21 74 2z m410 -1 c0 -5 -3 -17 -5
-26 -6 -31 17 -18 27 14 l9 33 4 -38 c4 -43 22 -40 22 4 0 16 5 29 10 29 13 0
13 -21 0 -54 -8 -22 -16 -26 -51 -26 -41 0 -41 0 -37 35 3 27 1 32 -9 23 -11
-8 -12 -7 -7 6 7 17 40 18 37 0z m292 7 c7 -12 -12 -24 -25 -16 -11 7 -4 25
10 25 5 0 11 -4 15 -9z m-2002 -18 c-18 -2 -48 -2 -65 0 -18 2 -4 4 32 4 36 0
50 -2 33 -4z m845 0 c-15 -2 -42 -2 -60 0 -18 2 -6 4 27 4 33 0 48 -2 33 -4z
m-1036 -43 c3 -35 1 -40 -17 -39 -11 0 -14 3 -7 6 6 2 12 16 12 29 0 13 -6 24
-12 24 -9 0 -8 4 2 10 8 5 16 10 16 10 1 0 4 -18 6 -40z m1798 30 c0 -5 -4
-10 -10 -10 -5 0 -10 5 -10 10 0 6 5 10 10 10 6 0 10 -4 10 -10z m370 -17 c0
-16 2 -16 11 -3 9 13 10 13 6 0 -5 -21 -31 -19 -35 3 -2 9 1 17 7 17 6 0 11
-8 11 -17z m-1982 0 c-15 -2 -42 -2 -60 0 -18 2 -6 4 27 4 33 0 48 -2 33 -4z
m308 -19 c-5 -17 -3 -23 4 -19 5 3 10 15 10 26 0 10 5 19 10 19 6 0 8 -11 4
-25 -4 -15 -2 -25 4 -25 6 0 13 11 15 25 4 23 4 23 3 -2 -1 -24 -6 -28 -33
-31 -24 -2 -33 1 -33 12 0 8 -3 21 -6 30 -4 11 -1 16 11 16 13 0 16 -6 11 -26z
m542 19 c-15 -2 -42 -2 -60 0 -18 2 -6 4 27 4 33 0 48 -2 33 -4z m972 -13 c0
-11 0 -23 1 -27 0 -4 -4 -9 -9 -11 -10 -3 -23 44 -14 53 11 11 22 4 22 -15z
m-1492 -842 c8 -10 5 -13 -13 -13 -18 0 -21 3 -13 13 6 6 12 12 13 12 1 0 7
-6 13 -12z m1199 -4 c2 -5 -6 -10 -17 -10 -20 0 -25 7 -13 20 9 8 26 3 30 -10z
m-131 -37 c-14 -10 -18 -27 -17 -77 0 -40 5 -66 13 -72 9 -7 7 -8 -7 -6 -15 2
-21 12 -23 41 -2 20 -9 37 -15 37 -7 0 -4 5 5 10 10 6 15 19 13 32 -5 25 11
48 33 48 13 0 13 -2 -2 -13z m198 7 c10 -4 16 -18 16 -40 0 -19 5 -34 11 -34
8 0 8 -4 1 -12 -6 -7 -12 -26 -14 -43 -2 -21 -9 -31 -23 -33 -15 -2 -17 -1 -6
6 18 13 18 141 -1 153 -15 10 -6 12 16 3z m-1240 -30 c20 -20 20 -34 -1 -64
-16 -22 -16 -23 0 -17 11 4 17 1 17 -8 0 -8 -9 -15 -20 -15 -17 0 -19 6 -17
53 2 46 0 52 -19 55 -27 4 -37 -20 -24 -54 15 -38 12 -54 -10 -54 -11 0 -20 7
-20 16 0 9 5 12 12 8 8 -5 9 -2 4 12 -19 44 -19 57 -1 70 25 19 60 18 79 -2z
m1184 4 c7 -7 12 -15 12 -19 0 -16 -33 -39 -55 -39 -24 0 -42 -35 -21 -44 6
-2 -4 -5 -22 -5 -29 -1 -32 1 -19 14 16 16 31 80 22 95 -9 14 69 12 83 -2z
m-773 -59 c-5 -24 -4 -30 5 -24 8 5 11 3 8 -6 -7 -22 -74 -24 -82 -3 -10 26
20 64 50 64 23 0 25 -3 19 -31z m87 16 c-2 -5 -10 -9 -18 -7 -8 2 -14 -3 -14
-11 0 -7 -7 -22 -15 -33 -15 -18 -16 -17 -9 15 4 23 3 31 -5 27 -12 -8 -15 6
-4 18 11 10 69 3 65 -9z m84 -27 c-4 -23 -12 -48 -18 -55 -13 -16 -58 -17 -58
-2 0 6 8 8 19 4 11 -3 22 -2 25 3 3 6 -3 12 -14 15 -41 11 -13 77 32 77 19 0
20 -4 14 -42z m186 16 c0 -13 1 -30 2 -36 1 -7 -6 -13 -14 -13 -11 0 -14 9
-12 33 4 41 -16 43 -25 2 -9 -45 -27 -51 -20 -7 7 47 -9 48 -29 2 -19 -46 -28
-45 -20 3 5 27 4 33 -3 22 -6 -8 -11 -10 -11 -4 0 20 12 24 71 23 55 -1 59 -3
61 -25z m93 -5 c-5 -24 -4 -30 5 -24 8 5 11 3 8 -6 -7 -22 -74 -24 -82 -3 -10
26 20 64 50 64 23 0 25 -3 19 -31z m105 15 c0 -10 -6 -14 -14 -11 -9 4 -16 -3
-20 -16 -7 -27 0 -33 19 -17 13 11 14 10 9 -4 -9 -22 -74 -23 -74 0 0 10 6 14
15 10 11 -4 15 2 15 21 0 21 -2 24 -15 13 -8 -7 -15 -8 -15 -3 0 17 12 23 47
23 24 0 33 -5 33 -16z m-722 -1 c-15 -2 -42 -2 -60 0 -18 2 -6 4 27 4 33 0 48
-2 33 -4z m-165 -75 c7 -4 -1 -7 -18 -7 -16 0 -24 3 -17 6 6 2 12 16 12 29 0
13 -6 24 -12 24 -9 0 -8 4 2 10 12 8 16 3 18 -23 2 -17 9 -35 15 -39z m170 45
c-18 -2 -48 -2 -65 0 -18 2 -4 4 32 4 36 0 50 -2 33 -4z m447 -103 c0 -5 -4
-10 -9 -10 -6 0 -9 -8 -9 -17 1 -26 -20 -73 -32 -73 -13 0 -13 17 0 25 6 4 10
14 9 23 -2 28 13 62 27 62 8 0 14 -4 14 -10z m-7300 -568 c0 -5 -10 -8 -21 -8
-32 1 -34 -18 -4 -34 35 -19 30 -54 -7 -58 -16 -2 -28 1 -28 6 0 5 10 8 21 8
32 -1 35 22 5 35 -25 12 -34 38 -19 52 9 10 53 9 53 -1z m500 -48 l0 -55 -32
3 c-30 3 -33 6 -33 38 0 29 4 36 23 38 12 2 22 10 22 18 0 8 5 14 10 14 6 0
10 -25 10 -56z m157 -26 c-2 -18 -4 -6 -4 27 0 33 2 48 4 33 2 -15 2 -42 0
-60z m709 57 c9 -8 11 -15 5 -15 -15 0 -14 -57 2 -63 7 -3 5 -6 -5 -6 -15 -1
-26 28 -15 42 1 2 -4 11 -12 20 -9 12 -10 17 -2 17 7 0 9 5 6 10 -9 15 4 12
21 -5z m-1326 -45 c0 -22 -4 -40 -10 -40 -5 0 -10 18 -10 40 0 22 5 40 10 40
6 0 10 -18 10 -40z m80 -9 c0 -50 -10 -62 -48 -60 -10 1 -7 4 7 8 14 4 26 12
29 19 2 7 -2 10 -12 6 -20 -8 -46 13 -46 35 0 24 20 41 47 41 21 0 23 -5 23
-49z m40 14 c0 -43 27 -49 36 -7 10 47 12 48 13 7 1 -38 -1 -41 -29 -43 -18
-1 -30 3 -31 10 -1 7 -3 25 -5 41 -1 15 1 27 7 27 5 0 9 -16 9 -35z m90 -5 c0
-22 -4 -40 -10 -40 -5 0 -10 18 -10 40 0 22 5 40 10 40 6 0 10 -18 10 -40z
m70 36 c0 -2 3 -11 6 -20 5 -12 0 -16 -20 -16 -33 0 -36 -29 -3 -31 17 -1 18
-2 4 -6 -37 -9 -62 38 -35 65 11 11 48 17 48 8z m87 -41 l1 -40 -6 35 c-4 22
-13 35 -22 35 -9 0 -17 -13 -21 -35 l-6 -35 -2 41 c-1 39 1 41 27 40 24 -1 27
-5 29 -41z m177 23 c8 -13 8 -23 0 -35 -28 -45 -89 -9 -64 38 13 24 48 22 64
-3z m154 -19 c3 -34 1 -36 -25 -35 -37 1 -44 33 -9 42 14 3 23 10 20 16 -3 5
-12 7 -20 4 -8 -3 -14 -1 -14 5 0 6 10 9 23 7 17 -2 23 -10 25 -39z m50 34
c-23 -6 -23 -11 4 -32 25 -21 17 -41 -15 -40 -21 0 -21 1 3 11 l25 10 -22 11
c-34 15 -29 48 6 46 13 -1 13 -2 -1 -6z m122 -3 c0 -5 -6 -7 -14 -4 -8 3 -17
1 -20 -5 -4 -5 3 -13 14 -16 27 -9 22 -39 -8 -43 -12 -2 -22 1 -22 6 0 6 9 8
20 5 11 -3 20 -1 20 5 0 6 -9 14 -20 17 -20 6 -26 25 -13 38 10 11 43 8 43 -3z
m27 -52 c-2 -13 -4 -3 -4 22 0 25 2 35 4 23 2 -13 2 -33 0 -45z m93 16 c0 -45
-18 -69 -47 -61 -14 4 -13 5 5 6 27 1 30 21 2 21 -13 0 -22 9 -26 25 -8 32 11
55 42 53 21 -2 24 -7 24 -44z m40 11 c0 -24 5 -35 15 -35 15 0 17 6 18 48 0
12 4 22 8 22 5 0 9 -17 9 -38 0 -34 -3 -38 -27 -40 -15 -1 -30 4 -35 10 -11
18 -10 68 2 68 6 0 10 -16 10 -35z m77 -27 c-2 -13 -4 -3 -4 22 0 25 2 35 4
23 2 -13 2 -33 0 -45z m81 50 c19 -19 14 -28 -18 -28 -23 0 -28 -4 -23 -16 3
-9 13 -14 24 -11 11 3 19 1 19 -4 0 -5 -11 -9 -25 -9 -18 0 -26 7 -31 25 -10
42 26 71 54 43z m90 -30 c2 -22 -1 -38 -7 -38 -6 0 -11 16 -11 36 0 45 -24 42
-28 -4 -5 -45 -18 -40 -20 7 -2 38 -1 39 31 38 29 -2 32 -5 35 -39z m130 20
c3 -14 -3 -18 -23 -18 -17 0 -25 -5 -22 -12 2 -7 13 -13 25 -12 12 0 19 -3 16
-8 -9 -14 -43 -8 -52 10 -15 27 4 64 30 60 13 -2 24 -11 26 -20z m62 12 c0 -5
-7 -7 -15 -4 -20 8 -19 -13 2 -24 21 -12 10 -42 -17 -42 -11 0 -20 4 -20 9 0
5 9 7 20 4 26 -7 25 4 -2 26 -12 10 -18 23 -14 29 9 14 46 16 46 2z m93 0
c-14 -6 -23 -18 -23 -30 0 -12 10 -25 23 -30 22 -10 22 -10 -3 -7 -19 1 -26 8
-28 31 -4 29 10 46 38 45 8 0 5 -4 -7 -9z m102 -24 c0 -16 -7 -33 -16 -39 -26
-16 -49 -1 -49 31 0 36 8 44 40 40 20 -2 25 -8 25 -32z m80 25 c10 -16 13 -71
4 -71 -5 0 -9 13 -9 29 0 28 -15 49 -27 38 -3 -4 -9 -21 -13 -39 l-8 -33 -1
40 c-1 36 2 41 24 43 13 1 27 -2 30 -7z m75 -1 c0 -5 -6 -7 -14 -4 -8 3 -17 1
-20 -5 -4 -5 3 -13 14 -16 27 -9 22 -39 -8 -43 -12 -2 -22 1 -22 6 0 6 9 8 20
5 11 -3 20 -1 20 5 0 6 -9 14 -20 17 -20 6 -26 25 -13 38 10 11 43 8 43 -3z
m27 -52 c-2 -13 -4 -3 -4 22 0 25 2 35 4 23 2 -13 2 -33 0 -45z m93 16 c0 -45
-18 -69 -47 -61 -14 4 -13 5 5 6 12 0 22 5 22 10 0 5 -10 11 -22 13 -15 2 -24
11 -26 26 -5 31 15 52 44 50 21 -2 24 -7 24 -44z m84 24 c9 -34 7 -58 -4 -58
-5 0 -10 16 -10 35 0 24 -5 35 -15 35 -10 0 -15 -11 -15 -35 0 -19 -4 -35 -10
-35 -5 0 -10 18 -10 40 0 37 2 40 29 40 21 0 30 -6 35 -22z m74 -19 c3 -34 1
-36 -25 -35 -37 1 -44 33 -9 42 14 3 23 10 20 16 -3 5 -12 7 -20 4 -8 -3 -14
-1 -14 5 0 6 10 9 23 7 17 -2 23 -10 25 -39z m72 31 c0 -5 -6 -7 -14 -4 -8 3
-17 1 -20 -5 -4 -5 3 -13 14 -16 27 -9 22 -39 -8 -43 -12 -2 -22 1 -22 6 0 6
9 8 20 5 11 -3 20 -1 20 5 0 6 -9 14 -20 17 -20 6 -26 25 -13 38 10 11 43 8
43 -3z m30 0 c0 -5 -2 -10 -4 -10 -3 0 -8 5 -11 10 -3 6 -1 10 4 10 6 0 11 -4
11 -10z m0 -60 c0 -5 -2 -10 -4 -10 -3 0 -8 5 -11 10 -3 6 -1 10 4 10 6 0 11
-4 11 -10z m-2030 -359 c0 -4 -11 -6 -25 -4 -19 4 -27 0 -36 -20 -16 -35 4
-71 37 -64 13 2 21 0 18 -4 -8 -14 -41 -10 -58 7 -21 20 -20 53 1 76 16 18 63
25 63 9z m350 -44 c0 -49 -2 -53 -25 -55 -31 -2 -51 29 -35 58 6 11 20 20 30
20 11 0 20 7 20 15 0 8 2 15 5 15 3 0 5 -24 5 -53z m328 21 c2 -19 -3 -30 -17
-38 -29 -15 -26 -28 7 -33 22 -3 20 -4 -10 -6 -44 -1 -47 7 -13 39 31 29 34
65 5 57 -11 -3 -20 -1 -20 5 0 5 10 8 23 6 15 -2 23 -11 25 -30z m90 -2 c5
-45 -6 -76 -28 -76 -24 0 -32 13 -32 55 0 44 9 57 35 53 16 -2 23 -11 25 -32z
m80 0 c6 -49 -6 -78 -30 -74 -28 4 -42 46 -28 82 14 38 54 33 58 -8z m284 -33
c2 -24 0 -43 -4 -43 -5 0 -7 26 -7 58 1 61 6 55 11 -15z m728 13 c0 -51 -1
-53 -26 -52 -53 2 -58 66 -5 74 11 2 21 10 21 18 0 8 2 14 5 14 3 0 5 -24 5
-54z m190 -3 c-1 -39 -4 -53 -9 -43 -5 8 -8 30 -7 48 2 25 -1 31 -12 27 -12
-4 -13 -3 -2 10 22 27 30 16 30 -42z m88 45 c16 -16 15 -60 -2 -84 -20 -27
-50 -7 -54 35 -5 50 27 78 56 49z m80 0 c17 -17 15 -73 -4 -89 -35 -29 -69 34
-44 81 12 23 30 26 48 8z m80 0 c17 -17 15 -73 -4 -89 -35 -29 -69 34 -44 81
12 23 30 26 48 8z m1252 -41 c0 -49 -2 -53 -25 -55 -31 -2 -51 29 -35 58 6 11
20 20 30 20 11 0 20 7 20 15 0 8 2 15 5 15 3 0 5 -24 5 -53z m-801 15 c-14 -5
-11 -60 4 -65 7 -4 6 -6 -4 -6 -12 -1 -18 10 -21 38 -5 51 0 64 17 48 7 -7 9
-13 4 -15z m1670 0 c-14 -5 -11 -60 4 -66 6 -3 3 -5 -7 -3 -14 1 -20 10 -21
30 -1 15 -5 30 -8 34 -4 3 -2 12 4 19 8 10 14 11 24 1 7 -7 9 -13 4 -15z
m-4339 -12 c22 -40 -26 -80 -58 -48 -25 25 -6 68 30 68 9 0 22 -9 28 -20z m88
-22 c2 -21 -1 -38 -5 -38 -5 0 -10 14 -11 32 -3 37 -7 43 -21 33 -6 -3 -11
-19 -11 -36 0 -43 -15 -35 -18 10 -2 38 -2 39 30 38 31 -2 33 -5 36 -39z m50
35 c-24 -6 -23 -18 4 -35 25 -17 17 -39 -15 -37 -17 1 -18 2 -4 6 21 5 22 22
2 29 -25 10 -19 44 8 43 16 -1 18 -2 5 -6z m52 -33 c0 -22 -4 -40 -10 -40 -5
0 -10 18 -10 40 0 22 5 40 10 40 6 0 10 -18 10 -40z m160 36 c0 -2 3 -11 6
-20 5 -12 0 -16 -20 -16 -33 0 -36 -29 -3 -31 17 -1 18 -2 4 -6 -37 -9 -62 38
-35 65 11 11 48 17 48 8z m57 -9 c-9 -7 -18 -25 -20 -42 -3 -25 -4 -23 -6 10
-1 35 2 41 20 42 19 2 19 0 6 -10z m81 -9 c3 -14 -3 -18 -23 -18 -17 0 -25 -5
-22 -12 2 -7 13 -13 25 -12 12 0 19 -3 16 -8 -10 -15 -43 -8 -54 12 -15 28 4
62 33 58 12 -2 23 -11 25 -20z m375 15 c-7 -2 -13 -20 -13 -39 0 -19 -4 -34
-10 -34 -5 0 -10 18 -10 40 0 35 3 40 23 39 12 0 16 -3 10 -6z m75 -5 c19 -19
14 -28 -18 -28 -23 0 -28 -4 -23 -16 3 -9 13 -14 24 -11 11 3 19 1 19 -4 0 -5
-11 -9 -25 -9 -18 0 -26 7 -31 25 -10 42 26 71 54 43z m76 -4 c3 -9 6 -27 6
-40 0 -20 -5 -24 -30 -24 -24 0 -30 4 -30 21 0 12 8 23 20 26 25 7 26 20 3 26
-14 4 -13 5 3 6 12 0 25 -6 28 -15z m76 -24 c0 -22 -4 -40 -10 -40 -5 0 -9 18
-8 40 1 22 5 40 10 40 4 0 8 -18 8 -40z m70 34 c0 -3 -9 -19 -20 -34 l-20 -29
27 -4 c22 -3 20 -4 -10 -6 l-38 -1 20 29 c25 35 26 38 4 44 -11 3 -7 5 10 6
15 0 27 -2 27 -5z m70 -34 c0 -36 -3 -40 -24 -40 -13 0 -26 6 -29 14 -6 16 11
36 30 36 7 0 13 5 13 11 0 6 -9 9 -20 6 -11 -3 -18 -1 -14 4 3 5 14 9 25 9 16
0 19 -7 19 -40z m80 31 c0 -5 -8 -7 -19 -4 -11 3 -21 -2 -24 -11 -10 -25 3
-48 24 -43 11 3 19 1 19 -4 0 -13 -34 -11 -48 3 -25 25 -6 68 30 68 10 0 18
-4 18 -9z m30 -31 c0 -22 -4 -40 -8 -40 -5 0 -9 18 -10 40 -1 22 3 40 8 40 6
0 10 -18 10 -40z m85 6 c0 -32 -23 -53 -49 -43 -19 8 -22 63 -3 71 30 12 52 1
52 -28z m82 -11 c1 -40 1 -40 -5 -6 -4 19 -12 36 -19 38 -13 5 -27 -32 -18
-46 3 -5 1 -12 -5 -16 -6 -4 -10 9 -10 33 0 36 2 39 28 38 24 -1 27 -5 29 -41z
m81 33 c19 -19 14 -28 -18 -28 -21 0 -28 -4 -24 -14 3 -8 15 -17 27 -19 18 -3
17 -5 -5 -6 -22 -1 -29 4 -34 24 -10 42 26 71 54 43z m50 5 c-23 -6 -23 -11 4
-32 25 -21 17 -42 -15 -40 -17 1 -18 2 -4 6 22 6 22 19 0 31 -20 12 -10 42 14
41 17 -1 17 -2 1 -6z m220 -5 c19 -19 14 -28 -18 -28 -21 0 -28 -4 -24 -14 3
-8 15 -17 27 -19 18 -3 17 -5 -5 -6 -22 -1 -29 4 -34 24 -10 42 26 71 54 43z
m540 -30 c2 -22 -1 -38 -7 -38 -6 0 -11 16 -11 36 0 46 -23 41 -31 -7 l-6 -34
-4 35 c-5 44 -31 47 -36 5 -6 -44 -13 -44 -13 2 l0 40 53 -1 52 -1 3 -37z m52
-23 c9 0 17 13 21 35 l6 35 2 -41 c1 -39 -1 -41 -26 -40 -25 1 -28 5 -30 41
l-1 40 6 -35 c4 -22 13 -35 22 -35z m108 53 c19 -19 14 -28 -18 -28 -23 0 -28
-4 -23 -16 3 -9 13 -14 24 -11 11 3 19 1 19 -4 0 -5 -11 -9 -25 -9 -18 0 -26
7 -31 25 -10 42 26 71 54 43z m50 5 c-23 -6 -23 -11 4 -32 25 -21 17 -41 -15
-40 -21 0 -21 1 3 11 l25 10 -22 11 c-34 15 -29 48 6 46 13 -1 13 -2 -1 -6z
m119 -6 c-9 -7 -18 -25 -20 -42 -3 -25 -4 -23 -6 10 -1 35 2 41 20 42 19 2 19
0 6 -10z m73 -27 c0 -36 -3 -40 -24 -40 -13 0 -26 6 -29 14 -6 16 11 36 30 36
7 0 13 5 13 11 0 6 -9 9 -20 6 -11 -3 -18 -1 -14 4 3 5 14 9 25 9 16 0 19 -7
19 -40z m70 30 c0 -5 -6 -7 -14 -4 -8 3 -17 1 -20 -5 -4 -5 3 -13 14 -16 27
-9 22 -39 -8 -43 -12 -2 -22 1 -22 6 0 6 9 8 20 5 11 -3 20 -1 20 5 0 6 -9 14
-20 17 -20 6 -26 25 -13 38 10 11 43 8 43 -3z m128 -18 c4 -28 -14 -52 -38
-52 -10 0 -21 -8 -23 -17 -3 -10 -5 8 -6 40 l-1 58 33 -3 c25 -2 33 -8 35 -26z
m70 -13 c3 -34 1 -36 -25 -35 -37 1 -44 33 -9 42 14 3 23 10 20 16 -3 5 -12 7
-20 4 -8 -3 -14 -1 -14 5 0 6 10 9 23 7 17 -2 23 -10 25 -39z m60 30 c-11 -6
-18 -22 -18 -41 0 -41 -13 -27 -17 17 -2 32 0 35 25 35 23 -1 24 -2 10 -11z
m70 -32 c3 -37 2 -38 -25 -35 -37 4 -44 35 -9 44 14 3 23 10 20 16 -3 5 -12 7
-20 4 -8 -3 -14 -1 -14 5 0 6 10 9 23 7 18 -2 23 -10 25 -41z m122 34 c0 -5
-8 -7 -19 -4 -21 5 -34 -18 -24 -43 3 -9 13 -14 24 -11 11 3 19 1 19 -4 0 -13
-34 -11 -48 3 -25 25 -6 68 30 68 10 0 18 -4 18 -9z m64 -7 c3 -9 6 -27 6 -40
0 -20 -5 -24 -30 -24 -24 0 -30 4 -30 21 0 12 8 23 20 26 25 7 26 20 3 26 -14
4 -13 5 3 6 12 0 25 -6 28 -15z m164 -25 c3 -34 1 -36 -25 -35 -37 1 -44 33
-9 42 14 3 23 10 20 16 -3 5 -12 7 -20 4 -8 -3 -14 -1 -14 5 0 6 10 9 23 7 17
-2 23 -10 25 -39z m120 29 c19 -19 14 -28 -18 -28 -23 0 -28 -4 -23 -16 3 -9
13 -14 24 -11 11 3 19 1 19 -4 0 -5 -11 -9 -25 -9 -18 0 -26 7 -31 25 -10 42
26 71 54 43z m58 -5 c3 10 10 17 15 17 5 0 4 -11 -3 -25 -8 -19 -8 -28 2 -40
7 -8 8 -15 2 -15 -5 0 -13 7 -16 17 -6 14 -8 14 -21 -3 -8 -10 -15 -14 -15 -8
0 5 5 15 11 21 8 8 8 17 -1 34 -10 23 -10 23 4 5 14 -17 16 -17 22 -3z m100 2
c11 -27 -5 -65 -26 -65 -11 0 -20 -7 -20 -15 0 -8 -4 -15 -10 -15 -5 0 -10 25
-10 55 0 55 0 55 30 55 18 0 33 -6 36 -15z m82 -7 c3 -14 -3 -18 -23 -18 -17
0 -25 -5 -22 -12 2 -7 13 -13 25 -12 12 0 19 -3 16 -8 -3 -4 -14 -8 -25 -8
-24 0 -40 38 -27 63 12 23 52 19 56 -5z m47 5 c-10 -9 -15 -26 -12 -40 2 -12
0 -23 -4 -23 -5 0 -9 18 -9 40 0 34 3 40 21 40 19 0 19 -1 4 -17z m45 -23 c0
-22 -4 -40 -10 -40 -5 0 -10 18 -10 40 0 22 5 40 10 40 6 0 10 -18 10 -40z
m117 -5 c1 -40 1 -40 -5 -6 -10 48 -32 53 -32 7 0 -20 -4 -36 -10 -36 -5 0
-10 16 -10 36 0 46 -23 41 -31 -7 l-6 -34 -2 41 -1 41 48 -1 47 -1 2 -40z m83
41 c0 -2 3 -11 6 -20 5 -12 0 -16 -20 -16 -33 0 -36 -29 -3 -31 17 -1 18 -2 4
-6 -37 -9 -62 38 -35 65 11 11 48 17 48 8z m88 -38 c2 -24 -1 -38 -9 -38 -7 0
-9 10 -7 24 3 14 2 30 -2 37 -12 19 -30 0 -30 -32 0 -16 -4 -29 -10 -29 -10 0
-14 62 -5 72 3 3 18 5 33 4 24 -1 27 -5 30 -38z m136 20 c8 -13 8 -23 0 -35
-16 -26 -51 -28 -64 -4 -25 47 36 83 64 39z m-4716 -11 c4 -20 -25 -34 -40
-19 -15 15 -1 44 19 40 10 -2 19 -11 21 -21z m200 -189 c3 -22 -2 -29 -22 -34
-15 -3 -27 -15 -29 -27 -2 -12 -5 4 -6 36 -1 58 -1 58 27 55 21 -2 28 -9 30
-30z m1125 25 c-30 -6 -29 -23 4 -49 24 -19 26 -24 14 -38 -14 -17 -61 -22
-61 -7 0 4 11 6 25 3 33 -6 33 14 -1 45 -21 19 -24 26 -14 38 7 8 22 14 34 14
20 -2 20 -2 -1 -6z m87 -33 l25 -41 6 43 c6 42 6 42 7 -14 1 -32 -1 -58 -5
-58 -5 0 -19 19 -33 43 l-25 42 -6 -45 -6 -45 -1 58 c-1 31 1 57 6 57 4 0 18
-18 32 -40z m130 25 c10 -12 10 -18 0 -30 -10 -12 -9 -20 4 -40 9 -14 12 -25
6 -25 -6 0 -16 11 -22 25 -15 33 -36 32 -41 -2 -2 -16 -5 -2 -6 30 -1 54 0 57
23 57 13 0 29 -7 36 -15z m37 -7 c-3 -8 -6 -5 -6 6 -1 11 2 17 5 13 3 -3 4
-12 1 -19z m193 -32 c0 -51 -1 -53 -26 -52 -34 1 -53 29 -38 53 7 10 21 18 33
17 14 0 21 5 21 18 0 10 2 18 5 18 3 0 5 -24 5 -54z m198 27 c2 -14 -2 -23 -9
-23 -7 0 -4 -6 6 -14 16 -12 17 -16 6 -30 -14 -17 -46 -22 -55 -7 -3 4 6 6 19
3 32 -6 35 27 3 36 l-22 5 23 9 c25 9 23 34 -3 32 -9 -1 -16 3 -16 8 0 5 10 8
23 6 14 -2 23 -11 25 -25z m222 -52 c-5 -34 -5 -34 -8 12 -2 26 -7 45 -13 42
-5 -4 -9 -2 -9 4 0 5 6 11 13 14 16 5 24 -27 17 -72z m100 49 c11 -42 -3 -75
-31 -75 -21 0 -24 5 -27 39 -4 51 3 68 30 64 14 -2 24 -12 28 -28z m130 -23
l0 -54 -32 1 c-26 1 -34 6 -36 24 -4 30 16 55 40 49 13 -4 18 0 18 14 0 10 2
19 5 19 3 0 5 -24 5 -53z m40 38 c0 -8 9 -15 20 -15 25 0 34 -21 26 -55 -5
-20 -13 -25 -36 -25 -30 0 -30 1 -30 55 0 30 5 55 10 55 6 0 10 -7 10 -15z
m-1811 -23 c-12 -5 -11 -59 1 -65 6 -3 5 -4 -2 -3 -13 3 -27 61 -20 83 3 9 7
9 17 0 7 -7 9 -13 4 -15z m-385 -8 c3 -9 6 -27 6 -40 0 -20 -5 -24 -30 -24
-24 0 -30 4 -30 21 0 12 8 23 20 26 11 3 20 10 20 15 0 6 -9 8 -20 5 -11 -3
-18 -1 -14 4 9 15 41 10 48 -7z m58 7 c-8 -5 -18 -24 -22 -42 l-8 -34 -1 43
c-1 37 2 42 22 42 16 0 18 -3 9 -9z m72 -7 c3 -9 6 -27 6 -40 0 -22 -4 -25
-27 -22 -35 4 -45 37 -14 45 12 3 21 10 21 15 0 6 -9 8 -20 5 -11 -3 -18 -1
-14 4 9 15 41 10 48 -7z m122 -27 l1 -37 -4 35 c-6 48 -33 48 -33 0 0 -19 -4
-35 -10 -35 -5 0 -10 16 -10 36 0 46 -23 41 -31 -7 l-6 -34 -2 41 -1 41 48 -1
47 -1 1 -38z m84 39 c0 -2 3 -11 6 -20 5 -12 0 -16 -20 -16 -32 0 -34 -17 -3
-30 21 -8 21 -9 1 -9 -38 -2 -58 41 -32 67 11 11 48 17 48 8z m107 -9 c-9 -7
-18 -25 -20 -42 -3 -25 -4 -23 -6 10 -1 35 2 41 20 42 19 2 19 0 6 -10z m30
-49 c-2 -13 -4 -3 -4 22 0 25 2 35 4 23 2 -13 2 -33 0 -45z m83 53 c0 -5 -8
-7 -19 -4 -21 5 -34 -18 -24 -43 3 -9 13 -14 24 -11 11 3 19 1 19 -4 0 -13
-34 -11 -48 3 -15 15 -15 41 0 56 14 14 48 16 48 3z m68 -3 c19 -19 14 -28
-18 -28 -23 0 -28 -4 -23 -16 3 -9 13 -14 24 -11 11 3 19 1 19 -4 0 -5 -11 -9
-25 -9 -18 0 -26 7 -31 25 -10 42 26 71 54 43z m127 -28 c0 -29 -4 -36 -22
-38 -13 -2 -23 -10 -23 -18 0 -8 -4 -14 -10 -14 -5 0 -9 24 -8 54 2 54 3 54
33 53 27 -2 30 -5 30 -37z m83 -3 c3 -37 2 -38 -25 -35 -35 4 -45 37 -14 45
12 3 21 10 21 15 0 6 -9 8 -20 5 -11 -3 -17 -1 -14 5 3 5 16 8 27 6 18 -2 23
-11 25 -41z m49 30 c-9 -7 -18 -25 -20 -42 -3 -25 -4 -23 -6 10 -1 35 2 41 20
42 19 2 19 0 6 -10z m73 -27 c0 -36 -3 -40 -24 -40 -13 0 -26 6 -29 14 -6 16
11 36 30 36 7 0 13 5 13 11 0 6 -9 9 -20 6 -11 -3 -18 -1 -14 4 3 5 14 9 25 9
16 0 19 -7 19 -40z m430 30 c0 -5 -6 -7 -14 -4 -8 3 -17 1 -20 -5 -4 -5 3 -13
14 -16 27 -9 22 -39 -8 -43 -12 -2 -22 1 -22 6 0 6 9 8 20 5 11 -3 20 -1 20 5
0 6 -9 14 -20 17 -20 6 -26 25 -13 38 10 11 43 8 43 -3z m200 6 c0 -2 3 -11 6
-20 5 -12 0 -16 -20 -16 -32 0 -34 -17 -3 -30 21 -8 21 -9 2 -9 -12 -1 -26 4
-33 11 -25 25 -6 68 30 68 10 0 18 -2 18 -4z m200 -27 c0 -28 18 -24 26 6 3
14 10 25 15 25 9 0 -17 -76 -34 -97 -5 -7 -15 -13 -21 -13 -6 0 -5 4 3 9 13 9
12 24 -5 80 -5 17 -4 22 4 17 7 -4 12 -16 12 -27z m-2052 -2 c4 -20 -25 -34
-40 -19 -15 15 -1 44 19 40 10 -2 19 -11 21 -21z"/>
<path d="M3290 8450 c-9 -16 -8 -20 5 -20 8 0 15 9 15 20 0 11 -2 20 -5 20 -2
0 -9 -9 -15 -20z"/>
<path d="M3406 8445 c-7 -20 3 -45 19 -45 16 0 29 35 20 50 -9 15 -32 12 -39
-5z"/>
<path d="M6030 8470 c0 -11 7 -20 15 -20 8 0 15 9 15 20 0 11 -7 20 -15 20 -8
0 -15 -9 -15 -20z"/>
<path d="M6030 8420 c0 -15 5 -20 18 -18 9 2 17 10 17 18 0 8 -8 16 -17 18
-13 2 -18 -3 -18 -18z"/>
<path d="M6154 8446 c-8 -22 3 -49 19 -43 6 2 12 14 12 27 0 27 -22 39 -31 16z"/>
<path d="M375 8450 c-3 -5 3 -10 14 -10 12 0 21 5 21 10 0 6 -6 10 -14 10 -8
0 -18 -4 -21 -10z"/>
<path d="M565 8421 c-3 -5 -1 -12 5 -16 12 -7 30 2 30 16 0 12 -27 12 -35 0z"/>
<path d="M735 8421 c-3 -5 -1 -12 5 -16 12 -7 30 2 30 16 0 12 -27 12 -35 0z"/>
<path d="M865 8450 c-3 -5 3 -10 14 -10 12 0 21 5 21 10 0 6 -6 10 -14 10 -8
0 -18 -4 -21 -10z"/>
<path d="M947 8423 c-12 -11 -8 -23 8 -23 8 0 15 7 15 15 0 16 -12 20 -23 8z"/>
<path d="M1134 8445 c-8 -21 2 -45 20 -45 17 0 28 24 20 45 -4 8 -13 15 -20
15 -8 0 -17 -7 -20 -15z"/>
<path d="M1435 8450 c-3 -5 3 -10 15 -10 12 0 18 5 15 10 -3 6 -10 10 -15 10
-5 0 -12 -4 -15 -10z"/>
<path d="M1667 8423 c-12 -11 -8 -23 8 -23 8 0 15 7 15 15 0 16 -12 20 -23 8z"/>
<path d="M1795 8450 c-3 -5 3 -10 15 -10 12 0 18 5 15 10 -3 6 -10 10 -15 10
-5 0 -12 -4 -15 -10z"/>
<path d="M1998 8442 c-7 -27 6 -46 27 -39 10 4 15 15 13 29 -4 29 -34 36 -40
10z"/>
<path d="M2264 8445 c-8 -21 3 -45 20 -45 20 0 29 16 21 40 -7 23 -33 27 -41
5z"/>
<path d="M2475 8450 c-3 -5 3 -10 14 -10 12 0 21 5 21 10 0 6 -6 10 -14 10 -8
0 -18 -4 -21 -10z"/>
<path d="M2705 8419 c-4 -6 -5 -13 -2 -16 7 -7 27 6 27 18 0 12 -17 12 -25 -2z"/>
<path d="M2784 8446 c-8 -22 3 -49 19 -43 6 2 12 14 12 27 0 27 -22 39 -31 16z"/>
<path d="M3074 8446 c-9 -24 4 -48 23 -44 12 2 18 12 18 28 0 29 -32 41 -41
16z"/>
<path d="M3495 8450 c-3 -5 3 -10 15 -10 12 0 18 5 15 10 -3 6 -10 10 -15 10
-5 0 -12 -4 -15 -10z"/>
<path d="M5875 8450 c-3 -5 3 -10 15 -10 12 0 18 5 15 10 -3 6 -10 10 -15 10
-5 0 -12 -4 -15 -10z"/>
<path d="M6240 8450 c0 -5 7 -10 15 -10 8 0 15 5 15 10 0 6 -7 10 -15 10 -8 0
-15 -4 -15 -10z"/>
<path d="M180 8075 c0 -16 6 -25 15 -25 9 0 15 9 15 25 0 16 -6 25 -15 25 -9
0 -15 -9 -15 -25z"/>
<path d="M257 8033 c-12 -11 -8 -23 8 -23 8 0 15 7 15 15 0 16 -12 20 -23 8z"/>
<path d="M385 8029 c-4 -6 -5 -13 -2 -16 7 -7 27 6 27 18 0 12 -17 12 -25 -2z"/>
<path d="M665 8031 c-3 -5 -1 -12 5 -16 12 -7 30 2 30 16 0 12 -27 12 -35 0z"/>
<path d="M850 8060 c0 -5 7 -10 15 -10 8 0 15 5 15 10 0 6 -7 10 -15 10 -8 0
-15 -4 -15 -10z"/>
<path d="M1017 8033 c-12 -11 -8 -23 8 -23 8 0 15 7 15 15 0 16 -12 20 -23 8z"/>
<path d="M6894 7675 c-4 -14 -3 -29 0 -33 9 -8 26 18 26 41 0 26 -19 20 -26
-8z"/>
<path d="M7280 7690 c0 -5 4 -10 9 -10 6 0 13 5 16 10 3 6 -1 10 -9 10 -9 0
-16 -4 -16 -10z"/>
<path d="M436 7305 c-7 -20 3 -45 19 -45 16 0 29 35 20 50 -9 15 -32 12 -39
-5z"/>
<path d="M275 7310 c-3 -5 3 -10 15 -10 12 0 18 5 15 10 -3 6 -10 10 -15 10
-5 0 -12 -4 -15 -10z"/>
<path d="M527 7305 c-9 -22 3 -46 22 -43 10 2 16 13 16 28 0 28 -29 40 -38 15z"/>
<path d="M7320 6811 c0 -17 5 -31 10 -31 6 0 10 11 10 24 0 14 -4 28 -10 31
-6 4 -10 -7 -10 -24z"/>
<path d="M7270 5940 c0 -16 5 -30 10 -30 6 0 10 14 10 30 0 17 -4 30 -10 30
-5 0 -10 -13 -10 -30z"/>
<path d="M824 5155 c-8 -21 3 -48 19 -43 19 7 22 58 2 58 -8 0 -18 -7 -21 -15z"/>
<path d="M1804 5156 c-8 -22 3 -49 19 -43 6 2 12 14 12 27 0 27 -22 39 -31 16z"/>
<path d="M2174 5155 c-8 -21 3 -48 19 -43 19 7 22 58 2 58 -8 0 -18 -7 -21
-15z"/>
<path d="M327 5133 c-12 -11 -8 -23 8 -23 8 0 15 7 15 15 0 16 -12 20 -23 8z"/>
<path d="M575 5131 c-3 -5 -1 -12 5 -16 12 -7 30 2 30 16 0 12 -27 12 -35 0z"/>
<path d="M745 5129 c-4 -6 -5 -13 -2 -16 7 -7 27 6 27 18 0 12 -17 12 -25 -2z"/>
<path d="M945 5160 c-3 -5 3 -10 15 -10 12 0 18 5 15 10 -3 6 -10 10 -15 10
-5 0 -12 -4 -15 -10z"/>
<path d="M1125 5131 c-3 -5 -1 -12 5 -16 12 -7 30 2 30 16 0 12 -27 12 -35 0z"/>
<path d="M1240 5160 c0 -5 7 -10 15 -10 8 0 15 5 15 10 0 6 -7 10 -15 10 -8 0
-15 -4 -15 -10z"/>
<path d="M1315 5131 c-3 -5 -1 -12 5 -16 12 -7 30 2 30 16 0 12 -27 12 -35 0z"/>
<path d="M1444 5156 c-9 -24 4 -48 23 -44 24 4 24 52 0 56 -9 2 -20 -4 -23
-12z"/>
<path d="M1625 5129 c-4 -6 -5 -13 -2 -16 7 -7 27 6 27 18 0 12 -17 12 -25 -2z"/>
<path d="M1890 5160 c0 -5 9 -10 21 -10 11 0 17 5 14 10 -3 6 -13 10 -21 10
-8 0 -14 -4 -14 -10z"/>
<path d="M2265 5129 c-4 -6 -5 -13 -2 -16 7 -7 27 6 27 18 0 12 -17 12 -25 -2z"/>
<path d="M2445 5150 c-7 -23 1 -40 20 -40 16 0 29 35 20 50 -10 17 -33 11 -40
-10z"/>
<path d="M2528 5152 c-7 -27 6 -46 27 -39 10 4 15 15 13 29 -4 29 -34 36 -40
10z"/>
<path d="M7517 3913 c-11 -10 -8 -81 4 -88 15 -10 18 -4 20 35 3 58 -4 74 -24
53z"/>
<path d="M7712 3858 c-16 -16 -15 -38 2 -38 13 0 26 20 26 41 0 13 -14 11 -28
-3z"/>
<path d="M2008 3102 c-7 -27 6 -46 27 -39 10 4 15 15 13 29 -4 29 -34 36 -40
10z"/>
<path d="M2424 3106 c-8 -22 3 -49 19 -43 6 2 12 14 12 27 0 27 -22 39 -31 16z"/>
<path d="M325 3079 c-4 -6 -5 -13 -2 -16 7 -7 27 6 27 18 0 12 -17 12 -25 -2z"/>
<path d="M520 3110 c0 -5 9 -10 21 -10 11 0 17 5 14 10 -3 6 -13 10 -21 10 -8
0 -14 -4 -14 -10z"/>
<path d="M674 3106 c-9 -24 4 -48 23 -44 12 2 18 12 18 28 0 29 -32 41 -41 16z"/>
<path d="M967 3105 c-9 -21 1 -42 22 -48 13 -3 17 3 16 27 0 33 -28 49 -38 21z"/>
<path d="M1175 3110 c-3 -5 3 -10 14 -10 12 0 21 5 21 10 0 6 -6 10 -14 10 -8
0 -18 -4 -21 -10z"/>
<path d="M1395 3110 c-3 -5 3 -10 15 -10 12 0 18 5 15 10 -3 6 -10 10 -15 10
-5 0 -12 -4 -15 -10z"/>
<path d="M1575 3110 c-3 -5 3 -10 15 -10 12 0 18 5 15 10 -3 6 -10 10 -15 10
-5 0 -12 -4 -15 -10z"/>
<path d="M1937 3083 c-12 -11 -8 -23 8 -23 8 0 15 7 15 15 0 16 -12 20 -23 8z"/>
<path d="M2097 3105 c-9 -22 3 -46 22 -43 10 2 16 13 16 28 0 28 -29 40 -38
15z"/>
<path d="M2235 3110 c-3 -5 3 -10 14 -10 12 0 21 5 21 10 0 6 -6 10 -14 10 -8
0 -18 -4 -21 -10z"/>
<path d="M2510 3110 c0 -5 7 -10 15 -10 8 0 15 5 15 10 0 6 -7 10 -15 10 -8 0
-15 -4 -15 -10z"/>
<path d="M2634 3095 c-7 -29 -1 -41 15 -30 14 8 14 55 1 55 -5 0 -12 -11 -16
-25z"/>
<path d="M6181 2708 c-5 -13 -6 -27 -3 -32 6 -11 32 22 32 41 0 21 -20 15 -29
-9z"/>
<path d="M7957 1763 c-13 -12 -7 -43 8 -43 16 0 38 34 28 44 -8 8 -28 8 -36
-1z"/>
<path d="M7189 1704 c-10 -28 -5 -44 10 -28 5 5 12 19 16 32 9 32 -13 28 -26
-4z"/>
<path d="M7364 1705 c-7 -29 -1 -41 15 -30 14 8 14 55 1 55 -5 0 -12 -11 -16
-25z"/>
<path d="M7639 1704 c-10 -28 -5 -44 10 -28 5 5 12 19 16 32 9 32 -13 28 -26
-4z"/>
<path d="M664 975 c-8 -21 3 -48 19 -43 19 7 22 58 2 58 -8 0 -18 -7 -21 -15z"/>
<path d="M288 972 c-7 -27 6 -46 27 -39 10 4 15 15 13 29 -4 29 -34 36 -40 10z"/>
<path d="M500 980 c0 -5 9 -10 21 -10 11 0 17 5 14 10 -3 6 -13 10 -21 10 -8
0 -14 -4 -14 -10z"/>
<path d="M754 975 c-8 -21 2 -45 20 -45 7 0 16 7 20 15 8 21 -3 45 -20 45 -8
0 -17 -7 -20 -15z"/>
<path d="M915 951 c-3 -5 -1 -12 5 -16 12 -7 30 2 30 16 0 12 -27 12 -35 0z"/>
<path d="M1197 975 c-9 -21 1 -42 22 -48 13 -3 17 3 16 27 0 33 -28 49 -38 21z"/>
<path d="M1405 980 c-3 -5 3 -10 14 -10 12 0 21 5 21 10 0 6 -6 10 -14 10 -8
0 -18 -4 -21 -10z"/>
<path d="M1625 980 c-3 -5 3 -10 15 -10 12 0 18 5 15 10 -3 6 -10 10 -15 10
-5 0 -12 -4 -15 -10z"/>
<path d="M1874 976 c-9 -24 4 -48 23 -44 12 2 18 12 18 28 0 29 -32 41 -41 16z"/>
<path d="M2147 975 c-9 -21 1 -42 22 -48 13 -3 17 3 16 27 0 33 -28 49 -38 21z"/>
<path d="M2320 944 c0 -17 22 -14 28 4 2 7 -3 12 -12 12 -9 0 -16 -7 -16 -16z"/>
<path d="M734 526 c-8 -22 3 -49 19 -43 6 2 12 14 12 27 0 27 -22 39 -31 16z"/>
<path d="M1154 557 c-10 -27 0 -72 16 -72 11 0 15 11 15 39 0 40 -20 61 -31
33z"/>
<path d="M1234 557 c-10 -27 0 -72 16 -72 11 0 15 11 15 39 0 40 -20 61 -31
33z"/>
<path d="M2238 522 c-7 -27 6 -46 27 -39 10 4 15 15 13 29 -4 29 -34 36 -40
10z"/>
<path d="M2524 546 c-8 -32 3 -66 22 -66 10 0 14 13 14 45 0 33 -4 45 -15 45
-8 0 -17 -11 -21 -24z"/>
<path d="M2607 548 c-8 -30 2 -68 18 -68 18 0 28 35 21 66 -8 30 -32 31 -39 2z"/>
<path d="M2687 548 c-8 -30 2 -68 18 -68 18 0 28 35 21 66 -8 30 -32 31 -39 2z"/>
<path d="M3934 526 c-8 -22 3 -49 19 -43 6 2 12 14 12 27 0 27 -22 39 -31 16z"/>
<path d="M458 522 c-7 -27 6 -46 27 -39 10 4 15 15 13 29 -4 29 -34 36 -40 10z"/>
<path d="M820 530 c0 -5 7 -10 15 -10 8 0 15 5 15 10 0 6 -7 10 -15 10 -8 0
-15 -4 -15 -10z"/>
<path d="M955 530 c-3 -5 3 -10 15 -10 12 0 18 5 15 10 -3 6 -10 10 -15 10 -5
0 -12 -4 -15 -10z"/>
<path d="M1405 530 c-3 -5 3 -10 14 -10 12 0 21 5 21 10 0 6 -6 10 -14 10 -8
0 -18 -4 -21 -10z"/>
<path d="M1487 503 c-12 -11 -8 -23 8 -23 8 0 15 7 15 15 0 16 -12 20 -23 8z"/>
<path d="M1705 499 c-4 -6 -5 -13 -2 -16 7 -7 27 6 27 18 0 12 -17 12 -25 -2z"/>
<path d="M1884 526 c-9 -24 4 -48 23 -44 24 4 24 52 0 56 -9 2 -20 -4 -23 -12z"/>
<path d="M2055 530 c-3 -5 3 -10 14 -10 12 0 21 5 21 10 0 6 -6 10 -14 10 -8
0 -18 -4 -21 -10z"/>
<path d="M2325 530 c-3 -5 3 -10 14 -10 12 0 21 5 21 10 0 6 -6 10 -14 10 -8
0 -18 -4 -21 -10z"/>
<path d="M3025 530 c-3 -5 3 -10 14 -10 12 0 21 5 21 10 0 6 -6 10 -14 10 -8
0 -18 -4 -21 -10z"/>
<path d="M3275 499 c-4 -6 -5 -13 -2 -16 7 -7 27 6 27 18 0 12 -17 12 -25 -2z"/>
<path d="M3455 520 c-7 -23 1 -40 20 -40 8 0 17 5 20 10 9 15 -4 50 -20 50 -8
0 -16 -9 -20 -20z"/>
<path d="M3535 501 c-3 -5 -1 -12 5 -16 12 -7 30 2 30 16 0 12 -27 12 -35 0z"/>
<path d="M3670 494 c0 -17 22 -14 28 4 2 7 -3 12 -12 12 -9 0 -16 -7 -16 -16z"/>
<path d="M3857 503 c-12 -11 -8 -23 8 -23 8 0 15 7 15 15 0 16 -12 20 -23 8z"/>
<path d="M4015 501 c-3 -5 -1 -12 5 -16 12 -7 30 2 30 16 0 12 -27 12 -35 0z"/>
<path d="M4135 530 c-3 -5 3 -10 14 -10 12 0 21 5 21 10 0 6 -6 10 -14 10 -8
0 -18 -4 -21 -10z"/>
<path d="M4290 510 c0 -25 4 -31 18 -28 11 2 17 12 17 28 0 16 -6 26 -17 28
-14 3 -18 -3 -18 -28z"/>
<path d="M4375 530 c-3 -5 3 -10 15 -10 12 0 18 5 15 10 -3 6 -10 10 -15 10
-5 0 -12 -4 -15 -10z"/>
<path d="M4670 530 c0 -5 7 -10 15 -10 8 0 15 5 15 10 0 6 -7 10 -15 10 -8 0
-15 -4 -15 -10z"/>
<path d="M4884 525 c-8 -21 2 -45 20 -45 7 0 16 7 20 15 8 21 -3 45 -20 45 -8
0 -17 -7 -20 -15z"/>
<path d="M370 325 c0 -20 4 -26 18 -23 9 2 17 12 17 23 0 11 -8 21 -17 23 -14
3 -18 -3 -18 -23z"/>
<path d="M1710 330 c0 -13 7 -20 20 -20 13 0 20 7 20 20 0 13 -7 20 -20 20
-13 0 -20 -7 -20 -20z"/>
<path d="M1938 302 c-7 -27 6 -46 27 -39 10 4 15 15 13 29 -4 29 -34 36 -40
10z"/>
<path d="M2464 337 c-10 -27 0 -72 16 -72 11 0 15 11 15 39 0 40 -20 61 -31
33z"/>
<path d="M2586 305 c-7 -20 3 -45 19 -45 16 0 29 35 20 50 -9 15 -32 12 -39
-5z"/>
<path d="M2680 290 c0 -25 4 -31 18 -28 11 2 17 12 17 28 0 16 -6 26 -17 28
-14 3 -18 -3 -18 -28z"/>
<path d="M447 283 c-12 -11 -8 -23 8 -23 8 0 15 7 15 15 0 16 -12 20 -23 8z"/>
<path d="M577 283 c-12 -11 -8 -23 8 -23 8 0 15 7 15 15 0 16 -12 20 -23 8z"/>
<path d="M780 310 c0 -5 9 -10 21 -10 11 0 17 5 14 10 -3 6 -13 10 -21 10 -8
0 -14 -4 -14 -10z"/>
<path d="M1065 310 c-3 -5 3 -10 14 -10 12 0 21 5 21 10 0 6 -6 10 -14 10 -8
0 -18 -4 -21 -10z"/>
<path d="M1194 306 c-8 -22 3 -49 19 -43 6 2 12 14 12 27 0 27 -22 39 -31 16z"/>
<path d="M1277 283 c-12 -11 -8 -23 8 -23 8 0 15 7 15 15 0 16 -12 20 -23 8z"/>
<path d="M1407 283 c-12 -11 -8 -23 8 -23 8 0 15 7 15 15 0 16 -12 20 -23 8z"/>
<path d="M2030 310 c0 -5 7 -10 15 -10 8 0 15 5 15 10 0 6 -7 10 -15 10 -8 0
-15 -4 -15 -10z"/>
</g>
</svg>
