<?xml version="1.0" standalone="no"?>
<!DOCTYPE svg PUBLIC "-//W3C//DTD SVG 20010904//EN"
 "http://www.w3.org/TR/2001/REC-SVG-20010904/DTD/svg10.dtd">
<svg version="1.0" xmlns="http://www.w3.org/2000/svg"
 width="1164.000000pt" height="336.000000pt" viewBox="0 0 1164.000000 336.000000"
 preserveAspectRatio="xMidYMid meet">

<g transform="translate(0.000000,336.000000) scale(0.100000,-0.100000)"
fill="#000000" stroke="none">
<path d="M0 1680 l0 -1680 5820 0 5820 0 0 1680 0 1680 -5820 0 -5820 0 0
-1680z m9453 1456 c4 -9 -2 -13 -17 -12 -14 0 -22 6 -19 14 7 16 30 15 36 -2z
m-7305 -3 c-16 -4 -18 -17 -18 -93 0 -74 3 -91 18 -99 15 -9 15 -10 -5 -11
-22 0 -23 3 -23 105 0 103 1 105 23 104 16 -1 18 -2 5 -6z m210 -95 c-3 -102
-3 -103 -28 -105 -14 -1 -18 0 -7 3 15 5 17 19 17 99 0 81 -2 94 -17 98 -11 3
-7 5 10 6 l28 1 -3 -102z m1712 66 c0 -30 3 -34 14 -25 18 15 44 4 52 -21 10
-33 -4 -67 -31 -74 -45 -11 -53 -1 -57 76 -1 40 -1 74 1 76 13 12 21 0 21 -32z
m141 -31 c13 -41 0 -102 -28 -124 -15 -13 -15 -12 -4 9 19 35 16 128 -5 160
l-17 27 21 -19 c12 -10 26 -34 33 -53z m1707 60 c-16 -4 -18 -17 -18 -93 0
-74 3 -91 18 -99 15 -9 15 -10 -5 -11 -22 0 -23 3 -23 105 0 103 1 105 23 104
16 -1 18 -2 5 -6z m212 -77 c0 -47 -4 -88 -10 -91 -6 -4 -10 25 -10 79 0 72
-3 85 -17 89 -11 3 -7 5 10 6 l27 1 0 -84z m3398 77 c-16 -4 -18 -17 -18 -98
0 -65 4 -95 13 -98 6 -3 2 -6 -10 -6 -22 -1 -23 2 -23 104 l0 105 28 -1 c16
-1 20 -3 10 -6z m202 -98 c0 -102 -1 -105 -22 -104 -13 0 -17 3 -10 6 8 3 12
33 12 98 0 81 -2 94 -17 98 -11 3 -7 5 10 6 l27 1 0 -105z m-9440 64 c-7 -13
-10 -46 -8 -82 4 -51 3 -57 -9 -41 -18 25 -16 90 4 125 20 33 31 32 13 -2z
m3711 3 c-16 -31 -13 -114 5 -142 14 -22 12 -22 -10 3 -31 34 -35 94 -9 138
19 32 31 32 14 1z m3670 14 c-20 -24 -24 -99 -7 -139 18 -44 3 -40 -20 5 -19
38 -14 101 12 129 19 21 33 26 15 5z m190 -43 c13 -41 0 -102 -28 -124 -15
-13 -15 -12 -4 9 7 13 12 47 12 77 0 30 -5 64 -12 77 -11 21 -11 22 4 10 9 -8
21 -30 28 -49z m-7371 -37 c0 -30 -7 -51 -21 -67 -19 -23 -20 -23 -10 -2 6 12
11 45 11 73 0 32 4 49 10 45 6 -3 10 -26 10 -49z m7289 40 c7 -9 8 -17 3 -20
-6 -3 -12 1 -16 9 -8 21 -23 19 -36 -5 -16 -30 5 -63 36 -57 20 3 22 2 13 -9
-28 -34 -69 -8 -69 43 0 45 44 70 69 39z m-5726 -8 c4 -10 7 -10 18 0 7 6 17
12 22 12 5 0 -1 -8 -13 -18 -21 -17 -22 -22 -12 -51 9 -25 9 -32 -1 -28 -6 2
-16 19 -22 38 -5 19 -14 40 -18 47 -5 8 -3 12 7 12 8 0 16 -6 19 -12z m173
-10 c-1 -13 -8 -36 -15 -53 -17 -38 -27 -16 -12 26 6 17 8 35 5 40 -3 5 2 9
10 9 9 0 14 -8 12 -22z m60 0 c-4 -13 -9 -35 -12 -50 -4 -16 -11 -28 -16 -28
-9 0 -7 23 8 73 5 17 3 17 -18 6 -21 -11 -22 -11 -9 4 7 10 22 17 33 17 16 0
19 -5 14 -22z m3360 -13 c9 -27 8 -39 -2 -53 -12 -15 -13 -12 -14 24 0 22 -5
45 -12 52 -9 9 -9 12 3 12 8 0 19 -16 25 -35z m66 -35 c6 0 5 -7 -3 -17 -13
-14 -15 -13 -20 13 -3 16 -11 28 -17 26 -8 -1 -6 8 5 25 l18 27 3 -37 c2 -20
8 -37 14 -37z m38 51 c0 -11 -3 -22 -7 -24 -5 -3 -8 6 -8 19 0 13 3 24 8 24 4
0 7 -9 7 -19z m246 -3 c-1 -13 -8 -36 -15 -53 -17 -38 -27 -16 -12 26 6 17 8
35 5 40 -3 5 2 9 10 9 9 0 14 -8 12 -22z m60 0 c-4 -13 -9 -35 -12 -50 -4 -16
-11 -28 -16 -28 -10 0 -6 37 8 74 6 17 5 17 -17 6 -22 -12 -23 -12 -10 3 7 10
22 17 33 17 16 0 19 -5 14 -22z m3370 11 c4 -8 9 -8 17 0 6 6 18 11 27 10 8 0
5 -4 -9 -10 -21 -8 -23 -14 -18 -49 3 -22 2 -40 -3 -40 -10 0 -20 25 -20 50 0
10 -7 26 -16 34 -13 14 -14 16 0 16 8 0 18 -5 22 -11z m174 -6 c0 -15 1 -15
18 0 21 20 42 22 42 6 0 -25 -24 -89 -33 -89 -5 0 -6 8 -2 18 3 9 9 31 12 47
l5 30 -31 -33 c-17 -18 -31 -39 -31 -47 0 -8 -5 -15 -11 -15 -7 0 -9 9 -3 28
4 15 8 37 8 50 1 25 26 31 26 5z m-9189 -37 c4 -44 4 -44 -28 -44 -18 0 -33 4
-33 8 0 4 8 7 18 6 12 -1 17 7 19 24 0 14 1 31 2 38 1 6 5 12 10 12 5 0 11
-20 12 -44z m1619 -31 c-14 -17 -30 -20 -30 -4 0 5 4 8 9 4 5 -3 12 -1 16 5 3
5 9 10 12 10 3 0 0 -7 -7 -15z m3775 -25 c25 -56 14 -60 -13 -5 -12 25 -18 45
-13 45 4 0 16 -18 26 -40z m315 -30 c0 -5 -10 -10 -22 -9 -22 0 -22 1 -3 9 11
5 21 9 23 9 1 1 2 -3 2 -9z m1762 -253 c2 -45 0 -57 -12 -57 -12 0 -15 15 -15
72 0 40 5 76 10 80 11 8 13 -3 17 -95z m-7370 18 c2 -62 0 -75 -12 -75 -12 0
-15 15 -15 75 0 51 4 75 12 75 7 0 13 -26 15 -75z m3740 0 c2 -62 0 -75 -12
-75 -12 0 -15 15 -15 75 0 51 4 75 12 75 7 0 13 -26 15 -75z m-3408 29 c21 -8
21 -50 0 -58 -32 -12 -57 27 -32 52 14 14 12 14 32 6z m240 -17 c8 -12 6 -21
-7 -35 -14 -16 -17 -41 -17 -160 0 -89 4 -142 10 -142 6 0 19 6 30 12 15 10
22 10 32 0 6 -6 24 -12 38 -12 14 0 32 6 38 12 10 10 17 10 32 0 11 -6 24 -12
30 -12 6 0 10 53 10 144 0 115 -3 146 -15 156 -19 16 -19 34 -1 49 29 24 68
-16 41 -43 -12 -11 -15 -46 -15 -161 0 -136 1 -147 18 -140 20 9 36 9 75 -1
17 -4 38 -1 53 6 19 11 27 11 36 2 16 -16 53 -15 78 0 15 10 22 10 32 0 16
-16 53 -15 78 0 16 10 24 10 40 0 11 -6 22 -12 25 -12 3 0 5 66 5 146 0 114
-3 149 -15 160 -27 27 12 67 41 43 18 -15 18 -33 -1 -49 -12 -10 -15 -41 -15
-156 0 -91 4 -144 10 -144 6 0 19 6 30 12 15 10 22 10 32 0 14 -14 64 -16 73
-2 8 14 45 13 45 -1 0 -7 13 -9 38 -5 49 9 62 9 95 0 17 -4 38 -1 53 6 19 11
27 11 36 2 16 -16 53 -15 78 0 15 10 22 10 32 0 15 -15 53 -15 78 0 15 10 22
10 32 0 33 -33 38 -15 38 128 0 110 -3 146 -15 164 -14 22 -14 25 1 40 19 19
33 17 48 -7 8 -12 6 -21 -7 -35 -14 -16 -17 -41 -17 -160 0 -78 2 -142 5 -142
3 0 14 6 25 12 16 10 24 10 40 0 25 -15 55 -15 80 0 15 10 22 10 32 0 16 -16
53 -15 78 0 16 10 24 10 40 0 25 -15 55 -15 80 0 15 10 22 10 32 0 6 -6 16
-12 20 -12 4 0 8 68 8 150 0 93 -4 150 -10 150 -17 0 -11 47 6 54 19 7 44 -10
44 -29 0 -7 -7 -18 -15 -25 -12 -10 -15 -41 -15 -156 0 -91 4 -144 10 -144 6
0 19 6 30 12 15 10 22 10 32 0 15 -15 53 -15 78 0 15 10 22 10 32 0 33 -33 38
-15 38 128 0 113 -3 146 -16 165 -13 20 -14 28 -4 40 16 19 25 19 45 -1 14
-15 14 -18 0 -40 -12 -18 -15 -54 -15 -164 0 -77 2 -140 5 -140 2 0 16 5 30
12 19 9 28 9 37 0 16 -16 53 -15 78 0 15 10 22 10 32 0 15 -15 53 -15 78 0 15
10 22 10 32 0 15 -15 63 -15 88 0 15 10 22 10 32 0 6 -6 16 -12 20 -12 4 0 8
66 8 146 0 116 -3 148 -15 160 -18 19 -2 57 22 52 29 -6 39 -35 20 -56 -14
-16 -17 -41 -17 -160 0 -145 5 -163 38 -130 10 10 17 10 32 0 11 -6 31 -12 45
-12 14 0 25 -4 25 -10 0 -5 -13 -10 -30 -10 -16 0 -30 -4 -30 -10 0 -5 -11
-10 -24 -10 -14 0 -28 5 -31 10 -8 14 -41 13 -65 -2 -16 -10 -24 -10 -40 0
-11 6 -22 12 -25 12 -3 0 -5 -63 -5 -140 0 -110 3 -146 15 -164 14 -22 14 -25
0 -40 -12 -12 -21 -13 -36 -6 -23 13 -25 33 -4 50 12 10 15 41 15 156 0 131
-6 164 -25 134 -3 -5 -17 -10 -31 -10 -13 0 -24 5 -24 10 0 6 -13 10 -30 10
-16 0 -30 -4 -30 -10 0 -5 -11 -10 -24 -10 -14 0 -28 5 -31 10 -19 30 -25 -3
-25 -134 0 -115 3 -146 15 -156 8 -7 15 -18 15 -26 0 -16 -30 -33 -47 -27 -15
6 -17 49 -3 58 10 6 15 295 5 295 -3 0 -14 -6 -25 -12 -16 -10 -24 -10 -40 0
-24 15 -57 16 -65 2 -8 -13 -55 -13 -55 0 0 15 -50 12 -66 -5 -15 -14 -44 -11
-44 6 0 13 -47 11 -70 -3 -16 -10 -24 -10 -40 0 -11 6 -22 12 -25 12 -3 0 -5
-64 -5 -142 0 -113 3 -145 15 -158 20 -22 9 -50 -20 -50 -29 0 -40 28 -20 50
12 13 15 45 15 158 0 78 -2 142 -5 142 -3 0 -14 -6 -25 -12 -16 -10 -24 -10
-40 0 -24 14 -70 16 -70 2 0 -5 -11 -10 -25 -10 -14 0 -25 5 -25 10 0 6 -7 10
-15 10 -23 0 -22 -276 1 -301 20 -23 12 -49 -16 -49 -26 0 -37 27 -22 51 12
18 18 299 7 299 -3 0 -14 -6 -25 -12 -16 -10 -24 -10 -40 0 -26 16 -46 15 -74
-3 -21 -14 -24 -14 -36 0 -14 17 -56 20 -65 5 -3 -5 -17 -10 -31 -10 -13 0
-24 5 -24 10 0 6 -13 10 -30 10 -16 0 -30 -4 -30 -10 0 -5 -11 -10 -24 -10
-14 0 -28 5 -31 10 -19 30 -25 -3 -25 -132 0 -116 3 -145 16 -159 21 -24 11
-49 -20 -49 -29 0 -39 22 -21 47 11 13 14 54 15 161 0 78 -2 142 -5 142 -3 0
-14 -6 -25 -12 -16 -10 -24 -10 -40 0 -24 14 -70 16 -70 2 0 -5 -9 -10 -19
-10 -11 0 -23 5 -26 10 -3 6 -19 10 -36 10 -16 0 -29 -4 -29 -10 0 -5 -11 -10
-24 -10 -14 0 -28 5 -31 10 -8 13 -41 13 -64 -2 -11 -7 -26 -8 -37 -3 -29 13
-63 15 -69 4 -8 -12 -55 -12 -55 1 0 6 -13 10 -30 10 -16 0 -30 -4 -30 -10 0
-5 -11 -10 -24 -10 -14 0 -28 5 -31 10 -19 30 -25 -3 -25 -134 0 -115 3 -146
15 -156 20 -17 19 -37 -3 -49 -31 -16 -61 36 -32 54 10 6 15 295 5 295 -3 0
-14 -6 -25 -12 -16 -10 -24 -10 -40 0 -24 15 -57 16 -65 2 -3 -5 -17 -10 -31
-10 -13 0 -24 5 -24 10 0 6 -13 10 -30 10 -16 0 -30 -4 -30 -10 0 -5 -11 -10
-24 -10 -14 0 -28 5 -31 10 -8 14 -41 13 -65 -2 -16 -10 -24 -10 -40 0 -11 6
-22 12 -25 12 -3 0 -5 -64 -5 -142 1 -110 4 -148 15 -162 13 -17 13 -22 -1
-37 -13 -14 -21 -16 -35 -8 -23 12 -24 32 -4 49 12 10 15 41 15 156 0 79 -2
144 -5 144 -3 0 -16 -7 -29 -15 -21 -14 -24 -14 -36 0 -14 17 -70 21 -70 5 0
-5 -11 -10 -25 -10 -14 0 -25 5 -25 10 0 6 -28 10 -65 10 l-66 0 3 -157 3
-158 30 -4 30 -4 -30 -6 c-29 -6 -30 -8 -33 -69 l-3 -62 216 0 215 0 1 33 1
32 7 -30 6 -30 273 -3 272 -2 0 30 c0 16 5 30 10 30 6 0 10 -13 10 -30 l0 -30
275 0 275 0 0 30 c0 17 5 30 10 30 6 0 10 -13 10 -30 l0 -30 275 0 275 0 2 33
1 32 4 -32 4 -33 275 0 274 0 0 30 c0 17 5 30 10 30 6 0 10 -13 10 -30 l0 -30
206 0 c179 0 205 2 200 15 -7 19 -4 19 67 -3 l58 -18 -43 -11 c-24 -6 -53 -14
-66 -18 -18 -6 -21 -4 -16 9 6 15 -120 16 -1560 16 l-1566 0 0 410 0 410 38
-1 c36 -1 36 -2 7 -8 l-30 -6 -3 -158 -3 -157 61 0 c33 0 69 6 80 12 15 10 22
10 32 0 15 -15 60 -16 76 0 9 9 17 9 36 -2 15 -7 36 -10 53 -6 39 10 55 10 76
1 16 -7 17 4 17 144 0 94 -4 151 -10 151 -15 0 -12 47 3 53 18 8 29 3 41 -16z
m440 17 c20 -8 21 -38 1 -54 -12 -10 -18 -10 -30 0 -18 15 -20 46 -2 53 6 3
13 6 14 6 1 1 8 -2 17 -5z m450 0 c20 -8 21 -41 2 -59 -12 -12 -16 -11 -30 4
-19 21 -20 33 -4 49 14 14 12 14 32 6z m240 -17 c8 -12 7 -21 -5 -32 -21 -21
-49 -9 -49 20 0 36 34 44 54 12z m440 17 c21 -8 21 -50 0 -58 -32 -12 -57 27
-32 52 14 14 12 14 32 6z m680 0 c21 -8 21 -50 0 -58 -32 -12 -57 27 -32 52
14 14 12 14 32 6z m6254 -27 c2 -15 -1 -27 -7 -27 -6 0 -11 -7 -11 -16 0 -12
-5 -10 -20 9 -23 29 -25 38 -8 55 20 20 43 9 46 -21z m-3688 15 c0 -12 -86
-55 -97 -49 -6 4 -16 0 -23 -8 -12 -14 -40 -10 -52 9 -13 19 12 48 38 43 14
-2 27 -1 29 3 6 10 105 11 105 2z m115 -12 c3 -5 17 -10 30 -10 12 0 26 -7 29
-16 3 -8 10 -13 15 -10 14 9 41 -5 41 -21 0 -8 6 -13 13 -10 17 6 47 -11 47
-27 0 -9 7 -12 18 -9 10 2 24 -2 30 -10 13 -15 6 -47 -9 -47 -5 0 -9 -112 -9
-255 l0 -255 50 0 50 0 0 206 c0 173 -2 208 -16 221 -8 9 -13 22 -10 29 4 9
-2 13 -15 11 -30 -3 -48 28 -28 48 19 19 49 10 49 -16 0 -12 7 -19 19 -19 10
0 24 -7 31 -15 10 -13 10 -19 -4 -33 -14 -16 -16 -48 -16 -225 l0 -207 25 0
25 0 0 182 c0 148 -3 184 -15 198 -20 22 -9 50 20 50 29 0 40 -28 20 -50 -12
-14 -15 -50 -15 -198 l0 -182 50 0 50 0 0 136 c0 119 -2 139 -17 150 -14 10
-16 17 -7 31 16 26 41 28 53 4 8 -15 7 -23 -4 -35 -12 -11 -15 -43 -15 -150
l0 -136 25 0 25 0 0 115 c0 63 -4 115 -9 115 -13 0 -21 27 -15 45 8 20 50 19
58 -1 4 -9 0 -24 -9 -34 -11 -13 -15 -42 -15 -128 l0 -112 50 0 50 0 0 69 c0
49 -4 72 -15 81 -8 7 -15 18 -15 25 0 7 -7 12 -16 11 -9 0 -21 7 -27 16 -17
26 15 57 37 38 9 -7 16 -19 16 -27 0 -9 6 -13 15 -9 8 3 21 -2 30 -11 14 -14
14 -18 0 -39 -9 -15 -15 -47 -15 -89 0 -63 1 -65 25 -65 23 0 25 3 25 51 0 32
-6 56 -15 66 -18 18 -16 32 9 47 13 9 20 7 32 -8 7 -11 24 -20 36 -21 12 -1
24 -7 26 -13 2 -7 15 -12 28 -12 13 0 24 -4 24 -10 0 -5 10 -10 23 -10 13 0
27 -3 31 -7 3 -4 30 -7 59 -7 43 -1 54 -5 62 -23 5 -12 22 -24 37 -27 22 -4
27 -10 25 -28 -1 -17 4 -24 21 -26 18 -3 22 1 22 22 0 29 30 43 57 26 15 -8
13 -9 -9 -4 -32 7 -48 -16 -29 -40 9 -11 1 -13 -46 -13 -31 0 -51 3 -45 5 7 2
12 14 12 28 0 20 -4 23 -35 22 -19 -1 -35 -5 -35 -10 0 -4 3 -8 8 -8 4 0 13
-10 21 -22 13 -22 13 -23 -6 -5 -18 16 -70 17 -774 17 -415 0 -749 4 -743 8 7
4 14 16 17 27 4 18 5 18 6 -2 1 -18 7 -23 26 -23 24 0 25 3 27 68 l2 67 3 -67
c3 -60 6 -68 23 -68 12 0 20 7 21 18 1 16 2 16 6 0 3 -11 14 -18 29 -18 24 0
24 2 26 98 l2 97 3 -97 4 -98 49 0 50 0 2 218 3 217 2 -217 3 -218 25 0 25 0
2 208 3 207 2 -207 3 -208 50 0 50 0 2 233 3 232 2 -232 3 -233 25 0 25 0 2
288 3 287 2 -287 3 -288 50 0 50 0 0 263 c0 270 -7 324 -39 312 -8 -3 -22 2
-32 11 -10 9 -23 13 -28 9 -6 -3 -11 2 -11 13 0 10 -11 31 -25 46 -13 14 -20
26 -15 26 5 0 12 -4 15 -10z m-1647 -7 l-28 -4 0 -330 0 -329 44 0 c26 0 46 5
50 13 2 6 4 1 3 -13 -2 -20 3 -25 23 -25 20 0 25 5 24 23 -2 26 -12 24 114 27
76 2 107 -1 117 -11 22 -22 30 -16 9 7 -29 32 -8 54 54 55 28 0 55 3 58 7 4 4
18 7 31 7 13 0 23 5 23 11 0 7 10 9 25 7 16 -3 25 -1 25 7 0 15 27 28 40 20 5
-3 14 4 20 16 8 14 18 19 31 16 12 -3 19 0 19 9 0 16 30 33 48 27 6 -3 12 2
12 10 0 8 7 20 16 27 12 11 18 10 32 -4 21 -21 4 -52 -27 -49 -12 2 -20 -1
-16 -6 3 -5 -2 -16 -10 -24 -8 -9 -16 -28 -16 -44 -2 -27 -2 -27 -6 -3 -7 35
-20 46 -28 21 -3 -12 -11 -21 -16 -21 -5 0 -10 -19 -11 -42 l-1 -43 -4 43 c-5
47 -12 52 -31 21 -7 -11 -19 -18 -27 -16 -17 7 -45 -24 -45 -51 0 -16 7 -22
33 -25 17 -2 -25 -5 -94 -5 -99 -2 -129 -5 -139 -17 -7 -8 -18 -15 -24 -15 -6
0 -6 4 2 9 19 12 11 45 -12 49 -15 3 -18 -1 -14 -26 l4 -29 -118 0 c-87 0
-121 3 -129 13 -6 8 -29 14 -50 14 l-39 0 0 -65 0 -64 153 -4 152 -3 -162 -2
-163 -2 0 410 0 410 38 -1 c30 -2 32 -3 10 -6z m3660 0 l-28 -4 0 -160 0 -159
60 0 c33 0 60 4 60 10 0 6 5 10 10 10 6 0 5 -8 -2 -20 -10 -16 -24 -20 -70
-20 l-58 0 0 -160 0 -160 28 -1 27 -2 -27 -4 c-27 -4 -28 -6 -28 -69 l0 -64
210 0 210 0 0 30 c0 17 5 30 10 30 6 0 10 -13 10 -30 l0 -30 275 0 275 0 2 33
1 32 4 -32 4 -33 275 0 274 0 0 30 c0 17 5 30 10 30 6 0 10 -13 10 -30 l0 -30
275 0 275 0 1 33 1 32 7 -30 6 -30 275 0 275 0 6 30 7 30 1 -32 1 -33 210 0
c199 0 210 1 201 18 -9 16 -5 16 54 -2 l63 -20 -56 -18 c-69 -21 -65 -21 -58
-3 5 13 -173 15 -1564 15 l-1570 0 0 410 0 410 38 -1 c30 -2 32 -3 10 -6z
m1329 -9 c3 -9 1 -25 -5 -35 -15 -24 -17 -279 -2 -279 6 0 19 6 30 12 15 10
22 10 32 0 14 -14 68 -16 68 -2 0 6 9 10 19 10 11 0 23 -4 26 -10 3 -5 13 -10
21 -10 11 0 14 25 16 133 l2 132 3 -132 c2 -73 6 -133 8 -133 3 0 14 6 25 12
16 10 24 10 40 0 25 -15 45 -15 70 0 16 10 24 10 40 0 11 -6 22 -12 25 -12 11
0 5 261 -7 279 -16 26 -3 53 24 49 28 -4 38 -45 14 -54 -13 -5 -16 -28 -16
-140 0 -74 2 -134 5 -134 3 0 14 6 25 12 16 10 24 10 40 0 11 -6 29 -12 40
-12 11 0 29 6 40 12 16 10 24 10 40 0 11 -6 22 -12 25 -12 3 0 5 42 5 94 0 76
-3 95 -16 100 -24 9 -14 50 14 54 27 4 40 -23 24 -49 -12 -18 -17 -199 -7
-199 3 0 14 6 25 12 16 10 24 10 40 0 25 -15 45 -15 70 0 16 10 24 10 40 0 11
-6 29 -12 40 -12 11 0 29 6 40 12 16 10 24 10 40 0 11 -6 27 -12 35 -12 8 0
24 6 35 12 16 10 24 10 41 0 12 -7 24 -10 27 -6 4 4 1 9 -5 11 -19 7 -16 50 3
57 18 7 44 -10 44 -27 0 -6 -7 -19 -17 -29 -15 -17 -15 -18 0 -18 10 0 17 5
17 10 0 6 9 10 19 10 11 0 23 -4 26 -10 3 -5 19 -10 35 -10 16 0 32 5 35 10 3
6 14 10 24 10 10 0 24 7 31 15 16 20 22 19 50 -5 13 -11 17 -20 10 -20 -8 0
-11 -9 -8 -24 4 -21 3 -23 -13 -13 -13 8 -24 8 -44 -3 -20 -11 -30 -11 -45 -3
-15 10 -17 9 -13 -6 2 -9 -2 -23 -10 -29 -17 -15 -47 -6 -47 14 0 8 -10 14
-24 14 -14 0 -28 5 -31 10 -8 14 -41 13 -65 -2 -16 -10 -24 -10 -40 0 -11 6
-22 12 -25 12 -9 0 -5 -40 7 -59 16 -26 3 -53 -24 -49 -27 4 -37 37 -14 50 9
5 16 20 16 33 0 29 -3 30 -30 13 -16 -10 -24 -10 -40 0 -11 6 -29 12 -40 12
-11 0 -29 -6 -40 -12 -16 -10 -24 -10 -40 0 -11 6 -22 12 -25 12 -3 0 -5 -31
-5 -69 0 -49 4 -72 15 -81 8 -7 15 -18 15 -25 0 -7 -7 -18 -15 -25 -12 -10
-18 -10 -30 0 -17 14 -20 50 -5 50 6 0 10 32 10 75 0 41 -2 75 -5 75 -3 0 -14
-6 -25 -12 -16 -10 -24 -10 -40 0 -25 15 -45 15 -70 0 -16 -10 -24 -10 -40 0
-25 15 -55 15 -80 0 -16 -10 -24 -10 -40 0 -11 6 -27 12 -35 12 -8 0 -24 -6
-35 -12 -16 -10 -24 -10 -40 0 -11 6 -22 12 -25 12 -10 0 -5 -289 5 -295 14
-9 12 -52 -2 -58 -18 -6 -48 11 -48 27 0 8 7 19 15 26 12 10 15 41 15 156 0
79 -2 144 -5 144 -3 0 -14 -6 -25 -12 -16 -10 -24 -10 -40 0 -25 15 -55 15
-80 0 -16 -10 -24 -10 -40 0 -11 6 -22 12 -25 12 -3 0 -5 -65 -5 -145 0 -122
2 -145 16 -153 23 -13 13 -46 -14 -50 -27 -4 -40 23 -24 49 15 24 17 299 2
299 -5 0 -10 -4 -10 -10 0 -5 -11 -10 -24 -10 -14 0 -28 5 -31 10 -8 14 -41
13 -65 -2 -16 -10 -24 -10 -40 0 -11 6 -22 12 -25 12 -3 0 -6 -51 -7 -112 l-2
-113 -3 113 c-2 64 -8 112 -13 112 -6 0 -19 -6 -30 -12 -16 -10 -24 -10 -40 0
-24 15 -57 16 -65 2 -3 -5 -15 -10 -26 -10 -10 0 -19 5 -19 10 0 6 -7 10 -15
10 -21 0 -21 -122 0 -154 14 -22 14 -25 0 -40 -12 -12 -21 -13 -36 -6 -23 13
-25 33 -4 50 11 9 15 32 15 81 0 55 -3 69 -15 69 -8 0 -15 -4 -15 -10 0 -5
-11 -10 -25 -10 -14 0 -25 5 -25 10 0 14 -46 12 -70 -2 -16 -10 -24 -10 -40 0
-24 15 -57 16 -65 2 -3 -5 -15 -10 -26 -10 -10 0 -19 5 -19 10 0 6 -13 10 -29
10 -17 0 -33 -4 -36 -10 -3 -5 -15 -10 -25 -10 -11 0 -24 -9 -30 -20 -6 -11
-17 -20 -25 -20 -8 0 -20 9 -27 20 -7 11 -23 20 -35 20 -12 0 -25 5 -28 10 -9
15 -36 12 -57 -7 -15 -14 -23 -15 -37 -6 -11 7 -22 9 -26 5 -4 -4 -24 -7 -45
-8 -32 0 -36 2 -23 11 10 7 14 20 11 32 -3 12 0 20 7 20 7 0 12 -12 11 -26 -1
-20 4 -26 19 -26 22 0 34 33 15 45 -7 4 -1 8 15 8 16 0 22 -4 15 -8 -19 -12
-7 -45 15 -45 13 0 21 8 23 23 2 12 -2 22 -9 22 -7 0 -2 9 11 20 29 25 37 25
51 1 7 -10 20 -16 29 -14 10 3 21 0 24 -6 9 -14 63 -14 71 -1 3 6 15 10 26 10
10 0 19 -4 19 -10 0 -5 7 -10 17 -10 14 0 14 2 -3 21 -21 24 -9 54 22 54 23 0
33 -44 13 -56 -24 -14 0 -23 26 -9 20 10 28 11 37 2 16 -16 53 -15 78 0 15 10
22 10 32 0 6 -6 18 -12 25 -12 19 0 17 84 -2 100 -21 17 -19 37 4 50 15 7 24
6 36 -6 14 -15 14 -18 0 -40 -14 -21 -22 -104 -10 -104 3 0 14 6 25 12 15 10
22 10 32 0 6 -6 26 -12 43 -12 17 0 37 6 43 12 10 10 17 10 34 -1 17 -11 22
-11 29 1 7 10 9 10 9 1 0 -7 7 -13 15 -13 8 0 15 5 15 10 0 6 9 10 19 10 11 0
23 -4 26 -10 9 -14 51 -13 75 2 16 10 24 10 40 0 11 -6 22 -12 25 -12 3 0 5
60 5 134 0 110 -3 135 -15 140 -18 7 -19 28 -3 44 17 17 38 15 45 -4z m-3693
-38 c3 -13 -1 -37 -9 -52 -14 -27 -15 -27 -15 -6 0 25 -17 30 -22 6 -2 -11
-18 -16 -60 -18 -49 -2 -56 -1 -46 11 6 8 20 12 30 10 11 -3 18 0 18 9 0 15
34 37 44 27 4 -4 13 3 22 15 20 28 30 28 38 -2z m-3697 -143 c-2 -27 -3 -5 -3
47 0 52 1 74 3 48 2 -27 2 -69 0 -95z m3910 35 c-2 -18 -4 -6 -4 27 0 33 2 48
4 33 2 -15 2 -42 0 -60z m3252 68 c12 -14 5 -46 -10 -46 -5 0 -10 -21 -11 -47
l-2 -48 -3 47 c-2 25 -10 52 -18 58 -11 9 -12 17 -4 31 11 22 32 25 48 5z
m-3422 -108 c-2 -18 -4 -6 -4 27 0 33 2 48 4 33 2 -15 2 -42 0 -60z m110 30
c-2 -13 -4 -5 -4 17 -1 22 1 32 4 23 2 -10 2 -28 0 -40z m-343 11 c-12 -13
-20 -16 -22 -9 -3 7 2 16 9 21 25 16 32 9 13 -12z m173 -56 c-2 -16 -4 -3 -4
27 0 30 2 43 4 28 2 -16 2 -40 0 -55z m4623 13 c0 -20 -25 -37 -44 -30 -19 7
-22 50 -3 57 17 6 47 -11 47 -27z m-4830 9 c0 -13 -24 -55 -32 -55 -12 0 -21
27 -14 45 5 13 46 22 46 10z m97 -87 c-2 -18 -4 -4 -4 32 0 36 2 50 4 33 2
-18 2 -48 0 -65z m60 45 c-3 -10 -5 -4 -5 12 0 17 2 24 5 18 2 -7 2 -21 0 -30z
m-197 -27 c0 -8 -7 -19 -15 -26 -8 -7 -16 -31 -17 -54 l-1 -41 -4 39 c-3 21
-11 49 -19 61 -13 20 -13 25 1 39 12 12 21 13 36 6 10 -6 19 -17 19 -24z
m3707 -23 c-3 -10 -5 -2 -5 17 0 19 2 27 5 18 2 -10 2 -26 0 -35z m-8623 2
c-12 -18 -15 -39 -11 -71 5 -52 10 -59 32 -50 14 5 16 18 13 70 -2 50 0 62 9
54 37 -30 19 -130 -24 -136 -48 -7 -73 98 -33 138 27 27 34 25 14 -5z m1483
-22 c-3 -10 -5 -2 -5 17 0 19 2 27 5 18 2 -10 2 -26 0 -35z m5933 25 c37 -40
17 -138 -29 -138 -26 0 -42 23 -48 67 -4 29 0 44 17 66 26 33 33 33 60 5z
m-2567 -20 c8 -11 5 -23 -11 -43 -16 -20 -22 -23 -22 -11 0 9 -4 16 -10 16
-15 0 -12 47 3 53 17 7 29 3 40 -15z m1125 10 c17 -17 15 -45 -4 -52 -18 -7
-44 10 -44 28 0 13 20 36 30 36 3 0 11 -5 18 -12z m-751 -85 c-2 -16 -4 -3 -4
27 0 30 2 43 4 28 2 -16 2 -40 0 -55z m2488 59 c-18 -13 -11 -47 10 -47 23 0
33 34 13 46 -9 6 -8 9 8 9 17 0 20 -5 16 -29 -7 -51 -66 -53 -74 -3 -3 23 0
28 16 30 12 0 16 -2 11 -6z m2595 -7 c-7 -8 -10 -22 -6 -30 3 -8 1 -15 -3 -15
-5 0 -18 -3 -28 -6 -17 -6 -17 -6 1 8 12 9 17 23 14 34 -4 15 0 20 14 21 16 2
17 -1 8 -12z m61 6 c-18 -12 -10 -45 13 -49 16 -3 18 1 14 27 -4 26 -1 31 16
31 16 0 18 -2 7 -9 -8 -5 -12 -18 -8 -30 6 -24 7 -23 -50 -25 -34 -2 -39 0
-26 9 9 7 14 20 11 31 -4 15 0 20 16 22 15 1 17 -1 7 -7z m109 -6 c-7 -8 -10
-22 -6 -30 3 -8 1 -15 -3 -15 -5 0 -18 -3 -28 -6 -17 -6 -17 -6 1 8 12 9 17
23 14 34 -4 15 0 20 14 21 16 2 17 -1 8 -12z m77 -5 c13 0 23 -4 23 -10 0 -5
-11 -10 -24 -10 -13 0 -29 -7 -36 -15 -7 -8 -17 -15 -23 -15 -6 0 -3 6 8 14
12 9 16 20 12 36 -4 17 -3 20 6 11 6 -6 21 -11 34 -11z m-7282 0 c3 -5 1 -10
-4 -10 -6 0 -11 5 -11 10 0 6 2 10 4 10 3 0 8 -4 11 -10z m55 0 c0 -5 -4 -10
-10 -10 -5 0 -10 5 -10 10 0 6 5 10 10 10 6 0 10 -4 10 -10z m50 0 c0 -5 -4
-10 -10 -10 -5 0 -10 5 -10 10 0 6 5 10 10 10 6 0 10 -4 10 -10z m1567 -57
c-2 -16 -4 -5 -4 22 0 28 2 40 4 28 2 -13 2 -35 0 -50z m-5207 47 c0 -5 -7
-10 -16 -10 -8 0 -12 5 -9 10 3 6 10 10 16 10 5 0 9 -4 9 -10z m60 0 c0 -5 -7
-10 -16 -10 -8 0 -12 5 -9 10 3 6 10 10 16 10 5 0 9 -4 9 -10z m50 0 c0 -5 -4
-10 -10 -10 -5 0 -10 5 -10 10 0 6 5 10 10 10 6 0 10 -4 10 -10z m4945 -20 c0
-18 -6 -26 -23 -28 -27 -4 -40 22 -22 44 19 22 45 13 45 -16z m372 -22 c-2
-13 -4 -5 -4 17 -1 22 1 32 4 23 2 -10 2 -28 0 -40z m-4007 -262 c6 -6 10 -20
10 -33 0 -18 -6 -23 -25 -23 -32 0 -43 25 -21 49 13 14 16 44 18 152 l2 134 3
-135 c2 -74 8 -139 13 -144z m3897 132 c-2 -29 -3 -8 -3 47 0 55 1 79 3 53 2
-26 2 -71 0 -100z m60 110 c-3 -7 -5 -2 -5 12 0 14 2 19 5 13 2 -7 2 -19 0
-25z m-374 8 c3 -8 -3 -22 -15 -32 -19 -18 -20 -18 -34 0 -10 14 -11 23 -3 33
15 17 45 17 52 -1z m3574 -50 c-4 -9 -18 -16 -32 -16 -19 0 -25 5 -25 23 0 13
5 28 12 35 16 16 54 -19 45 -42z m-3430 -43 c-3 -10 -5 -4 -5 12 0 17 2 24 5
18 2 -7 2 -21 0 -30z m-110 -85 c-2 -24 -4 -7 -4 37 0 44 2 63 4 43 2 -21 2
-57 0 -80z m390 -30 c-2 -18 -4 -4 -4 32 0 36 2 50 4 33 2 -18 2 -48 0 -65z
m-220 -10 c-2 -18 -4 -4 -4 32 0 36 2 50 4 33 2 -18 2 -48 0 -65z m-19 -61
c20 -2 6 -4 -33 -4 -38 0 -58 2 -42 4 25 4 27 8 29 51 l2 47 3 -47 c4 -46 5
-47 41 -51z m3836 78 c27 -28 -10 -69 -40 -44 -17 14 -18 31 -2 47 16 16 23
15 42 -3z m680 -8 c8 -12 7 -21 -5 -32 -21 -21 -49 -9 -49 20 0 36 34 44 54
12z m-5660 -6 c38 -42 25 -132 -21 -139 -48 -7 -73 98 -33 138 25 25 32 25 54
1z m-3736 -55 c0 -35 3 -69 6 -75 5 -7 -3 -11 -20 -11 -22 0 -25 2 -14 15 9
10 11 35 7 75 -4 45 -2 60 8 60 9 0 13 -18 13 -64z m7374 -11 c2 -62 0 -75
-12 -75 -12 0 -15 15 -15 75 0 51 4 75 12 75 7 0 13 -26 15 -75z m-5572 6 c0
-27 -20 -42 -42 -30 -22 12 -23 27 -1 51 18 20 43 8 43 -21z m-1146 23 c22 -8
20 -41 -2 -53 -13 -7 -23 -6 -30 1 -16 16 -15 45 1 51 6 3 13 6 14 6 1 1 8 -2
17 -5z m690 -18 c9 -13 7 -20 -8 -31 -23 -17 -46 -4 -46 25 0 32 36 36 54 6z
m1134 0 c5 -26 -26 -50 -45 -35 -16 14 -17 31 -1 47 17 17 42 11 46 -12z
m2210 -9 c9 -3 -20 -5 -65 -6 -74 -1 -82 1 -76 16 4 11 8 12 11 5 2 -7 23 -12
53 -12 40 0 49 3 50 18 1 15 2 15 6 0 2 -9 12 -19 21 -21z m2048 1 c-1 -17 5
-24 22 -26 18 -3 22 1 23 25 0 15 3 22 6 16 2 -7 17 -14 31 -14 21 -1 23 -2 7
-6 -11 -3 -27 -11 -35 -18 -9 -7 -41 -12 -80 -12 -36 0 -60 2 -53 4 7 2 10 12
7 21 -5 15 -4 15 6 0 17 -28 50 -23 50 7 0 14 4 25 8 25 5 0 8 -10 8 -22z
m-2236 2 c0 -5 -8 -10 -17 -10 -15 0 -16 2 -3 10 19 12 20 12 20 0z m-4607 -7
c-18 -2 -48 -2 -65 0 -18 2 -4 4 32 4 36 0 50 -2 33 -4z m7375 0 c-15 -2 -42
-2 -60 0 -18 2 -6 4 27 4 33 0 48 -2 33 -4z m-2478 -103 l0 -30 275 0 275 0 2
33 1 32 4 -32 4 -33 275 0 274 0 0 30 c0 17 5 30 10 30 6 0 10 -13 10 -30 l0
-30 275 0 275 0 1 33 1 32 7 -30 6 -30 209 -3 c183 -2 208 -1 202 13 -7 19 -3
19 63 -4 l55 -18 -50 -13 c-27 -8 -55 -16 -61 -18 -8 -2 -11 2 -7 12 6 15
-103 16 -1142 18 -632 1 -1112 4 -1066 5 l82 4 0 29 c0 17 5 30 10 30 6 0 10
-13 10 -30z m-1374 -12 c-1 -13 -8 -36 -15 -53 -17 -38 -27 -16 -12 26 6 17 8
35 5 40 -3 5 2 9 10 9 9 0 14 -8 12 -22z m60 0 c-4 -13 -9 -35 -12 -50 -4 -16
-11 -28 -16 -28 -10 0 -6 37 8 74 6 17 5 17 -17 6 -22 -12 -23 -12 -10 3 7 10
22 17 33 17 16 0 19 -5 14 -22z m3627 5 c-6 -17 -5 -17 14 0 33 29 47 22 39
-20 -4 -21 -8 -44 -8 -50 -1 -7 -7 -13 -14 -13 -9 0 -10 8 -3 32 5 18 9 39 9
47 0 21 -35 -14 -50 -50 -19 -45 -28 -34 -16 21 6 28 15 50 23 50 8 0 10 -7 6
-17z m3687 0 c0 -15 1 -15 18 0 21 20 42 22 42 6 0 -24 -24 -89 -32 -89 -5 0
-7 8 -4 18 3 9 8 31 11 47 l7 30 -31 -33 c-17 -18 -31 -39 -31 -47 0 -8 -5
-15 -11 -15 -7 0 -9 9 -3 28 4 15 8 37 8 50 1 25 26 31 26 5z m-6510 -26 c46
-3 41 -4 -24 -5 -71 -2 -78 0 -60 12 10 8 21 10 24 6 3 -5 30 -10 60 -13z
m228 -4 c-21 -2 -55 -2 -75 0 -21 2 -4 4 37 4 41 0 58 -2 38 -4z m-3996 -70
c25 -22 23 -33 -12 -81 l-30 -42 30 0 c16 0 30 -4 30 -10 0 -5 -20 -10 -45
-10 l-46 0 30 38 c38 49 46 76 25 92 -12 11 -20 11 -35 2 -23 -15 -25 -9 -3
12 20 20 33 20 56 -1z m118 -3 c38 -38 17 -140 -29 -140 -26 0 -42 23 -48 67
-4 29 0 44 17 66 26 32 34 33 60 7z m2124 4 c24 -23 20 -45 -16 -88 l-32 -39
36 5 c26 3 34 0 31 -9 -3 -8 -23 -13 -50 -13 l-45 0 36 42 c20 23 36 49 36 59
0 23 -24 41 -46 33 -18 -5 -18 -5 0 10 25 20 31 20 50 0z m120 -3 c38 -42 25
-132 -21 -139 -48 -7 -73 98 -33 138 25 25 32 25 54 1z m1317 9 c27 -15 24
-54 -7 -87 -22 -25 -24 -25 -10 -3 31 48 9 101 -29 70 -10 -8 -15 -9 -15 -2 0
6 8 16 18 21 21 13 20 13 43 1z m121 -7 c19 -17 24 -43 8 -43 -5 0 -10 9 -10
19 0 11 -5 23 -12 27 -18 11 -38 -26 -38 -74 0 -26 -4 -41 -10 -37 -18 11 -11
84 10 105 24 24 28 25 52 3z m1068 -14 c13 -23 13 -85 0 -110 -14 -26 -56 -25
-71 3 -6 11 -11 39 -11 62 1 65 56 95 82 45z m1058 15 c29 -20 28 -33 -8 -82
l-30 -42 30 0 c16 0 30 -4 30 -10 0 -5 -20 -10 -45 -10 l-46 0 30 38 c38 49
46 76 25 92 -12 11 -20 11 -35 2 -23 -15 -25 -9 -3 12 19 20 24 20 52 0z m122
-4 c38 -38 17 -140 -29 -140 -26 0 -42 23 -48 67 -4 29 0 44 17 66 26 32 34
33 60 7z m1324 4 c24 -23 20 -45 -16 -88 l-32 -39 36 5 c26 3 34 0 31 -9 -3
-8 -23 -13 -50 -13 l-45 0 36 42 c20 23 36 49 36 59 0 23 -24 41 -46 33 -18
-5 -18 -5 0 10 25 20 31 20 50 0z m126 -15 c13 -23 13 -85 0 -110 -14 -26 -56
-25 -71 3 -6 11 -11 39 -11 62 1 65 56 95 82 45z m1050 11 c38 -38 17 -140
-29 -140 -26 0 -42 23 -48 67 -4 29 0 44 17 66 26 32 34 33 60 7z m1061 10
c28 -16 23 -54 -13 -96 l-32 -37 37 5 c23 2 36 0 34 -6 -2 -6 -25 -12 -52 -14
l-48 -3 36 40 c39 43 49 87 22 97 -8 4 -22 1 -30 -6 -10 -8 -15 -9 -15 -2 0 6
8 16 18 21 21 13 20 13 43 1z m123 -9 c38 -42 25 -132 -21 -139 -48 -7 -73 98
-33 138 25 25 32 25 54 1z m-9846 -68 c-15 -2 -42 -2 -60 0 -18 2 -6 4 27 4
33 0 48 -2 33 -4z m3635 0 c-7 -2 -21 -2 -30 0 -10 3 -4 5 12 5 17 0 24 -2 18
-5z m3735 0 c-15 -2 -42 -2 -60 0 -18 2 -6 4 27 4 33 0 48 -2 33 -4z m-3553
-62 c-3 -6 -11 -8 -17 -5 -6 4 -5 9 3 15 16 10 23 4 14 -10z m4701 -233 c5 -7
2 -9 -8 -5 -9 3 -21 0 -27 -6 -9 -9 -11 -8 -6 6 8 19 30 23 41 5z m-3827 -60
c-18 -65 -11 -76 20 -29 17 25 28 48 25 53 -3 4 2 8 10 8 13 0 15 -9 10 -47
l-6 -48 26 30 c25 28 24 26 -4 -22 -18 -29 -35 -55 -39 -58 -5 -2 -6 19 -4 48
l5 52 -27 -40 c-45 -65 -47 -65 -43 12 2 60 6 73 20 73 14 0 15 -5 7 -32z
m141 28 c0 -2 -6 -9 -13 -15 -10 -8 -14 -7 -14 4 0 8 6 15 14 15 7 0 13 -2 13
-4z m160 -17 c-15 -27 -14 -127 1 -145 6 -8 10 -17 7 -20 -3 -2 -14 8 -24 23
-24 36 -24 101 -1 136 21 32 33 36 17 6z m245 -9 c22 -42 19 -103 -6 -131 -19
-23 -20 -23 -10 -2 16 33 13 115 -5 141 -8 12 -10 22 -5 22 6 0 17 -13 26 -30z
m-4125 -5 c0 -14 4 -25 9 -25 5 0 18 11 29 25 11 14 25 25 31 25 6 0 -6 -15
-26 -34 l-37 -34 16 -41 c15 -38 15 -41 -1 -41 -11 0 -17 9 -19 27 -1 14 -4
29 -7 31 -8 8 -45 -29 -45 -45 0 -7 -9 -13 -20 -13 -16 0 -13 7 20 36 31 28
39 42 34 58 -3 11 -8 29 -10 39 -4 11 0 17 10 17 10 0 16 -9 16 -25z m369 -60
c0 -22 -5 -50 -12 -63 -11 -20 -12 -14 -9 41 2 38 -1 74 -8 88 -11 24 -11 24
9 -1 13 -16 21 -39 20 -65z m7001 66 c0 -31 17 -33 38 -6 11 14 25 25 31 25 6
0 -5 -16 -24 -35 -31 -33 -33 -38 -23 -68 6 -17 16 -35 22 -39 6 -4 -2 -8 -17
-8 -16 0 -26 4 -23 9 4 5 2 19 -2 31 -8 22 -9 22 -34 -9 -15 -17 -34 -31 -42
-31 -9 0 1 16 26 39 41 38 42 40 31 75 -9 30 -9 36 3 36 8 0 14 -9 14 -19z
m142 6 c-18 -21 -25 -90 -13 -121 7 -16 10 -31 7 -33 -8 -8 -36 55 -36 79 0
23 34 88 46 88 4 0 2 -6 -4 -13z m228 -73 c0 -22 -6 -48 -12 -57 -11 -15 -12
-8 -10 42 2 32 -1 70 -8 83 -11 22 -11 22 9 -2 13 -16 21 -40 21 -66z m-7610
57 c-15 -29 -12 -103 6 -131 14 -22 12 -22 -10 3 -30 33 -35 90 -10 125 19 27
28 29 14 3z m3924 -7 c21 -8 21 -53 0 -82 -15 -22 -58 -30 -68 -14 -8 14 9 65
24 70 9 3 11 0 5 -14 -18 -46 -18 -56 1 -52 26 5 42 53 26 78 -13 22 -12 23
12 14z m-3825 -17 c-23 -18 -41 -56 -35 -74 4 -9 1 -13 -6 -11 -24 8 -19 38
10 68 17 17 34 30 39 30 4 0 1 -6 -8 -13z m71 -2 c10 -12 10 -21 0 -45 -13
-31 -15 -32 -61 -34 -21 -1 -25 2 -18 14 4 8 10 23 13 33 3 9 10 17 16 17 7 0
8 -6 0 -19 -14 -27 -13 -41 5 -41 22 0 40 50 26 73 -14 21 2 23 19 2z m3666
-7 c-19 -27 -21 -64 -3 -71 6 -3 2 -6 -10 -6 -19 -1 -23 4 -23 27 0 29 24 72
41 72 6 0 3 -10 -5 -22z m3626 -1 c-12 -13 -22 -35 -22 -50 0 -15 -4 -27 -10
-27 -20 0 -10 51 15 75 31 32 46 33 17 2z m88 -16 c0 -29 -30 -62 -53 -59 -17
2 -22 9 -20 32 1 16 7 34 14 40 12 11 10 -9 -6 -46 -5 -13 -2 -18 9 -18 20 0
39 36 33 66 -3 20 -2 22 9 13 8 -6 14 -19 14 -28z m-5480 1 c14 -11 20 -24 16
-31 -5 -8 -13 -5 -26 11 -16 20 -21 21 -39 10 -25 -15 -27 -9 -5 12 20 20 27
20 54 -2z m130 -2 c0 -5 -11 -10 -25 -10 -14 0 -25 -3 -25 -6 0 -3 11 -15 25
-26 37 -29 30 -40 -10 -17 -39 23 -39 23 -25 50 11 20 60 27 60 9z m1426 -65
c21 -51 17 -65 -6 -20 -20 40 -24 55 -14 55 3 0 12 -16 20 -35z m44 31 c0 -3
-4 -8 -10 -11 -5 -3 -10 -1 -10 4 0 6 5 11 10 11 6 0 10 -2 10 -4z m-5127 -46
c-25 -10 -43 -62 -25 -68 16 -5 5 -22 -15 -22 -16 0 -15 28 2 73 15 38 -16 15
-37 -28 -12 -25 -26 -45 -30 -45 -13 0 -9 10 12 37 22 28 27 59 8 47 -7 -4 -8
-3 -4 4 4 7 30 12 59 11 41 0 47 -2 30 -9z m3510 -5 c-3 -9 -8 -14 -10 -11 -3
3 -2 9 2 15 9 16 15 13 8 -4z m-3410 -2 l-33 -4 0 -320 0 -319 1055 0 1055 0
0 269 c0 262 0 269 -20 264 -19 -5 -19 -4 2 46 24 55 25 55 54 -15 14 -35 14
-35 -6 -29 -20 6 -20 4 -20 -264 l0 -271 355 0 c230 0 355 -4 355 -10 0 -7
-478 -10 -1415 -10 l-1415 0 0 -60 0 -60 345 0 345 0 0 25 c0 14 5 25 10 25 6
0 10 -11 10 -25 l0 -25 345 0 345 0 0 25 c0 14 5 25 10 25 6 0 10 -11 10 -25
l0 -25 345 0 345 0 1 28 2 27 4 -27 4 -28 245 0 c156 0 244 -4 244 -10 0 -7
-444 -10 -1312 -10 l-1313 0 0 405 0 405 40 -2 c37 -1 37 -2 8 -5z m3687 -13
c0 -5 -7 -10 -15 -10 -8 0 -15 -5 -15 -11 0 -5 -4 -7 -10 -4 -20 12 -10 35 15
35 14 0 25 -4 25 -10z m-2980 -92 c0 -6 -7 -8 -15 -4 -8 3 -15 0 -15 -7 0 -9
-2 -9 -8 1 -5 7 -16 10 -25 6 -21 -8 -21 -6 4 52 l20 48 20 -43 c10 -24 19
-48 19 -53z m2740 62 c0 -5 -12 -10 -26 -10 -14 0 -23 4 -19 10 3 6 15 10 26
10 10 0 19 -4 19 -10z m65 0 c18 -8 17 -9 -7 -9 -16 -1 -28 4 -28 9 0 12 8 12
35 0z m3607 -123 c2 -45 0 -57 -12 -57 -12 0 -15 15 -15 72 0 40 5 76 10 80
11 8 13 -3 17 -95z m92 78 c-12 -18 -15 -39 -11 -71 5 -52 10 -59 32 -50 14 5
16 18 13 70 -2 50 0 62 9 54 37 -30 19 -130 -24 -136 -48 -7 -73 98 -33 138
27 27 34 25 14 -5z m-2123 -32 c5 -13 23 -104 39 -201 34 -193 45 -244 65
-283 l14 -25 640 0 c507 1 641 -2 641 -11 0 -10 -290 -13 -1415 -13 l-1415 0
0 -65 0 -65 345 0 345 0 0 25 c0 14 5 25 10 25 6 0 10 -11 10 -25 l0 -25 345
0 345 0 1 28 2 27 4 -27 4 -28 350 0 349 0 1 28 2 27 4 -28 4 -27 345 0 344 0
0 25 c0 14 5 25 10 25 6 0 10 -11 10 -25 0 -24 2 -25 65 -25 53 0 63 3 59 15
-5 13 1 13 42 -2 27 -9 56 -18 64 -21 8 -2 -5 -10 -30 -17 -25 -6 -54 -16 -64
-20 -16 -7 -18 -5 -13 8 6 16 -95 17 -1483 17 l-1490 0 0 355 c1 222 5 353 11
350 5 -4 9 -112 9 -265 l0 -258 153 -6 c83 -3 367 -5 630 -3 l479 2 12 25 c20
39 34 101 66 294 36 214 61 267 91 189z m2976 6 c7 -14 26 -106 43 -204 35
-205 46 -251 66 -282 l14 -23 559 0 c450 0 561 3 570 14 22 26 40 99 71 283
32 187 50 248 73 240 18 -5 33 -59 56 -202 29 -174 51 -274 68 -307 l14 -28
290 0 c228 0 290 -3 287 -12 -4 -10 -299 -14 -1421 -16 l-1417 -2 0 -65 0 -65
350 0 350 0 1 28 2 27 4 -27 4 -28 345 0 344 0 0 25 c0 14 5 25 10 25 6 0 10
-11 10 -25 l0 -25 345 0 345 0 0 25 c0 14 5 25 10 25 6 0 10 -11 10 -25 l0
-25 345 0 345 0 1 28 2 27 4 -27 c4 -27 6 -28 70 -28 56 0 64 2 59 16 -5 12
-2 15 11 9 10 -4 32 -11 48 -17 17 -5 37 -12 45 -15 8 -3 -12 -13 -45 -24 -73
-23 -70 -23 -55 -4 11 13 -154 15 -1479 15 l-1491 0 0 330 0 330 35 0 c19 0
35 -4 35 -10 0 -5 -14 -10 -30 -10 l-30 0 2 -227 3 -228 280 0 280 0 13 29
c14 28 31 108 72 339 29 165 47 197 77 136z m-7390 -392 c-1 -67 -3 -9 -3 128
0 138 2 192 3 122 2 -71 2 -183 0 -250z m2873 -48 c13 -23 13 -85 0 -110 -14
-26 -56 -25 -71 3 -6 11 -11 39 -11 62 1 65 56 95 82 45z m3680 11 c38 -38 17
-140 -29 -140 -26 0 -42 23 -48 67 -4 29 0 44 17 66 26 32 34 33 60 7z m-7350
-30 c38 -38 17 -140 -29 -140 -26 0 -42 23 -48 67 -4 29 0 44 17 66 26 32 34
33 60 7z m3266 -185 c-27 -25 -35 -70 -13 -78 6 -3 2 -6 -10 -6 -12 -1 -23 5
-26 12 -8 23 15 67 42 82 37 20 38 19 7 -10z m78 19 c21 -8 21 -53 0 -82 -14
-20 -53 -30 -66 -17 -9 9 7 68 19 72 10 4 10 -3 2 -27 -12 -34 -8 -45 15 -37
21 8 32 56 17 79 -12 20 -11 21 13 12z m3608 -14 c-22 -21 -39 -66 -29 -77 13
-12 34 7 40 36 4 17 12 31 18 31 7 0 8 -7 4 -17 -17 -42 -17 -53 -1 -53 23 0
47 59 35 82 -7 13 -6 16 5 12 20 -8 27 -30 17 -57 -14 -36 -32 -45 -86 -44
-46 2 -50 4 -53 28 -2 19 5 33 28 53 37 31 54 35 22 6z m3766 8 c29 -29 -1
-98 -43 -98 -13 0 -26 4 -29 8 -8 14 9 65 24 70 9 3 11 0 5 -14 -18 -46 -18
-56 1 -52 26 5 42 53 26 78 -13 22 -3 27 16 8z m-92 -20 c-19 -27 -21 -64 -3
-71 6 -3 2 -6 -10 -6 -22 -1 -27 8 -23 39 2 22 29 60 41 60 5 0 3 -10 -5 -22z
m-7533 -49 c-5 -4 -18 -10 -30 -14 -18 -5 -22 -3 -17 9 5 13 -2 16 -35 16 -23
0 -41 5 -41 10 0 6 18 10 41 10 35 0 40 3 34 17 -4 11 5 7 24 -11 17 -17 28
-33 24 -37z m-223 21 c11 -7 -3 -10 -45 -10 -42 0 -56 3 -45 10 8 5 29 10 45
10 17 0 37 -5 45 -10z m-2079 -127 c-32 -88 -50 -126 -51 -108 -1 20 74 218
78 207 2 -7 -10 -51 -27 -99z m1403 -5 c-40 -110 -41 -114 -49 -107 -2 3 11
48 30 100 20 51 38 100 40 108 3 8 8 11 11 8 3 -3 -11 -52 -32 -109z m2280 -2
c-21 -59 -42 -106 -46 -106 -6 0 10 51 67 209 3 8 8 11 11 8 4 -3 -11 -53 -32
-111z m1441 97 c-4 -10 -18 -49 -32 -88 -41 -114 -43 -118 -49 -112 -8 7 69
217 80 217 4 0 5 -8 1 -17z m2281 2 c-3 -9 -20 -62 -37 -118 -17 -56 -36 -106
-42 -112 -12 -12 -10 -2 34 137 19 60 38 108 43 108 4 0 5 -7 2 -15z m1368
-121 c-21 -64 -40 -112 -42 -106 -5 15 70 250 75 235 2 -6 -13 -64 -33 -129z
m-8663 96 c28 -16 23 -54 -13 -96 l-32 -37 37 5 c23 2 36 0 34 -6 -2 -6 -25
-12 -52 -14 l-48 -3 36 40 c39 43 49 87 22 97 -8 4 -22 1 -30 -6 -10 -8 -15
-9 -15 -2 0 6 8 16 18 21 21 13 20 13 43 1z m583 -15 c-12 -18 -15 -39 -11
-71 5 -52 10 -59 32 -50 14 5 16 18 13 70 -2 50 0 62 9 54 37 -30 19 -130 -24
-136 -48 -7 -73 98 -33 138 27 27 34 25 14 -5z m830 9 c24 -23 20 -45 -16 -88
l-32 -39 36 5 c26 3 34 0 31 -9 -3 -8 -23 -13 -50 -13 l-45 0 36 42 c20 23 36
49 36 59 0 23 -24 41 -46 33 -18 -5 -18 -5 0 10 25 20 31 20 50 0z m2280 0
c24 -23 20 -45 -16 -88 l-32 -39 36 5 c26 3 34 0 31 -9 -3 -8 -23 -13 -50 -13
l-45 0 36 42 c20 23 36 49 36 59 0 23 -24 41 -46 33 -18 -5 -18 -5 0 10 25 20
31 20 50 0z m626 -15 c13 -23 13 -85 0 -110 -14 -26 -56 -25 -71 3 -6 11 -11
39 -11 62 1 65 56 95 82 45z m778 15 c29 -20 28 -33 -8 -82 l-30 -42 30 0 c16
0 30 -4 30 -10 0 -5 -20 -10 -45 -10 l-46 0 30 38 c38 49 46 76 25 92 -12 11
-20 11 -35 2 -23 -15 -25 -9 -3 12 19 20 24 20 52 0z m2280 0 c29 -20 28 -33
-8 -82 l-30 -42 30 0 c16 0 30 -4 30 -10 0 -5 -20 -10 -45 -10 l-46 0 30 38
c38 49 46 76 25 92 -12 11 -20 11 -35 2 -23 -15 -25 -9 -3 12 19 20 24 20 52
0z m622 -4 c38 -38 17 -140 -29 -140 -26 0 -42 23 -48 67 -4 29 0 44 17 66 26
32 34 33 60 7z m784 4 c24 -23 20 -45 -16 -88 l-32 -39 36 5 c26 3 34 0 31 -9
-3 -8 -23 -13 -50 -13 l-45 0 36 40 c20 22 36 48 36 59 0 25 -23 43 -46 35
-18 -5 -18 -5 0 10 25 20 31 20 50 0z m-9546 -21 c-21 -6 -47 -65 -30 -71 16
-5 5 -22 -15 -22 -11 0 -14 6 -9 23 17 60 18 67 8 67 -6 0 -20 -20 -31 -45
-11 -25 -25 -45 -31 -45 -7 0 -2 16 11 37 16 25 19 38 11 41 -28 9 3 22 51 21
29 -1 45 -3 35 -6z m-128 -13 c0 -5 -25 -10 -55 -10 -30 0 -55 5 -55 10 0 6
25 10 55 10 30 0 55 -4 55 -10z m7498 -7 c-22 -6 -43 -64 -26 -74 17 -11 3
-23 -17 -15 -14 5 -14 9 0 42 18 44 18 44 2 44 -8 0 -22 -19 -33 -42 -10 -23
-25 -44 -32 -46 -7 -2 -1 13 13 33 29 44 32 57 8 48 -11 -4 -14 -3 -9 5 4 7
29 12 59 11 29 -1 44 -3 35 -6z m-6780 -10 c-22 -6 -43 -64 -26 -74 17 -11 3
-23 -17 -15 -14 5 -14 9 0 42 18 44 18 44 2 44 -8 0 -22 -19 -33 -42 -10 -23
-25 -44 -32 -46 -7 -2 -1 13 13 33 29 44 32 57 8 48 -11 -4 -14 -3 -9 5 4 7
29 12 59 11 29 -1 44 -3 35 -6z m1406 -3 c-27 -11 -51 -70 -28 -70 8 0 12 -4
9 -10 -3 -5 -13 -10 -22 -10 -16 0 -15 28 2 73 15 38 -16 15 -37 -28 -12 -25
-26 -45 -30 -45 -13 0 -9 10 12 37 22 28 27 59 8 47 -7 -4 -8 -3 -4 4 4 7 30
12 59 11 39 0 47 -2 31 -9z m1684 3 c-22 -6 -43 -64 -26 -74 17 -11 3 -23 -17
-15 -14 5 -14 9 0 42 18 44 18 44 2 44 -8 0 -22 -19 -33 -42 -10 -23 -25 -44
-32 -46 -7 -2 -1 13 13 33 29 44 32 57 8 48 -11 -4 -14 -3 -9 5 4 7 29 12 59
11 29 -1 44 -3 35 -6z m600 0 c-21 -6 -47 -65 -30 -71 16 -5 5 -22 -15 -22
-11 0 -14 6 -9 23 17 60 18 67 8 67 -6 0 -20 -20 -31 -45 -11 -25 -24 -45 -30
-45 -6 0 -1 17 11 37 16 26 19 38 10 41 -28 9 3 22 51 21 29 -1 45 -3 35 -6z
m1400 0 c-22 -6 -43 -64 -26 -74 17 -11 3 -23 -17 -15 -14 5 -14 9 0 42 18 44
18 44 2 44 -8 0 -22 -19 -33 -42 -10 -23 -25 -44 -32 -46 -7 -2 -1 13 13 33
29 44 32 57 8 48 -11 -4 -14 -3 -9 5 4 7 29 12 59 11 29 -1 44 -3 35 -6z m830
0 c-22 -6 -43 -64 -26 -74 17 -11 3 -23 -17 -15 -14 5 -14 9 0 42 18 44 18 44
2 44 -8 0 -22 -19 -33 -42 -10 -23 -25 -44 -32 -46 -7 -2 -1 13 13 33 29 44
32 57 8 48 -11 -4 -14 -3 -9 5 4 7 29 12 59 11 29 -1 44 -3 35 -6z m1456 -3
c-27 -11 -51 -70 -28 -70 8 0 12 -4 9 -10 -3 -5 -13 -10 -22 -10 -16 0 -15 28
2 73 15 38 -16 15 -37 -28 -12 -25 -26 -45 -30 -45 -13 0 -9 10 12 37 22 28
27 59 8 47 -7 -4 -8 -3 -4 4 4 7 30 12 59 11 39 0 47 -2 31 -9z m1404 3 c-21
-6 -47 -65 -30 -71 16 -5 5 -22 -15 -22 -11 0 -14 6 -9 23 17 60 18 67 8 67
-6 0 -20 -20 -31 -45 -11 -25 -25 -45 -32 -45 -7 0 -6 8 5 23 26 35 31 50 18
55 -28 9 3 22 51 21 29 -1 45 -3 35 -6z m830 0 c-21 -6 -47 -65 -30 -71 16 -5
5 -22 -15 -22 -11 0 -14 6 -9 23 17 60 18 67 8 67 -6 0 -20 -20 -31 -45 -11
-25 -24 -45 -30 -45 -6 0 -1 17 11 37 16 26 19 38 10 41 -28 9 3 22 51 21 29
-1 45 -3 35 -6z m-2958 -23 c11 -7 -4 -10 -48 -10 -40 0 -61 4 -57 10 8 13 85
13 105 0z m-5370 -12 c0 -4 -25 -8 -55 -8 -30 0 -55 4 -55 9 0 5 25 9 55 9 30
-1 55 -5 55 -10z m1685 2 c4 -6 -17 -10 -57 -10 -44 0 -59 3 -48 10 20 13 97
13 105 0z m2005 0 c0 -5 -25 -10 -55 -10 -30 0 -55 5 -55 10 0 6 25 10 55 10
30 0 55 -4 55 -10z m3680 0 c0 -5 -25 -10 -55 -10 -30 0 -55 5 -55 10 0 6 25
10 55 10 30 0 55 -4 55 -10z"/>
<path d="M4077 3063 c-4 -3 -7 -21 -7 -40 0 -27 4 -33 20 -33 25 0 34 21 26
55 -6 24 -25 33 -39 18z"/>
<path d="M6167 2584 c-4 -4 -7 -128 -7 -276 l0 -268 25 0 25 0 0 255 c0 140
-4 255 -8 255 -5 0 -13 9 -18 21 -5 11 -13 17 -17 13z"/>
<path d="M6730 2095 l0 -55 50 0 c45 0 50 2 50 22 0 27 -27 58 -45 51 -8 -2
-20 5 -27 16 -21 34 -28 25 -28 -34z"/>
<path d="M6840 2065 c0 -25 1 -25 80 -25 47 0 80 4 80 10 0 10 -13 14 -43 10
-10 -1 -25 4 -32 10 -12 10 -16 9 -21 -3 -5 -14 -8 -14 -27 3 -28 26 -37 25
-37 -5z"/>
<path d="M4872 2078 c-20 -20 -14 -38 13 -38 20 0 25 5 25 25 0 27 -18 33 -38
13z"/>
<path d="M4815 2064 c-11 -9 -23 -10 -28 -5 -11 11 -37 3 -37 -10 0 -5 23 -9
50 -9 37 0 50 4 50 14 0 22 -13 26 -35 10z"/>
<path d="M4500 2036 c0 -20 5 -26 21 -26 15 0 20 5 17 22 -5 34 -38 37 -38 4z"/>
<path d="M4559 2058 c-10 -44 -8 -49 13 -46 28 4 32 41 6 46 -10 2 -18 2 -19
0z"/>
<path d="M4610 2035 c0 -18 5 -25 18 -25 25 0 31 7 25 31 -8 29 -43 25 -43 -6z"/>
<path d="M7855 2430 c-9 -14 -10 -104 -1 -118 21 -34 46 0 46 61 0 48 -28 84
-45 57z"/>
<path d="M4220 2089 c-12 -21 -9 -103 3 -116 4 -3 13 -3 22 1 13 4 15 18 13
68 -3 66 -18 84 -38 47z"/>
<path d="M1115 1820 c-9 -14 -10 -104 -1 -118 21 -34 46 0 46 61 0 48 -28 84
-45 57z"/>
<path d="M3360 1809 c-12 -21 -9 -103 3 -116 4 -3 13 -3 22 1 13 4 15 18 13
68 -3 66 -18 84 -38 47z"/>
<path d="M5861 1816 c-7 -8 -11 -37 -9 -68 3 -45 6 -53 23 -53 17 0 20 8 23
56 3 62 -14 92 -37 65z"/>
<path d="M7045 1820 c-9 -14 -10 -104 -1 -118 21 -34 46 0 46 61 0 48 -28 84
-45 57z"/>
<path d="M8491 1816 c-7 -8 -11 -37 -9 -68 3 -45 6 -53 23 -53 17 0 20 8 23
56 3 62 -14 92 -37 65z"/>
<path d="M9545 1820 c-9 -14 -10 -104 -1 -118 21 -34 46 0 46 61 0 48 -28 84
-45 57z"/>
<path d="M10730 1809 c-12 -21 -9 -103 3 -116 4 -3 13 -3 22 1 13 4 15 18 13
68 -3 66 -18 84 -38 47z"/>
<path d="M5867 1123 c-6 -10 -31 -139 -52 -273 -10 -58 -26 -132 -36 -165 -10
-33 -19 -63 -19 -67 0 -5 52 -8 115 -8 63 0 115 2 115 5 0 3 -9 31 -19 63 -10
31 -33 143 -51 247 -30 178 -40 219 -53 198z"/>
<path d="M8846 1120 c-10 -26 -24 -102 -46 -235 -22 -139 -47 -242 -61 -251
-29 -17 4 -24 121 -24 l131 0 -20 28 c-25 35 -33 68 -71 286 -31 181 -43 226
-54 196z"/>
<path d="M10256 1114 c-3 -9 -20 -100 -37 -202 -17 -104 -41 -213 -54 -244
l-23 -58 129 0 128 0 -19 33 c-18 31 -32 94 -80 365 -21 117 -31 141 -44 106z"/>
<path d="M4311 706 c-7 -8 -11 -37 -9 -68 3 -45 6 -53 23 -53 17 0 20 8 23 56
3 62 -14 92 -37 65z"/>
<path d="M7995 710 c-9 -14 -10 -104 -1 -118 21 -34 46 0 46 61 0 48 -28 84
-45 57z"/>
<path d="M645 680 c-9 -14 -10 -104 -1 -118 21 -34 46 0 46 61 0 48 -28 84
-45 57z"/>
<path d="M5861 386 c-7 -8 -11 -37 -9 -68 3 -45 6 -53 23 -53 17 0 20 8 23 56
3 62 -14 92 -37 65z"/>
<path d="M9545 390 c-9 -14 -10 -104 -1 -118 21 -34 46 0 46 61 0 48 -28 84
-45 57z"/>
</g>
</svg>
