<?xml version="1.0" standalone="no"?>
<!DOCTYPE svg PUBLIC "-//W3C//DTD SVG 20010904//EN"
 "http://www.w3.org/TR/2001/REC-SVG-20010904/DTD/svg10.dtd">
<svg version="1.0" xmlns="http://www.w3.org/2000/svg"
 width="1143.000000pt" height="342.000000pt" viewBox="0 0 1143.000000 342.000000"
 preserveAspectRatio="xMidYMid meet">

<g transform="translate(0.000000,342.000000) scale(0.100000,-0.100000)"
fill="#000000" stroke="none">
<path d="M0 1710 l0 -1710 5715 0 5715 0 0 1710 0 1710 -5715 0 -5715 0 0
-1710z m9353 1546 c4 -10 -2 -13 -18 -12 -17 1 -21 4 -13 14 14 16 25 15 31
-2z m-7315 -3 c-16 -4 -18 -17 -18 -98 0 -80 2 -94 18 -99 10 -3 6 -4 -8 -3
-24 2 -25 5 -28 70 -3 58 -5 68 -20 65 -13 -3 -17 -14 -16 -46 1 -42 -9 -55
-20 -26 -3 9 -11 12 -18 8 -10 -6 -11 -4 0 7 16 18 15 34 -4 53 -13 14 -14 16
0 16 8 0 17 -4 20 -9 4 -5 17 -4 31 2 18 9 25 20 25 40 0 23 4 27 28 26 16 -1
20 -3 10 -6z m207 -16 c3 -12 5 -58 3 -102 -3 -77 -4 -80 -28 -83 -22 -2 -23
-1 -7 8 14 9 17 26 17 100 0 76 -2 89 -17 93 -14 4 -13 5 4 6 16 1 24 -6 28
-22z m1715 -12 c0 -31 2 -34 18 -26 28 15 52 -5 52 -43 0 -40 -19 -59 -57 -54
-27 3 -28 5 -33 76 -3 41 -3 76 -1 78 13 12 21 0 21 -31z m140 -31 c14 -41 6
-80 -21 -114 -19 -24 -20 -24 -9 -2 18 36 14 129 -6 160 l-17 27 21 -19 c12
-10 26 -34 32 -52z m1698 59 c-16 -4 -18 -17 -18 -98 0 -80 2 -94 18 -99 10
-3 6 -4 -8 -3 -25 2 -25 3 -28 105 l-3 102 28 -1 c17 -1 21 -3 11 -6z m195 0
c-7 -2 -19 -2 -25 0 -7 3 -2 5 12 5 14 0 19 -2 13 -5z m3415 0 c-16 -4 -18
-17 -18 -93 0 -74 3 -91 18 -99 15 -9 15 -10 -5 -11 -22 0 -23 4 -23 70 0 53
-3 70 -14 70 -27 0 -41 -29 -29 -61 9 -23 9 -29 -2 -29 -8 0 -17 16 -21 38 -4
20 -11 43 -17 50 -7 8 -5 12 6 12 8 0 17 -5 19 -10 2 -7 13 -6 30 2 21 10 28
20 28 41 0 22 4 27 23 26 16 -1 18 -2 5 -6z m210 -95 c-3 -102 -3 -103 -28
-105 -14 -1 -18 0 -7 3 15 5 17 19 17 99 0 81 -2 94 -17 98 -11 3 -7 5 10 6
l28 1 -3 -102z m-9437 64 c-6 -12 -11 -41 -11 -66 0 -25 -4 -46 -10 -46 -16 0
-11 80 7 111 19 32 31 32 14 1z m7380 14 c-20 -24 -24 -99 -7 -139 18 -44 3
-40 -20 5 -19 38 -14 101 12 129 19 21 33 26 15 5z m190 -43 c13 -41 0 -102
-28 -124 -15 -13 -15 -12 -4 9 7 13 12 47 12 77 0 30 -5 64 -12 77 -11 21 -11
22 4 10 9 -8 21 -30 28 -49z m-3861 28 c-15 -30 -12 -113 6 -141 14 -22 12
-22 -10 3 -31 33 -36 99 -10 135 19 27 28 29 14 3z m3779 -25 c7 -9 8 -17 3
-20 -6 -3 -12 1 -16 9 -8 21 -23 19 -36 -5 -16 -30 5 -63 36 -57 20 3 22 2 13
-9 -28 -34 -69 -8 -69 43 0 45 44 70 69 39z m-7289 -45 c0 -25 -8 -47 -21 -62
-19 -23 -20 -23 -10 -2 6 12 11 42 11 68 0 28 4 44 10 40 6 -3 10 -23 10 -44z
m1740 32 c0 -15 1 -15 18 0 21 20 42 22 42 6 0 -24 -24 -89 -32 -89 -5 0 -7 8
-4 18 3 9 8 31 11 47 l7 30 -31 -33 c-17 -18 -31 -39 -31 -47 0 -8 -5 -15 -11
-15 -7 0 -9 9 -3 28 4 15 8 37 8 50 1 25 26 31 26 5z m3416 -13 c4 -16 11 -27
16 -24 6 4 5 -3 -1 -14 -21 -39 -31 -35 -31 12 0 26 -5 46 -12 49 -8 3 -6 6 5
6 12 1 19 -9 23 -29z m78 -33 c5 4 2 -2 -5 -14 -20 -33 -29 -28 -29 13 0 22
-4 33 -11 29 -6 -4 -5 2 3 14 12 20 13 19 23 -15 6 -20 14 -32 19 -27z m36 53
c0 -5 -4 -10 -10 -10 -5 0 -10 5 -10 10 0 6 5 10 10 10 6 0 10 -4 10 -10z
m240 -7 c0 -14 2 -14 20 2 38 34 25 10 -19 -35 -36 -37 -42 -41 -35 -20 4 14
8 35 9 48 0 25 25 31 25 5z m3603 0 c-6 -17 -5 -17 14 0 33 29 47 22 39 -20
-4 -21 -8 -44 -8 -50 -1 -7 -7 -13 -14 -13 -10 0 -11 6 -4 26 6 14 10 35 10
46 0 20 -1 20 -19 4 -11 -10 -25 -31 -31 -47 -19 -45 -28 -34 -16 21 6 28 15
50 23 50 8 0 10 -7 6 -17z m-9191 -46 c3 -30 1 -37 -11 -35 -12 2 -15 13 -13
38 7 67 18 65 24 -3z m5706 -24 c-3 -53 -5 -58 -28 -61 -22 -2 -23 -1 -7 8 12
8 17 24 17 60 0 28 5 50 10 50 7 0 10 -22 8 -57z m-308 -5 c7 -18 15 -36 18
-40 2 -5 -1 -8 -6 -8 -5 0 -16 18 -25 40 -18 48 -8 54 13 8z m3595 2 c-3 -5
-14 -10 -23 -9 -14 0 -13 2 3 9 27 11 27 11 20 0z m-7378 -6 c-3 -3 -12 -4
-19 -1 -8 3 -5 6 6 6 11 1 17 -2 13 -5z m2195 -279 c2 -62 0 -75 -12 -75 -12
0 -15 15 -15 75 0 51 4 75 12 75 7 0 13 -26 15 -75z m3660 0 c2 -62 0 -75 -12
-75 -12 0 -15 15 -15 75 0 51 4 75 12 75 7 0 13 -26 15 -75z m-7378 43 c3 -13
7 -44 8 -70 2 -37 0 -48 -12 -48 -12 0 -15 14 -15 70 0 68 10 92 19 48z m355
-25 c12 -23 -4 -53 -29 -53 -25 0 -41 29 -29 52 12 23 45 23 58 1z m229 -9 c2
-11 -4 -27 -13 -34 -12 -10 -15 -39 -15 -156 0 -131 6 -164 25 -134 3 6 17 10
31 10 13 0 24 -4 24 -10 0 -5 11 -10 24 -10 14 0 28 5 31 10 3 6 17 10 30 10
13 0 27 -4 30 -10 8 -14 41 -13 65 2 16 10 24 10 40 0 24 -15 57 -16 65 -2 3
6 17 10 31 10 13 0 24 -4 24 -10 0 -5 14 -10 30 -10 17 0 30 5 30 10 0 6 11
10 24 10 14 0 28 -4 31 -10 9 -15 44 -12 61 5 9 8 19 15 24 15 5 0 15 -7 24
-15 8 -8 17 -15 20 -15 3 0 6 64 6 142 0 115 -3 145 -16 159 -24 27 -9 61 24
57 32 -4 42 -37 17 -58 -12 -10 -15 -39 -15 -156 0 -131 6 -164 25 -134 3 6
17 10 31 10 13 0 24 -4 24 -10 0 -16 46 -12 60 5 7 8 18 15 25 15 7 0 18 -7
25 -15 15 -18 43 -19 70 -3 16 10 24 10 40 0 25 -15 45 -15 69 0 11 7 26 8 37
3 29 -13 63 -15 69 -4 8 12 52 12 60 -1 8 -14 41 -13 65 2 16 10 24 10 40 0
11 -6 22 -12 25 -12 3 0 5 65 5 144 0 117 -3 146 -15 156 -9 7 -15 23 -13 34
2 16 10 21 33 21 23 0 31 -5 33 -21 2 -11 -4 -27 -13 -34 -12 -10 -15 -39 -15
-156 0 -79 3 -144 6 -144 3 0 12 7 20 15 9 8 19 15 24 15 5 0 15 -7 24 -15 17
-17 52 -20 61 -5 8 14 41 13 65 -2 16 -10 25 -9 50 6 29 16 33 17 49 2 21 -19
44 -20 71 -4 16 10 24 10 40 0 11 -6 22 -12 25 -12 3 0 5 64 5 142 0 119 -3
144 -17 160 -22 24 -6 53 28 53 19 0 25 -6 27 -28 2 -18 -2 -29 -12 -33 -14
-5 -16 -29 -16 -150 0 -131 6 -164 25 -134 3 6 17 10 31 10 13 0 24 -4 24 -10
0 -14 46 -12 70 2 16 10 24 10 40 0 11 -6 22 -12 25 -12 3 0 5 65 5 145 0 121
-3 145 -16 153 -25 14 -14 57 15 57 34 0 50 -29 28 -53 -14 -16 -17 -41 -17
-160 0 -78 2 -142 5 -142 3 0 14 6 25 12 16 10 24 10 40 0 24 -15 57 -16 65
-2 3 6 17 10 31 10 13 0 24 -4 24 -10 0 -5 14 -10 30 -10 17 0 30 5 30 10 0 6
11 10 24 10 14 0 28 -4 31 -10 8 -14 41 -13 65 2 16 10 24 10 40 0 11 -6 22
-12 25 -12 3 0 5 64 5 142 0 119 -3 144 -17 160 -22 24 -6 53 28 53 29 0 40
-43 15 -57 -13 -8 -16 -32 -16 -153 0 -132 6 -165 25 -135 3 6 17 10 31 10 13
0 24 -4 24 -10 0 -5 14 -10 30 -10 17 0 30 -4 30 -10 0 -5 -11 -10 -24 -10
-13 0 -29 -7 -36 -15 -7 -8 -18 -15 -25 -15 -7 0 -18 7 -25 15 -7 8 -21 15
-32 15 -11 0 -26 -7 -34 -15 -9 -8 -19 -15 -24 -15 -5 0 -15 7 -24 15 -8 8
-17 15 -20 15 -3 0 -6 -65 -6 -144 0 -115 3 -146 15 -156 30 -25 4 -67 -35
-55 -24 8 -28 53 -5 61 12 5 15 31 15 150 0 79 -3 144 -7 144 -3 0 -14 -7 -24
-16 -16 -15 -20 -14 -47 2 -29 17 -41 16 -74 -8 -14 -10 -20 -9 -36 5 -10 9
-22 17 -25 17 -4 0 -7 -65 -7 -144 0 -119 3 -145 15 -150 20 -7 19 -40 -1 -57
-32 -27 -70 24 -39 54 12 13 15 43 15 156 0 78 -3 141 -6 141 -3 0 -12 -7 -20
-15 -9 -8 -19 -15 -24 -15 -5 0 -15 7 -24 15 -19 20 -45 19 -67 -1 -18 -16
-29 -15 -60 8 -16 11 -30 8 -61 -14 -14 -10 -20 -9 -36 5 -23 21 -49 22 -68 2
-19 -19 -29 -19 -48 0 -8 8 -17 15 -20 15 -3 0 -6 -65 -6 -144 0 -119 3 -145
15 -150 20 -7 19 -40 -1 -57 -11 -9 -20 -10 -32 -2 -23 14 -28 52 -8 59 14 5
16 28 16 150 0 131 -6 164 -25 134 -3 -5 -17 -10 -31 -10 -13 0 -24 5 -24 10
0 16 -46 12 -60 -5 -7 -8 -18 -15 -25 -15 -7 0 -18 7 -25 15 -7 8 -16 15 -21
15 -5 0 -9 -65 -9 -144 0 -119 3 -145 15 -150 23 -9 19 -53 -6 -61 -28 -9 -53
16 -44 44 3 11 11 21 16 21 5 0 9 62 9 145 0 80 -2 145 -5 145 -3 0 -14 -6
-25 -12 -16 -10 -24 -10 -40 0 -23 14 -60 16 -60 3 0 -18 -33 -21 -60 -5 -28
17 -39 15 -72 -8 -14 -10 -20 -9 -36 5 -19 18 -62 23 -62 8 0 -17 -33 -21 -50
-6 -9 8 -20 15 -23 15 -4 0 -7 -65 -7 -144 0 -119 3 -145 15 -150 20 -7 19
-40 -1 -57 -11 -9 -20 -10 -32 -2 -23 14 -28 52 -8 59 14 5 16 28 16 150 0 79
-3 144 -6 144 -3 0 -12 -7 -20 -15 -9 -8 -19 -15 -24 -15 -5 0 -15 7 -24 15
-17 17 -52 20 -61 5 -8 -13 -52 -13 -60 0 -7 12 -32 9 -62 -8 -22 -12 -53 -7
-53 9 0 13 -37 11 -60 -3 -16 -10 -24 -10 -40 0 -27 16 -50 15 -71 -4 -18 -16
-29 -15 -61 8 -14 10 -23 9 -48 -6 -29 -16 -33 -17 -49 -2 -10 9 -21 16 -24
16 -4 0 -7 -65 -7 -144 0 -119 3 -145 15 -150 20 -7 19 -40 -1 -57 -32 -27
-70 24 -39 54 12 13 15 43 15 156 0 78 -3 141 -6 141 -3 0 -12 -7 -20 -15 -9
-8 -19 -15 -24 -15 -5 0 -15 7 -24 15 -19 20 -45 19 -67 -1 -18 -16 -29 -15
-60 8 -16 11 -30 8 -61 -14 -14 -10 -20 -9 -36 5 -23 21 -49 22 -68 2 -9 -8
-19 -15 -24 -15 -5 0 -15 7 -24 15 -22 22 -26 19 -28 -22 l-1 -38 -4 38 c-5
42 -9 44 -34 21 -18 -16 -29 -15 -60 8 -16 11 -30 8 -61 -14 -14 -10 -20 -9
-36 5 -13 12 -36 17 -75 17 l-57 0 0 -160 0 -160 33 -2 32 -1 -33 -4 -33 -4 3
-62 3 -62 213 -3 212 -2 1 32 1 33 7 -30 6 -30 273 -3 272 -2 0 30 c0 16 5 30
10 30 6 0 10 -13 10 -30 l0 -30 275 0 275 0 0 30 c0 17 5 30 10 30 6 0 10 -14
10 -30 l0 -30 272 2 273 3 6 30 7 30 1 -32 1 -33 275 0 275 0 0 30 c0 17 5 30
10 30 6 0 10 -13 10 -30 l0 -30 206 0 c195 0 205 1 200 18 -6 18 -3 18 55 -2
l62 -20 -54 -18 c-66 -22 -70 -22 -63 -3 5 13 -172 15 -1560 15 l-1566 0 0
410 0 410 38 -2 c36 -1 36 -1 5 -5 l-33 -4 0 -160 0 -159 59 0 c33 0 63 5 66
10 3 6 17 10 31 10 13 0 24 -4 24 -10 0 -5 14 -10 30 -10 17 0 30 5 30 10 0 6
11 10 24 10 14 0 28 -4 31 -10 8 -14 41 -13 65 2 16 10 24 10 40 0 11 -6 22
-12 25 -12 3 0 5 65 5 144 0 115 -3 146 -15 156 -18 15 -19 32 -3 48 19 19 53
10 56 -14z m226 4 c15 -24 -13 -53 -43 -43 -21 6 -29 43 -14 59 12 12 45 2 57
-16z m221 -13 c0 -38 -37 -48 -55 -15 -14 27 4 52 34 48 16 -2 21 -10 21 -33z
m459 13 c15 -25 -19 -61 -45 -47 -19 10 -26 49 -12 63 12 11 45 2 57 -16z
m224 -6 c2 -13 -3 -29 -12 -35 -12 -10 -16 -38 -19 -137 l-3 -125 -2 126 c-2
98 -5 129 -17 139 -18 15 -19 32 -3 48 20 20 53 10 56 -16z m451 14 c18 -22
-4 -58 -32 -54 -37 5 -36 68 1 68 11 0 25 -6 31 -14z m676 -21 c0 -35 -31 -47
-51 -20 -18 25 0 57 29 53 17 -2 22 -10 22 -33z m2827 -3 c18 -18 29 -32 23
-31 -35 6 -35 4 -35 -316 l0 -315 25 0 25 0 2 313 3 312 2 -312 3 -313 50 0
50 0 2 298 3 297 2 -297 3 -298 25 0 25 0 0 314 c0 269 -2 315 -15 320 -8 3
-20 -1 -27 -8 -10 -10 -19 -6 -50 22 -21 19 -35 38 -32 41 9 9 425 7 431 -2 2
-4 10 -4 16 1 15 11 307 10 325 -1 17 -11 15 -46 -3 -53 -13 -5 -15 -50 -15
-322 0 -299 1 -314 18 -300 24 21 276 23 293 2 6 -8 21 -15 33 -15 20 -1 20
-2 1 -6 -11 -3 -29 -12 -40 -22 -18 -15 -19 -15 -6 1 17 23 7 48 -19 48 -24 0
-37 -25 -22 -43 8 -9 6 -13 -7 -13 -13 0 -16 7 -13 28 4 23 1 28 -17 28 -26 0
-38 -25 -21 -45 10 -12 9 -15 -4 -15 -11 0 -16 9 -16 30 0 23 -4 30 -20 30
-14 0 -20 -7 -20 -24 0 -13 6 -26 13 -29 6 -3 3 -5 -8 -4 -17 1 -20 6 -17 29
4 23 1 28 -17 28 -25 0 -38 -25 -23 -43 8 -9 6 -13 -7 -13 -13 0 -16 7 -13 28
4 23 1 28 -17 28 -27 0 -37 -25 -20 -48 13 -16 13 -16 -7 0 -18 16 -69 17
-658 18 -352 0 -641 2 -644 5 -3 3 13 5 36 5 l42 0 2 188 3 187 2 -188 c3
-188 3 -188 26 -185 22 3 22 6 27 193 l6 190 2 -192 2 -193 50 0 50 0 0 314
c0 195 -4 317 -10 321 -5 3 -18 1 -29 -5 -13 -6 -22 -6 -26 0 -3 5 -12 7 -20
3 -12 -4 -15 -27 -17 -97 l-2 -91 -3 90 c-4 88 -12 109 -40 98 -10 -4 -14 -35
-15 -122 l-2 -116 -3 115 c-2 63 -8 119 -12 123 -5 5 -18 4 -29 -2 -13 -7 -23
-7 -27 -1 -3 5 -12 7 -20 3 -13 -4 -15 -46 -17 -257 l-3 -251 -2 250 c-3 251
-6 271 -40 258 -10 -4 -13 -56 -15 -247 l-3 -241 -2 240 c-3 233 -9 273 -35
247 -7 -7 -17 -8 -28 -2 -35 19 -39 -1 -43 -190 l-2 -185 -3 186 c-1 145 -5
188 -15 192 -32 12 -37 -9 -40 -193 l-2 -185 -3 187 c-2 184 -7 213 -35 189
-7 -6 -18 -6 -26 -1 -38 23 -41 6 -43 -249 l-3 -246 -2 245 c-3 245 -7 266
-40 253 -10 -4 -13 -62 -13 -297 0 -160 3 -301 6 -313 4 -14 14 -23 25 -23 15
0 19 8 21 38 l1 37 4 -37 4 -38 80 1 c66 1 79 4 80 17 1 15 2 15 6 0 3 -14 15
-18 54 -18 l49 0 2 43 1 42 4 -40 c3 -22 10 -43 16 -47 7 -4 -67 -8 -163 -8
-124 0 -180 4 -188 12 -9 9 -12 94 -12 319 0 304 -4 339 -32 311 -7 -7 -17 -8
-28 -2 -39 21 -41 6 -38 -323 l3 -317 -227 0 c-270 0 -239 2 -261 -17 -9 -9
-20 -13 -24 -10 -3 4 -1 7 5 7 7 0 12 11 12 25 0 18 -5 25 -20 25 -15 0 -20
-7 -20 -28 0 -19 -5 -29 -15 -29 -11 0 -12 4 -4 14 16 18 3 43 -22 43 -18 0
-21 -5 -17 -28 3 -23 0 -28 -17 -29 -11 -1 -14 1 -7 4 14 6 16 35 2 49 -6 6
15 10 56 11 52 1 66 -2 71 -15 16 -40 22 41 22 319 1 255 -1 298 -14 303 -17
6 -20 37 -5 52 6 6 262 10 715 9 l705 0 32 -33z m2286 15 c2 -10 -3 -26 -12
-36 -11 -12 -16 -44 -19 -121 l-3 -105 -2 106 c-1 81 -6 110 -17 119 -18 15
-19 32 -3 48 18 18 52 11 56 -11z m226 1 c8 -13 6 -21 -7 -36 -14 -16 -17 -41
-17 -160 0 -129 6 -162 25 -132 3 6 17 10 31 10 13 0 24 -4 24 -10 0 -14 36
-12 60 2 16 10 24 10 40 0 24 -14 70 -16 70 -2 0 6 11 10 24 10 14 0 28 -4 31
-10 10 -15 46 -12 66 6 17 15 20 15 44 0 l25 -16 0 141 c0 120 -3 145 -17 161
-22 24 -6 53 28 53 29 0 38 -35 14 -55 -12 -10 -15 -39 -15 -156 0 -79 2 -144
5 -144 3 0 14 6 25 12 16 10 24 10 40 0 27 -16 58 -15 76 3 9 8 19 15 24 15 5
0 15 -7 24 -15 8 -8 17 -15 20 -15 3 0 6 65 6 144 0 121 -2 145 -16 150 -10 4
-14 15 -12 33 2 22 8 28 27 28 34 0 50 -29 28 -53 -14 -16 -17 -41 -17 -160 0
-129 6 -162 25 -132 3 6 17 10 31 10 13 0 24 -4 24 -10 0 -14 36 -12 60 2 16
10 24 10 40 0 25 -15 55 -15 80 0 16 10 24 10 40 0 11 -6 27 -12 35 -12 8 0
24 6 35 12 16 10 24 10 40 0 11 -6 22 -12 25 -12 3 0 5 64 5 142 0 119 -3 144
-17 160 -22 24 -6 53 28 53 29 0 40 -43 15 -57 -13 -8 -16 -32 -16 -153 0 -80
3 -145 6 -145 3 0 12 7 20 15 9 8 22 15 30 15 8 0 17 -7 20 -15 7 -18 47 -20
74 -3 16 10 24 10 40 0 11 -6 22 -12 25 -12 3 0 5 65 5 144 0 121 -2 145 -16
150 -24 9 -14 60 12 64 11 2 27 -4 34 -12 10 -13 9 -20 -4 -41 -13 -19 -16
-52 -16 -165 l0 -140 25 16 c24 15 27 15 44 0 21 -19 44 -20 71 -4 16 10 24
10 40 0 24 -14 70 -16 70 -2 0 6 11 10 24 10 14 0 28 -4 31 -10 3 -5 17 -10
31 -10 13 0 24 5 24 10 0 6 11 10 24 10 14 0 28 -4 31 -10 19 -30 25 3 25 132
0 119 -3 144 -17 160 -22 24 -6 53 28 53 19 0 25 -6 27 -28 2 -18 -2 -29 -12
-33 -14 -5 -16 -29 -16 -150 0 -79 2 -144 5 -144 3 0 14 6 25 12 16 10 24 10
40 0 25 -15 55 -15 80 0 16 10 24 10 41 -1 18 -11 23 -11 30 1 7 11 9 11 9 -1
0 -10 3 -11 14 -2 11 9 12 6 8 -14 -3 -19 1 -27 19 -34 16 -6 18 -10 8 -10 -9
-1 -22 6 -29 14 -16 19 -44 19 -60 0 -16 -19 -34 -19 -50 0 -18 21 -30 19 -31
-7 l-2 -23 -4 22 c-4 21 -6 22 -27 8 -23 -15 -56 -11 -56 6 0 15 -42 10 -61
-7 -17 -15 -20 -15 -44 0 l-25 16 0 -140 c0 -110 3 -146 15 -164 14 -22 14
-25 0 -40 -20 -20 -29 -20 -49 0 -12 12 -13 20 -6 35 6 10 15 19 20 19 6 0 10
59 10 145 0 90 -4 145 -10 145 -5 0 -10 -4 -10 -9 0 -19 -41 -23 -59 -7 -22
20 -48 20 -67 1 -9 -8 -19 -15 -24 -15 -5 0 -15 7 -24 15 -8 8 -17 15 -20 15
-3 0 -6 -65 -6 -144 0 -119 3 -145 15 -150 20 -7 19 -52 -1 -60 -25 -10 -33
-7 -44 15 -9 16 -8 24 4 38 13 14 16 44 16 159 0 129 -6 162 -25 132 -3 -5
-17 -10 -31 -10 -13 0 -24 5 -24 10 0 15 -40 12 -56 -5 -9 -8 -19 -15 -24 -15
-5 0 -15 7 -24 15 -18 18 -49 19 -76 3 -16 -10 -24 -10 -40 0 -26 16 -50 15
-70 -3 -17 -15 -50 -11 -50 6 0 5 -4 9 -10 9 -6 0 -10 -54 -10 -142 0 -115 3
-145 16 -159 12 -14 13 -22 4 -38 -11 -22 -19 -25 -44 -15 -20 8 -21 53 -1 60
12 5 15 31 15 150 0 79 -3 144 -6 144 -3 0 -12 -7 -20 -15 -9 -8 -19 -15 -24
-15 -5 0 -15 7 -24 15 -8 8 -24 15 -36 15 -12 0 -28 -7 -36 -15 -9 -8 -19 -15
-24 -15 -5 0 -15 7 -24 15 -8 8 -17 15 -20 15 -3 0 -6 -65 -6 -144 0 -119 3
-145 15 -150 20 -7 19 -52 -1 -60 -25 -10 -33 -7 -44 15 -9 16 -8 24 4 38 13
14 16 44 16 161 0 138 -1 143 -18 127 -23 -21 -36 -21 -52 -2 -15 18 -43 19
-70 3 -16 -10 -24 -10 -40 0 -27 16 -58 15 -76 -3 -9 -8 -19 -15 -24 -15 -5 0
-15 7 -24 15 -16 17 -56 20 -56 5 0 -5 -11 -10 -24 -10 -14 0 -28 5 -31 10
-19 30 -25 -2 -25 -131 0 -113 3 -143 15 -156 31 -30 -7 -81 -39 -54 -20 17
-21 50 -1 57 12 5 15 31 15 150 0 79 -3 144 -7 144 -3 0 -15 -8 -25 -17 -16
-14 -22 -15 -36 -5 -33 23 -44 25 -72 8 -27 -16 -60 -13 -60 5 0 5 -4 9 -10 9
-6 0 -10 -55 -10 -144 0 -119 3 -145 15 -150 20 -7 19 -40 -1 -57 -11 -9 -20
-10 -32 -2 -23 14 -28 52 -8 59 14 5 16 29 16 152 0 140 -1 145 -18 129 -23
-21 -36 -21 -52 -2 -7 8 -23 15 -35 15 -12 0 -28 -7 -35 -15 -16 -19 -29 -19
-52 2 -17 16 -18 11 -18 -127 0 -118 3 -147 16 -161 29 -32 -9 -76 -41 -49
-19 16 -19 49 0 56 12 5 15 31 15 150 0 79 -4 144 -9 144 -5 0 -14 -7 -21 -15
-7 -8 -18 -15 -25 -15 -7 0 -18 7 -25 15 -7 8 -20 15 -30 15 -10 0 -23 -7 -30
-15 -7 -8 -20 -15 -29 -14 -11 0 -9 3 7 9 12 5 22 16 22 25 0 14 11 19 37 16
6 -1 14 3 18 9 8 13 55 13 55 0 0 -5 11 -10 24 -10 14 0 28 5 31 10 3 6 17 10
30 10 13 0 27 -4 30 -10 19 -30 25 3 25 135 0 120 -3 147 -15 151 -15 6 -21
45 -8 58 12 11 45 2 57 -16z m230 0 c16 -26 -19 -61 -45 -45 -19 12 -26 47
-12 61 12 11 45 2 57 -16z m677 6 c17 -21 0 -49 -32 -49 -24 0 -36 23 -25 51
7 19 40 18 57 -2z m677 -12 c2 -14 -4 -29 -15 -37 -15 -11 -21 -11 -35 2 -21
19 -23 34 -6 51 20 20 53 10 56 -16z m456 6 c8 -13 6 -21 -7 -35 -13 -15 -17
-44 -20 -148 l-3 -130 -2 133 c-2 107 -5 134 -17 138 -15 6 -21 45 -8 58 12
11 45 2 57 -16z m-6356 -15 l-28 -4 0 -330 0 -329 39 0 c21 0 44 6 50 14 8 9
33 14 77 13 36 0 60 -3 55 -6 -5 -4 -8 -18 -7 -32 2 -19 -2 -25 -18 -26 -12
-1 -15 1 -8 4 6 3 12 16 12 29 0 18 -5 24 -21 24 -18 0 -21 -5 -17 -28 3 -21
0 -28 -13 -28 -13 0 -15 4 -7 13 15 18 2 43 -22 43 -26 0 -36 -25 -19 -48 13
-16 12 -16 -7 1 -11 9 -37 17 -57 17 l-37 0 0 -65 0 -65 195 0 195 0 0 30 c0
17 5 30 10 30 6 0 10 -13 10 -30 l0 -30 188 -3 c103 -1 6 -3 -215 -5 l-403 -2
0 410 0 410 38 -1 c30 -2 32 -3 10 -6z m3660 0 l-28 -4 0 -160 0 -159 54 0
c30 0 58 5 61 10 3 6 12 10 18 10 8 0 8 -3 -1 -9 -21 -13 -10 -46 17 -49 21
-3 23 -1 19 27 -3 20 0 31 7 31 7 0 12 -12 11 -27 -1 -22 4 -28 19 -28 15 0
20 7 20 27 -1 18 5 28 18 32 13 3 15 1 9 -7 -15 -21 -12 -56 6 -59 9 -2 -16
-4 -55 -5 -50 0 -76 4 -84 13 -7 9 -32 14 -65 14 l-54 0 0 -160 0 -160 28 -1
27 -2 -27 -4 c-27 -4 -28 -6 -28 -69 l0 -64 210 0 210 0 0 30 c0 17 5 30 10
30 6 0 10 -14 10 -30 l0 -30 272 2 273 3 6 30 7 30 1 -32 1 -33 275 0 275 0 0
30 c0 17 5 30 10 30 6 0 10 -13 10 -30 l0 -30 275 0 275 0 1 33 1 32 7 -30 6
-30 273 -3 272 -2 0 30 c0 16 5 30 10 30 6 0 10 -13 10 -30 l0 -30 210 0 c199
0 210 1 201 18 -9 16 -5 16 55 -3 l64 -20 -42 -12 c-24 -6 -54 -15 -68 -19
-22 -7 -24 -6 -11 9 13 16 -90 17 -1558 17 l-1571 0 0 410 0 410 38 -1 c30 -2
32 -3 10 -6z m-7504 -272 c38 -42 25 -132 -21 -139 -48 -7 -73 98 -33 138 25
25 32 25 54 1z m7376 -1 c38 -38 17 -140 -29 -140 -26 0 -42 23 -48 67 -4 29
0 44 17 66 26 32 34 33 60 7z m527 -12 c-3 -7 -5 -2 -5 12 0 14 2 19 5 13 2
-7 2 -19 0 -25z m-132 -45 c-4 -35 -12 -38 -17 -5 -2 18 0 29 8 29 7 0 11 -11
9 -24z m57 -2 c-5 -28 -19 -41 -42 -40 -8 0 -4 5 9 10 17 7 22 15 19 32 -3 14
0 24 7 24 7 0 10 -10 7 -26z m2430 2 c-3 -17 2 -25 19 -32 13 -5 17 -10 9 -10
-8 0 -20 3 -26 7 -16 10 -23 59 -9 59 7 0 10 -10 7 -24z m68 23 c0 -11 -19
-15 -25 -6 -3 5 1 10 9 10 9 0 16 -2 16 -4z m42 -21 c-3 -19 1 -27 19 -34 20
-7 16 -8 -21 -8 -25 0 -37 2 -27 5 11 2 17 13 17 33 0 16 4 29 9 29 4 0 6 -11
3 -25z m71 18 c-21 -8 -15 -43 10 -53 12 -5 15 -9 7 -9 -23 -1 -37 12 -42 40
-4 20 0 25 16 26 12 1 15 -1 9 -4z m74 -13 c13 0 23 -4 23 -10 0 -5 -11 -10
-24 -10 -13 0 -26 -6 -29 -12 -2 -7 -6 2 -9 20 -3 22 -1 29 6 22 5 -5 20 -10
33 -10z m-10787 -10 c0 -5 -4 -10 -10 -10 -5 0 -10 5 -10 10 0 6 5 10 10 10 6
0 10 -4 10 -10z m60 0 c0 -5 -4 -10 -10 -10 -5 0 -10 5 -10 10 0 6 5 10 10 10
6 0 10 -4 10 -10z m70 0 c0 -5 -4 -10 -10 -10 -5 0 -10 5 -10 10 0 6 5 10 10
10 6 0 10 -4 10 -10z m3435 0 c-3 -5 -10 -10 -16 -10 -5 0 -9 5 -9 10 0 6 7
10 16 10 8 0 12 -4 9 -10z m65 0 c0 -5 -7 -10 -15 -10 -8 0 -15 5 -15 10 0 6
7 10 15 10 8 0 15 -4 15 -10z m60 0 c0 -5 -4 -10 -10 -10 -5 0 -10 5 -10 10 0
6 5 10 10 10 6 0 10 -4 10 -10z m6637 -82 c-3 -8 -6 -5 -6 6 -1 11 2 17 5 13
3 -3 4 -12 1 -19z m-9610 -230 c28 -31 -10 -75 -42 -48 -19 16 -19 49 0 56 12
5 15 29 17 113 l2 106 3 -105 c3 -78 8 -109 20 -122z m9628 9 c23 -12 19 -54
-5 -62 -40 -13 -64 29 -35 59 11 11 16 41 17 113 l2 98 3 -100 c3 -74 7 -102
18 -108z m-5118 71 c-2 -18 -4 -4 -4 32 0 36 2 50 4 33 2 -18 2 -48 0 -65z
m60 25 c-2 -16 -4 -5 -4 22 0 28 2 40 4 28 2 -13 2 -35 0 -50z m-1303 -62 c38
-42 25 -132 -21 -139 -48 -7 -73 98 -33 138 25 25 32 25 54 1z m-3705 -55 c-1
-35 2 -69 5 -75 5 -7 -3 -11 -21 -11 -20 0 -24 3 -14 9 10 6 12 26 9 75 -3 50
-1 66 9 66 10 0 13 -17 12 -64z m7353 -11 c2 -62 0 -75 -12 -75 -12 0 -15 15
-15 75 0 51 4 75 12 75 7 0 13 -26 15 -75z m-6002 -1 c0 -23 -21 -37 -44 -28
-23 9 -27 34 -9 58 16 20 19 21 35 7 10 -9 18 -25 18 -37z m-692 34 c15 -15
16 -54 2 -63 -14 -9 -47 3 -53 19 -6 14 18 56 32 56 4 0 12 -5 19 -12z m466
-14 c7 -17 -10 -54 -24 -54 -24 0 -40 14 -40 36 0 39 50 53 64 18z m683 -10
c2 -6 -3 -18 -10 -28 -18 -25 -57 -13 -57 18 0 34 20 49 44 33 11 -8 21 -18
23 -23z m667 17 c26 -29 -1 -69 -38 -55 -22 9 -26 30 -10 53 18 26 26 26 48 2z
m6252 -13 c8 -27 -17 -52 -45 -43 -26 8 -29 50 -4 63 22 13 41 5 49 -20z m674
-13 c0 -28 -33 -43 -55 -25 -19 16 -19 29 1 51 22 24 54 8 54 -26z m-9507 -2
c-18 -2 -48 -2 -65 0 -18 2 -4 4 32 4 36 0 50 -2 33 -4z m7355 0 c-15 -2 -42
-2 -60 0 -18 2 -6 4 27 4 33 0 48 -2 33 -4z m-2471 -120 c-3 -10 -5 -2 -5 17
0 19 2 27 5 18 2 -10 2 -26 0 -35z m849 -13 l274 0 0 30 c0 17 5 30 10 30 6 0
10 -13 10 -30 l0 -30 275 0 275 0 1 33 1 32 7 -30 6 -30 209 -3 c187 -2 208
-1 202 14 -4 10 -1 14 7 12 6 -2 34 -10 61 -17 l49 -14 -59 -18 c-71 -23 -67
-22 -60 -4 5 13 -108 15 -972 17 -537 1 -889 5 -782 8 l195 5 5 30 4 30 4 -32
3 -33 275 0z m-2210 18 c-1 -13 -8 -36 -15 -53 -17 -38 -27 -16 -12 26 6 17 8
35 5 40 -3 5 2 9 10 9 9 0 14 -8 12 -22z m60 0 c-4 -13 -9 -35 -12 -50 -4 -16
-11 -28 -16 -28 -9 0 -7 23 8 72 4 14 1 16 -12 11 -12 -4 -15 -3 -10 5 4 7 16
12 28 12 16 0 19 -4 14 -22z m3627 5 c-6 -17 -5 -17 14 0 33 29 47 22 39 -20
-4 -21 -8 -44 -8 -50 -1 -7 -7 -13 -14 -13 -9 0 -10 8 -3 32 5 18 9 39 9 47 0
21 -35 -14 -50 -50 -19 -45 -28 -34 -16 21 6 28 15 50 23 50 8 0 10 -7 6 -17z
m3687 0 c0 -15 1 -15 18 0 21 20 42 22 42 6 0 -24 -24 -89 -32 -89 -5 0 -7 8
-4 18 3 9 8 31 11 47 l7 30 -31 -33 c-17 -18 -31 -39 -31 -47 0 -8 -5 -15 -11
-15 -7 0 -9 9 -3 28 4 15 8 37 8 50 1 25 26 31 26 5z m-6057 -30 c-18 -2 -48
-2 -65 0 -18 2 -4 4 32 4 36 0 50 -2 33 -4z m-4232 -63 c28 -16 23 -54 -13
-96 l-32 -37 37 5 c23 2 36 0 34 -6 -2 -6 -25 -12 -52 -14 l-48 -3 36 40 c39
43 49 87 22 97 -8 4 -22 1 -30 -6 -10 -8 -15 -9 -15 -2 0 6 8 16 18 21 21 13
20 13 43 1z m129 -12 c37 -40 17 -138 -29 -138 -26 0 -42 23 -48 67 -4 29 0
44 17 66 26 33 33 33 60 5z m2124 6 c24 -23 20 -45 -16 -88 l-32 -39 36 5 c26
3 34 0 31 -9 -3 -8 -23 -13 -50 -13 l-45 0 36 40 c20 22 36 48 36 59 0 25 -23
43 -46 35 -18 -5 -18 -5 0 10 25 20 31 20 50 0z m126 -15 c13 -23 13 -85 0
-110 -15 -26 -56 -25 -71 3 -6 12 -12 40 -12 62 0 64 57 95 83 45z m1314 15
c24 -23 20 -45 -16 -88 l-32 -39 36 5 c26 3 34 0 31 -9 -3 -8 -23 -13 -50 -13
l-45 0 36 40 c20 22 36 48 36 59 0 25 -23 43 -46 35 -18 -5 -18 -5 0 10 25 20
31 20 50 0z m80 -9 c-12 -18 -15 -39 -11 -71 5 -52 10 -59 32 -50 14 5 16 18
13 70 -2 50 0 62 9 54 37 -30 19 -130 -24 -136 -48 -7 -73 98 -33 138 27 27
34 25 14 -5z m1096 5 c38 -38 17 -140 -29 -140 -26 0 -42 23 -48 67 -4 29 0
44 17 66 26 32 34 33 60 7z m1061 10 c28 -16 23 -54 -13 -96 l-32 -37 37 5
c23 2 36 0 34 -6 -2 -6 -25 -12 -52 -14 l-48 -3 36 40 c39 43 49 87 22 97 -8
4 -22 1 -30 -6 -10 -8 -15 -9 -15 -2 0 6 8 16 18 21 21 13 20 13 43 1z m129
-10 c38 -38 17 -140 -29 -140 -26 0 -42 23 -48 67 -4 29 0 44 17 66 26 32 34
33 60 7z m1318 4 c29 -20 28 -33 -8 -82 l-30 -42 30 0 c16 0 30 -4 30 -10 0
-5 -20 -10 -45 -10 l-46 0 30 38 c38 49 46 76 25 92 -12 11 -20 11 -35 2 -23
-15 -25 -9 -3 12 19 20 24 20 52 0z m132 -15 c14 -26 12 -92 -3 -113 -22 -29
-60 -17 -73 24 -26 79 40 156 76 89z m1004 6 c-12 -18 -15 -39 -11 -71 5 -52
10 -59 32 -50 14 5 16 18 13 70 -2 50 0 62 9 54 37 -30 19 -130 -24 -136 -48
-7 -73 98 -33 138 27 27 34 25 14 -5z m1110 9 c24 -23 20 -45 -16 -88 l-32
-39 36 5 c26 3 34 0 31 -9 -3 -8 -23 -13 -50 -13 l-45 0 36 42 c20 23 36 49
36 59 0 23 -24 41 -46 33 -18 -5 -18 -5 0 10 25 20 31 20 50 0z m80 -9 c-12
-18 -15 -39 -11 -71 5 -52 10 -59 32 -50 14 5 16 18 13 70 -2 50 0 62 9 54 37
-30 19 -130 -24 -136 -48 -7 -73 98 -33 138 27 27 34 25 14 -5z m-9811 -62
c-18 -2 -48 -2 -65 0 -18 2 -4 4 32 4 36 0 50 -2 33 -4z m3690 0 c-18 -2 -48
-2 -65 0 -18 2 -4 4 32 4 36 0 50 -2 33 -4z m3685 0 c-15 -2 -42 -2 -60 0 -18
2 -6 4 27 4 33 0 48 -2 33 -4z m1153 -185 c11 -21 11 -22 -4 -10 -9 8 -21 11
-27 7 -11 -7 -14 8 -3 18 12 12 22 7 34 -15z m-3290 -105 c13 -41 0 -102 -28
-124 -15 -13 -15 -12 -4 9 19 35 16 128 -5 160 l-17 27 21 -19 c12 -10 26 -34
33 -53z m3630 0 c13 -41 0 -102 -28 -124 -15 -13 -15 -12 -4 9 19 35 16 128
-5 160 l-17 27 21 -19 c12 -10 26 -34 33 -53z m-7754 36 c3 -34 13 -36 38 -6
13 15 29 27 34 27 6 0 -6 -15 -26 -34 l-37 -34 16 -41 c15 -38 15 -41 -1 -41
-11 0 -17 9 -19 27 -1 14 -4 29 -7 31 -8 8 -45 -29 -45 -45 0 -7 -9 -13 -20
-13 -16 0 -13 7 20 36 31 28 39 42 34 58 -3 11 -8 29 -10 39 -3 10 0 17 8 17
8 0 14 -10 15 -21z m384 -36 c13 -41 0 -102 -28 -124 -15 -13 -15 -12 -5 8 7
12 12 47 12 78 0 31 -5 66 -12 78 -10 20 -10 21 5 9 9 -8 21 -30 28 -49z
m3218 25 c-18 -65 -11 -76 20 -29 17 25 28 48 25 53 -3 4 2 8 10 8 13 0 14 -9
9 -47 -6 -46 -5 -47 12 -33 18 14 18 13 -1 -18 -33 -58 -42 -58 -37 0 l5 53
-27 -40 c-45 -65 -47 -65 -43 12 2 60 6 73 20 73 14 0 15 -5 7 -32z m119 2
c-26 -35 -34 -39 -16 -7 7 12 11 25 10 30 -1 4 5 7 13 7 13 0 11 -6 -7 -30z
m153 16 c-20 -24 -24 -99 -7 -139 18 -44 3 -40 -20 5 -19 38 -14 101 12 129
19 21 33 26 15 5z m3499 -5 c0 -31 17 -33 38 -6 11 14 25 25 30 25 6 0 -4 -16
-22 -37 -31 -33 -33 -39 -23 -67 6 -17 15 -34 21 -38 6 -4 -2 -8 -17 -8 -16 0
-26 4 -23 9 4 5 2 19 -2 31 -8 22 -9 22 -34 -9 -15 -17 -34 -31 -42 -31 -9 0
1 16 26 39 41 38 42 40 31 75 -9 30 -9 36 3 36 8 0 14 -9 14 -19z m131 5 c-20
-24 -24 -99 -7 -139 18 -44 3 -40 -20 5 -19 38 -14 101 12 129 19 21 33 26 15
5z m-7381 -15 c-15 -30 -12 -113 6 -141 14 -22 12 -22 -10 3 -31 33 -36 99
-10 135 19 27 28 29 14 3z m178 -23 c29 -29 -1 -98 -43 -98 -13 0 -26 4 -29 8
-8 13 9 65 22 70 9 3 9 -4 1 -28 -12 -34 -8 -45 15 -37 21 8 32 56 17 79 -13
20 -2 25 17 6z m3664 -8 c-22 -21 -39 -66 -29 -77 13 -12 34 7 40 36 4 17 12
31 18 31 7 0 8 -7 4 -17 -17 -41 -17 -53 -2 -53 22 0 40 36 35 70 -3 19 0 26
8 23 18 -7 25 -30 15 -56 -14 -36 -32 -45 -86 -44 -46 2 -50 4 -53 28 -2 19 5
33 28 53 37 31 54 35 22 6z m3630 0 c-22 -21 -39 -66 -29 -77 13 -12 34 7 40
36 4 17 12 31 18 31 7 0 8 -7 4 -17 -17 -41 -17 -53 -2 -53 24 0 39 27 35 64
-3 23 0 32 8 29 18 -7 25 -30 15 -56 -14 -36 -32 -45 -86 -44 -46 2 -50 4 -53
28 -2 19 5 33 28 53 37 31 54 35 22 6z m-7386 -12 c-19 -27 -21 -64 -3 -71 6
-3 2 -6 -10 -6 -22 -1 -27 8 -23 39 2 22 29 60 41 60 5 0 3 -10 -5 -22z m3559
-78 c25 -56 14 -60 -13 -5 -12 25 -18 45 -13 45 4 0 16 -18 26 -40z m-1545
-45 c0 -25 -4 -45 -10 -45 -5 0 -10 12 -10 26 l0 27 -20 -26 c-11 -14 -20 -28
-20 -31 0 -3 9 -6 20 -6 11 0 20 -4 20 -10 0 -5 -13 -10 -30 -10 -16 0 -30 3
-30 7 0 7 71 113 77 113 1 0 3 -20 3 -45z m3684 9 c24 -23 20 -45 -16 -88
l-32 -39 36 5 c26 3 34 0 31 -9 -3 -8 -23 -13 -50 -13 l-45 0 36 42 c20 23 36
49 36 59 0 23 -24 41 -46 33 -18 -5 -18 -5 0 10 25 20 31 20 50 0z m120 -3
c38 -42 25 -132 -21 -139 -48 -7 -73 98 -33 138 25 25 32 25 54 1z m-3664 -39
c0 -21 -7 -47 -16 -58 -15 -18 -15 -18 -10 6 3 14 6 40 6 58 0 17 5 32 10 32
6 0 10 -17 10 -38z m-3686 -32 c-27 -11 -51 -70 -28 -70 8 0 12 -4 9 -10 -3
-5 -13 -10 -22 -10 -16 0 -15 28 2 73 15 38 -16 15 -37 -28 -12 -25 -26 -45
-30 -45 -13 0 -9 10 12 37 22 28 27 59 8 47 -7 -4 -8 -3 -4 4 4 7 30 12 59 11
39 0 47 -2 31 -9z m5185 -68 c16 -109 20 -148 31 -317 6 -88 13 -182 17 -208
5 -44 8 -48 31 -45 18 2 27 12 36 38 7 24 17 35 30 35 13 0 23 -11 31 -35 15
-46 47 -52 82 -14 l26 28 23 -27 c26 -30 78 -37 88 -12 7 19 40 19 56 0 14
-17 80 -21 80 -5 0 6 11 10 24 10 14 0 28 -4 31 -10 9 -14 71 -12 95 2 16 10
24 10 40 0 24 -15 65 -16 92 -1 15 8 26 8 43 -1 14 -8 38 -10 62 -6 21 4 46 6
56 6 17 -1 234 -3 272 -3 127 1 155 -1 152 -10 -2 -6 -20 -16 -42 -24 -30 -10
-45 -11 -72 -1 -26 9 -40 9 -68 -1 -28 -10 -42 -10 -69 0 -28 10 -43 10 -76
-1 -31 -10 -43 -11 -52 -2 -15 15 -60 15 -93 0 -21 -9 -31 -9 -46 0 -23 15
-75 16 -84 2 -8 -13 -52 -13 -60 0 -10 16 -67 12 -86 -6 -17 -15 -20 -15 -43
0 -32 20 -70 21 -86 1 -16 -19 -44 -19 -60 0 -18 22 -63 19 -78 -5 -16 -26
-48 -26 -62 0 -17 31 -57 26 -75 -11 -19 -37 -44 -35 -63 4 -9 18 -21 27 -37
27 -21 0 -25 -7 -36 -59 -6 -32 -15 -64 -19 -71 -15 -25 -37 -2 -44 47 -12 84
-11 83 -75 83 l-57 0 -11 -66 c-6 -36 -14 -68 -17 -71 -16 -16 -35 13 -47 71
-12 61 -15 66 -38 66 -19 0 -30 -9 -41 -33 -19 -40 -29 -39 -55 1 -24 37 -63
43 -83 12 -7 -11 -19 -20 -27 -20 -8 0 -20 9 -27 20 -13 21 -78 29 -78 11 0
-19 -41 -23 -59 -7 -22 20 -60 20 -89 0 -21 -14 -25 -14 -49 1 -17 12 -35 15
-57 10 -17 -3 -43 -6 -58 -6 -16 1 -46 1 -68 1 -22 0 -53 0 -70 0 -16 0 -48 0
-70 1 -74 0 -90 0 -135 0 -25 0 -55 -1 -67 -1 -13 -1 -38 2 -56 6 -21 4 -43 2
-58 -6 -18 -10 -30 -11 -49 -2 -14 7 -28 12 -30 12 -3 0 -5 -47 -5 -105 l0
-105 345 0 345 0 1 33 1 32 7 -30 6 -30 348 -3 347 -2 2 32 1 33 4 -32 4 -33
345 0 344 0 0 30 c0 17 5 30 10 30 6 0 10 -13 10 -30 l0 -30 345 0 345 0 0 30
c0 17 5 30 10 30 6 0 10 -13 10 -30 l0 -30 66 0 c56 0 65 2 60 16 -4 10 -1 14
7 12 6 -2 34 -10 61 -17 l49 -14 -59 -18 c-71 -23 -67 -22 -60 -4 5 13 -164
15 -1484 15 l-1490 0 0 331 c0 217 3 328 10 324 6 -4 10 -83 10 -205 0 -181 2
-199 18 -204 9 -2 67 -3 127 -1 61 2 116 4 123 4 22 -1 112 0 130 1 9 0 34 -2
55 -6 22 -4 50 -1 68 6 23 10 33 10 42 1 15 -15 72 -14 97 1 16 10 24 10 40 0
24 -14 76 -16 85 -2 3 6 17 10 30 10 13 0 27 -4 30 -10 10 -15 71 -12 85 5 16
19 34 19 50 0 20 -24 64 -18 90 12 l23 27 23 -27 c35 -41 67 -36 87 13 8 22
22 40 30 40 14 0 37 -40 37 -65 0 -10 10 -15 30 -15 23 0 30 5 30 19 0 50 31
436 41 511 19 140 40 155 58 42z m2979 -4 c14 -96 20 -153 32 -333 15 -221 18
-235 45 -235 17 0 24 9 34 40 7 24 18 40 27 40 9 0 22 -17 31 -40 13 -33 21
-40 43 -40 19 0 30 7 38 25 6 14 19 25 27 25 8 0 21 -11 27 -25 14 -32 53 -33
85 -3 l23 21 23 -21 c27 -25 69 -29 87 -7 16 19 34 19 50 0 7 -8 27 -15 45
-15 20 0 35 6 39 15 3 8 12 15 20 15 8 0 21 -7 30 -15 8 -8 28 -15 44 -15 16
0 35 7 42 15 7 8 18 15 25 15 7 0 18 -7 25 -15 18 -22 60 -18 87 7 l23 21 23
-21 c23 -22 77 -31 77 -13 0 17 30 40 45 35 8 -3 17 -14 20 -25 4 -13 16 -19
35 -19 25 0 31 5 41 40 8 27 18 40 30 40 13 0 22 -13 30 -40 10 -31 17 -40 35
-40 26 0 28 9 45 245 22 302 42 426 65 403 14 -15 64 -504 64 -629 0 -16 5
-20 26 -17 20 2 29 11 38 38 7 24 17 35 30 35 13 0 23 -11 31 -35 16 -47 49
-52 81 -13 l24 28 23 -27 c27 -33 59 -36 88 -7 l21 21 22 -21 c26 -25 68 -27
86 -6 16 19 49 19 56 0 4 -9 19 -15 39 -15 18 0 38 7 45 15 14 17 40 20 40 5
0 -5 -4 -10 -10 -10 -5 0 -7 -7 -4 -15 4 -9 0 -15 -9 -15 -8 0 -20 -7 -27 -15
-16 -19 -44 -19 -60 0 -18 21 -62 19 -83 -5 -21 -25 -29 -25 -52 0 -23 26 -61
26 -77 0 -16 -26 -44 -26 -58 0 -7 13 -21 20 -38 20 -21 0 -30 -7 -39 -30 -7
-19 -18 -30 -31 -30 -13 0 -24 10 -31 30 -7 22 -16 30 -35 30 -20 0 -26 -6
-31 -32 -16 -79 -27 -108 -39 -108 -18 0 -24 18 -32 86 l-7 54 -58 0 c-64 0
-59 7 -74 -98 -10 -66 -36 -53 -56 28 -14 56 -19 65 -40 68 -19 2 -27 -4 -36
-28 -15 -39 -42 -37 -61 3 -16 33 -56 37 -72 7 -14 -26 -46 -26 -62 0 -16 26
-59 26 -81 0 -21 -25 -29 -25 -52 0 -21 24 -58 26 -75 5 -16 -19 -44 -19 -60
0 -16 19 -64 19 -80 0 -16 -19 -44 -19 -60 0 -17 21 -54 19 -75 -5 -23 -25
-31 -25 -52 0 -22 26 -65 26 -81 0 -7 -11 -20 -20 -30 -20 -9 0 -23 9 -30 20
-18 30 -54 25 -74 -10 -22 -38 -47 -38 -61 0 -9 24 -17 30 -36 28 -21 -3 -26
-12 -40 -68 -21 -84 -45 -94 -56 -23 -13 96 -11 93 -75 93 l-58 0 -7 -66 c-4
-44 -12 -67 -22 -71 -20 -8 -29 8 -42 78 -11 53 -14 59 -37 59 -19 0 -28 -7
-35 -30 -15 -40 -47 -40 -62 0 -14 36 -55 42 -75 10 -7 -11 -20 -20 -30 -20
-9 0 -23 9 -30 20 -16 25 -47 26 -79 0 -19 -15 -30 -17 -44 -9 -10 5 -19 14
-19 19 0 16 -56 11 -70 -5 -16 -19 -49 -19 -56 0 -4 8 -13 15 -20 15 -12 0
-14 -19 -12 -103 l3 -102 345 0 345 0 6 30 7 30 1 -32 1 -33 345 0 345 0 0 30
c0 17 5 30 10 30 6 0 10 -13 10 -30 l0 -30 345 0 345 0 0 30 c0 17 5 30 10 30
6 0 10 -13 10 -30 l0 -30 345 0 345 0 2 33 1 32 4 -32 4 -33 70 0 c64 0 69 2
60 18 -9 16 -5 16 55 -3 l64 -20 -42 -12 c-24 -6 -54 -15 -68 -19 -22 -7 -24
-6 -11 9 13 16 -85 17 -1477 17 l-1491 0 -3 133 c-2 72 -1 265 2 427 l5 295
35 -6 35 -6 -32 -2 -33 -1 0 -282 c0 -248 2 -284 17 -300 20 -22 78 -24 87 -3
7 19 40 19 56 0 18 -21 60 -19 86 6 l22 21 18 -21 c26 -29 64 -27 91 7 l23 27
23 -27 c14 -18 33 -28 49 -28 20 0 27 6 31 28 14 63 50 69 65 10 6 -26 14 -34
35 -36 22 -3 27 1 27 20 0 47 30 416 41 503 18 146 39 162 57 43z m-8065 65
l-33 -4 0 -320 0 -319 345 0 345 0 0 270 c0 235 -2 269 -15 264 -8 -4 -15 -3
-15 0 0 14 33 86 39 86 8 0 41 -65 41 -81 0 -6 -7 -9 -15 -5 -13 5 -15 -29
-15 -264 l0 -270 700 0 700 0 0 271 c0 264 0 270 -20 264 -19 -6 -19 -5 2 45
23 56 24 55 54 -16 14 -35 14 -35 -6 -29 -20 6 -20 4 -20 -264 l0 -271 355 0
c230 0 355 -4 355 -10 0 -7 -478 -10 -1415 -10 l-1415 0 0 -100 0 -100 345 0
345 0 0 30 c0 17 5 30 10 30 6 0 10 -13 10 -30 l0 -30 345 0 345 0 0 30 c0 17
5 30 10 30 6 0 10 -13 10 -30 l0 -30 345 0 345 0 1 33 1 32 7 -30 6 -30 325
-5 c179 -3 -304 -6 -1072 -8 l-1398 -2 0 440 0 440 43 -2 c36 -1 38 -2 10 -5z
m3707 -13 c0 -5 -11 -10 -25 -10 -22 0 -25 -4 -25 -34 0 -19 -4 -38 -10 -41
-6 -4 -10 13 -10 44 l0 51 35 0 c19 0 35 -4 35 -10z m-260 -15 c0 -8 -4 -15
-10 -15 -5 0 -10 7 -10 15 0 8 5 15 10 15 6 0 10 -7 10 -15z m100 -526 c13
-23 13 -85 0 -110 -6 -10 -18 -19 -28 -19 -16 1 -16 1 1 11 13 7 17 23 17 62
0 58 -15 84 -37 66 -7 -7 -13 -28 -13 -48 0 -27 -3 -32 -10 -21 -16 25 -11 58
11 74 24 17 45 12 59 -15z m3680 9 c37 -40 17 -138 -29 -138 -26 0 -42 23 -48
67 -4 29 0 44 17 66 26 33 33 33 60 5z m-7366 -33 c-12 -18 -15 -39 -11 -71 5
-52 10 -59 32 -50 14 5 16 18 13 70 -2 50 0 62 9 54 37 -30 19 -130 -24 -136
-48 -7 -73 98 -33 138 27 27 34 25 14 -5z m2933 -257 c-3 -7 -5 -2 -5 12 0 14
2 19 5 13 2 -7 2 -19 0 -25z m4127 6 c7 -17 -7 -56 -25 -71 -8 -6 -36 -10 -64
-10 -44 2 -50 5 -53 25 -2 15 5 33 19 48 30 32 46 31 20 -2 -26 -33 -28 -67
-4 -62 9 2 21 18 25 36 5 17 13 32 19 32 7 0 8 -7 4 -17 -17 -41 -17 -53 -2
-53 24 0 39 27 35 64 -4 34 14 41 26 10z m3674 14 c29 -29 -1 -98 -43 -98 -13
0 -26 4 -29 8 -8 14 9 65 24 70 9 3 11 0 5 -14 -17 -42 -17 -54 -2 -54 31 0
52 82 25 93 -7 3 -8 6 -2 6 5 1 15 -4 22 -11z m-7461 -16 c-10 -10 -17 -24
-17 -30 0 -7 -4 -12 -10 -12 -5 0 -10 5 -10 12 0 15 30 48 43 48 6 0 3 -8 -6
-18z m7369 -4 c-19 -27 -21 -64 -3 -71 6 -3 2 -6 -10 -6 -22 -1 -27 8 -23 39
2 22 29 60 41 60 5 0 3 -10 -5 -22z m-7495 -33 c0 -7 -65 -34 -83 -35 -4 0 -5
7 -2 15 4 11 -1 15 -17 16 l-24 2 23 4 c17 3 21 9 17 23 -6 18 -4 18 40 1 26
-10 46 -21 46 -26z m160 -3 c-6 -11 -7 -22 -4 -26 15 -15 33 -3 44 29 8 21 16
30 20 23 10 -16 -11 -57 -33 -63 -30 -10 -59 3 -48 23 4 9 12 26 15 37 4 12 9
15 12 8 2 -7 0 -21 -6 -31z m-2496 -117 c-34 -113 -44 -139 -51 -132 -3 3 11
56 31 117 43 130 59 142 20 15z m5084 -25 c-19 -60 -38 -110 -42 -110 -5 0 -6
7 -3 15 3 9 20 61 37 116 17 55 33 98 37 95 3 -3 -10 -55 -29 -116z m2281 0
c-19 -60 -38 -110 -43 -110 -5 0 -7 6 -4 14 3 8 20 60 38 116 17 55 34 98 37
95 3 -2 -10 -54 -28 -115z m-5966 3 c-33 -104 -44 -129 -44 -104 0 24 62 211
70 211 4 0 -8 -48 -26 -107z m2280 1 c-32 -104 -44 -131 -44 -104 0 22 64 210
71 210 4 0 -8 -48 -27 -106z m5124 94 c-4 -11 -29 -89 -64 -197 -2 -8 -7 -11
-10 -8 -8 8 58 217 69 217 5 0 7 -6 5 -12z m-8697 -8 c28 -16 23 -54 -13 -96
l-32 -37 37 5 c23 2 36 0 34 -6 -2 -6 -25 -12 -52 -14 l-48 -3 36 40 c39 43
49 87 22 97 -8 4 -22 1 -30 -6 -10 -8 -15 -9 -15 -2 0 6 8 16 18 21 21 13 20
13 43 1z m623 -9 c38 -42 25 -132 -21 -139 -48 -7 -73 98 -33 138 25 25 32 25
54 1z m784 3 c29 -20 28 -33 -8 -82 l-30 -42 30 0 c16 0 30 -4 30 -10 0 -5
-20 -10 -45 -10 l-46 0 30 38 c38 49 46 76 25 92 -12 11 -20 11 -35 2 -23 -15
-25 -9 -3 12 19 20 24 20 52 0z m2286 0 c24 -23 20 -45 -16 -88 l-32 -39 36 5
c26 3 34 0 31 -9 -3 -8 -23 -13 -50 -13 l-45 0 36 42 c20 23 36 49 36 59 0 23
-24 41 -46 33 -18 -5 -18 -5 0 10 25 20 31 20 50 0z m616 -4 c38 -38 17 -140
-29 -140 -26 0 -42 23 -48 67 -4 29 0 44 17 66 26 32 34 33 60 7z m781 10 c28
-16 23 -54 -13 -96 l-32 -37 37 5 c23 2 36 0 34 -6 -2 -6 -25 -12 -52 -14
l-48 -3 36 40 c39 43 49 87 22 97 -8 4 -22 1 -30 -6 -10 -8 -15 -9 -15 -2 0 6
8 16 18 21 21 13 20 13 43 1z m2280 0 c28 -16 23 -54 -13 -96 l-32 -37 37 5
c23 2 36 0 34 -6 -2 -6 -25 -12 -52 -14 l-48 -3 36 40 c39 43 49 87 22 97 -8
4 -22 1 -30 -6 -10 -8 -15 -9 -15 -2 0 6 8 16 18 21 21 13 20 13 43 1z m623
-9 c38 -42 25 -132 -21 -139 -48 -7 -73 98 -33 138 25 25 32 25 54 1z m790 3
c24 -23 20 -45 -16 -88 l-32 -39 36 5 c26 3 34 0 31 -9 -3 -8 -23 -13 -50 -13
l-45 0 36 42 c20 23 36 49 36 59 0 23 -24 41 -46 33 -18 -5 -18 -5 0 10 25 20
31 20 50 0z m-9556 -51 c-22 -6 -43 -64 -26 -74 17 -11 3 -23 -17 -15 -14 5
-14 9 0 42 18 44 18 44 2 44 -8 0 -22 -19 -33 -42 -10 -23 -25 -44 -32 -46 -7
-2 -1 13 13 33 29 44 32 57 8 48 -11 -4 -14 -3 -9 5 4 7 29 12 59 11 29 -1 44
-3 35 -6z m600 0 c-21 -6 -47 -65 -30 -71 16 -5 5 -22 -15 -22 -11 0 -14 6 -9
23 17 60 18 67 8 67 -6 0 -20 -20 -31 -45 -11 -25 -25 -45 -31 -45 -7 0 -2 16
11 37 16 25 19 38 11 41 -28 9 3 22 51 21 29 -1 45 -3 35 -6z m1406 -3 c-27
-11 -51 -70 -28 -70 8 0 12 -4 9 -10 -3 -5 -13 -10 -22 -10 -16 0 -15 28 2 73
15 38 -16 15 -37 -28 -12 -25 -26 -45 -30 -45 -13 0 -9 10 12 37 22 28 27 59
8 47 -7 -4 -8 -3 -4 4 4 7 30 12 59 11 39 0 47 -2 31 -9z m825 3 c-9 -2 -21
-14 -28 -26 l-11 -22 6 23 c4 15 1 22 -9 22 -8 0 -19 -10 -26 -22 l-11 -23 6
22 c4 19 2 22 -12 16 -12 -4 -15 -3 -10 5 4 7 29 12 59 11 29 -1 45 -3 36 -6z
m1455 -3 c-27 -11 -51 -70 -28 -70 8 0 12 -4 9 -10 -3 -5 -13 -10 -22 -10 -16
0 -15 28 2 73 15 38 -16 15 -37 -28 -12 -25 -26 -45 -30 -45 -13 0 -9 10 12
37 22 28 27 59 8 47 -7 -4 -8 -3 -4 4 4 7 30 12 59 11 39 0 47 -2 31 -9z
m1404 3 c-22 -6 -43 -64 -26 -74 17 -11 3 -23 -17 -15 -14 5 -14 9 0 42 18 44
18 44 2 44 -8 0 -22 -19 -33 -42 -10 -23 -25 -44 -32 -46 -7 -2 -1 13 13 33
29 44 32 57 8 48 -11 -4 -14 -3 -9 5 4 7 29 12 59 11 29 -1 44 -3 35 -6z m830
0 c-22 -6 -43 -64 -26 -74 17 -11 3 -23 -17 -15 -14 5 -14 9 0 42 18 44 18 44
2 44 -8 0 -22 -19 -33 -42 -10 -23 -25 -44 -32 -46 -7 -2 -1 13 13 33 29 44
32 57 8 48 -11 -4 -14 -3 -9 5 4 7 29 12 59 11 29 -1 44 -3 35 -6z m1450 0
c-22 -6 -43 -64 -26 -74 17 -11 3 -23 -17 -15 -14 5 -14 9 0 42 18 44 18 44 2
44 -8 0 -22 -19 -33 -42 -10 -23 -25 -44 -32 -46 -7 -2 -1 13 13 33 29 44 32
57 8 48 -11 -4 -14 -3 -9 5 4 7 29 12 59 11 29 -1 44 -3 35 -6z m1410 0 c-21
-6 -47 -65 -30 -71 16 -5 5 -22 -15 -22 -11 0 -14 6 -9 23 17 60 18 67 8 67
-6 0 -20 -20 -31 -45 -11 -25 -25 -45 -31 -45 -7 0 -2 16 11 37 16 25 19 38
11 41 -28 9 3 22 51 21 29 -1 45 -3 35 -6z m830 0 c-21 -6 -47 -65 -30 -71 16
-5 5 -22 -15 -22 -11 0 -14 6 -9 23 17 60 18 67 8 67 -6 0 -20 -20 -31 -45
-11 -25 -25 -45 -31 -45 -7 0 -3 14 9 34 23 37 28 61 9 50 -7 -4 -8 -3 -4 4 4
7 29 12 59 11 29 -1 45 -3 35 -6z m-6514 -13 c-27 -11 -51 -70 -28 -70 8 0 12
-4 9 -10 -3 -5 -13 -10 -22 -10 -16 0 -15 28 2 73 15 38 -16 15 -37 -28 -12
-25 -26 -45 -30 -45 -13 0 -9 10 12 37 22 28 27 59 8 47 -7 -4 -8 -3 -4 4 4 7
30 12 59 11 39 0 47 -2 31 -9z m3684 3 c-22 -6 -43 -64 -26 -74 17 -11 3 -23
-17 -15 -14 5 -14 9 0 42 18 44 18 44 2 44 -8 0 -22 -19 -33 -42 -10 -23 -25
-44 -32 -46 -7 -2 -1 13 13 33 29 44 32 57 8 48 -11 -4 -14 -3 -9 5 4 7 29 12
59 11 29 -1 44 -3 35 -6z m-5498 -23 c0 -5 -25 -10 -55 -10 -30 0 -55 5 -55
10 0 6 25 10 55 10 30 0 55 -4 55 -10z m3686 -2 c3 -4 -23 -8 -58 -8 -45 0
-59 3 -48 10 17 12 99 10 106 -2z m3684 1 c0 -5 -25 -9 -55 -9 -30 0 -55 4
-55 10 0 6 24 9 55 9 30 -1 55 -6 55 -10z m-9413 -6 c-20 -2 -52 -2 -70 0 -17
2 0 4 38 4 39 0 53 -2 32 -4z m3733 -4 c0 -5 -25 -9 -55 -9 -30 0 -55 4 -55 9
0 5 25 9 55 9 30 -1 55 -5 55 -9z m3685 1 c4 -6 -16 -10 -55 -10 -34 0 -59 3
-57 8 8 11 105 14 112 2z"/>
<path d="M3964 3176 c-11 -28 0 -61 21 -61 16 0 20 7 20 35 0 25 -5 36 -18 38
-9 2 -20 -3 -23 -12z"/>
<path d="M4647 2794 c-4 -4 -7 -148 -7 -320 l0 -312 50 0 50 -1 0 314 c0 241
-3 314 -12 317 -37 14 -38 3 -40 -305 l-3 -302 -5 304 c-5 289 -9 329 -33 305z"/>
<path d="M4763 2793 c-10 -4 -13 -76 -13 -319 l0 -314 24 0 c15 0 26 7 29 18
4 16 5 16 6 0 1 -15 10 -18 51 -18 l50 0 0 314 c0 243 -3 315 -12 319 -37 12
-38 1 -40 -317 l-3 -311 -5 315 c-3 173 -8 314 -12 313 -5 -2 -12 -3 -18 -3
-6 0 -11 -111 -13 -297 l-2 -298 -3 296 c-2 303 -4 314 -39 302z"/>
<path d="M4933 2793 c-10 -4 -13 -76 -13 -319 l0 -314 24 0 c19 0 26 6 29 28
l4 27 2 -27 c1 -21 6 -28 21 -28 20 0 20 5 18 318 -3 274 -5 317 -18 317 -13
0 -16 -41 -20 -290 l-5 -290 -3 286 c-2 292 -4 304 -39 292z"/>
<path d="M5043 2793 c-10 -4 -13 -76 -13 -319 l0 -314 25 0 25 0 0 314 c0 321
-1 331 -37 319z"/>
<path d="M5893 2793 c-10 -4 -13 -76 -13 -319 l0 -314 25 0 25 0 0 314 c0 321
-1 331 -37 319z"/>
<path d="M5953 2793 c-10 -4 -13 -77 -13 -319 l0 -314 50 0 50 0 0 314 c0 267
-2 315 -15 319 -8 4 -17 2 -20 -3 -4 -6 -13 -7 -23 -1 -9 4 -23 6 -29 4z"/>
<path d="M6293 2793 c-10 -4 -13 -77 -13 -319 0 -307 0 -314 20 -314 11 0 20
7 20 15 0 8 5 15 10 15 6 0 10 -7 10 -15 0 -8 9 -15 20 -15 20 0 20 7 20 314
0 326 -2 340 -41 316 -7 -5 -18 -5 -24 -1 -5 5 -16 6 -22 4z"/>
<path d="M6403 2793 c-10 -4 -13 -76 -13 -319 l0 -314 25 0 25 0 0 314 c0 321
-1 331 -37 319z"/>
<path d="M6463 2793 c-10 -4 -13 -77 -13 -319 l0 -314 50 0 50 0 0 314 c0 326
-2 340 -41 316 -7 -5 -18 -5 -24 -1 -5 5 -16 6 -22 4z"/>
<path d="M6573 2793 c-10 -4 -13 -76 -13 -319 l0 -314 25 0 25 0 0 314 c0 321
-1 331 -37 319z"/>
<path d="M6633 2793 c-10 -4 -13 -76 -13 -318 l0 -313 50 0 50 -1 0 314 c0
252 -3 314 -13 318 -34 13 -37 -7 -40 -293 l-2 -285 -3 287 c-1 158 -5 289 -9
291 -5 2 -14 2 -20 0z"/>
<path d="M6743 2793 c-10 -4 -13 -77 -13 -319 l0 -314 49 0 c30 0 51 5 54 13
4 10 6 10 6 0 1 -7 12 -13 26 -13 l25 0 0 314 c0 253 -3 315 -13 319 -34 13
-37 -6 -40 -308 l-2 -300 -3 302 c-1 196 -6 304 -12 308 -6 4 -17 1 -25 -5
-10 -8 -19 -9 -27 -3 -7 6 -19 8 -25 6z"/>
<path d="M370 2539 c-12 -21 -9 -103 3 -116 4 -3 13 -3 22 1 13 4 15 18 13 68
-3 66 -18 84 -38 47z"/>
<path d="M7745 2550 c-9 -14 -10 -104 -1 -118 21 -34 46 0 46 61 0 48 -28 84
-45 57z"/>
<path d="M4081 2211 c-13 -24 -14 -91 -2 -110 5 -8 16 -11 25 -8 14 6 16 19
14 69 -3 64 -18 85 -37 49z"/>
<path d="M1004 1939 c-3 -6 -6 -33 -6 -59 0 -53 6 -70 26 -70 25 0 35 84 16
121 -12 21 -25 25 -36 8z"/>
<path d="M3251 1936 c-7 -8 -11 -37 -9 -68 3 -45 6 -53 23 -53 17 0 20 8 23
56 3 62 -14 92 -37 65z"/>
<path d="M5745 1940 c-9 -14 -10 -104 -1 -118 21 -34 46 0 46 61 0 48 -28 84
-45 57z"/>
<path d="M6936 1938 c-19 -61 -11 -121 16 -126 17 -3 28 25 28 71 0 48 -34 90
-44 55z"/>
<path d="M8382 1938 c-19 -19 -15 -117 4 -125 22 -8 34 14 34 68 0 51 -18 77
-38 57z"/>
<path d="M7910 1439 c-12 -21 -9 -103 3 -116 4 -3 13 -3 22 1 13 4 15 18 13
68 -3 66 -18 84 -38 47z"/>
<path d="M5757 1298 c-3 -13 -11 -79 -16 -148 -18 -218 -31 -380 -31 -395 0
-12 13 -15 56 -15 l56 0 -6 33 c-3 17 -10 106 -16 197 -11 169 -28 341 -34
347 -2 2 -6 -6 -9 -19z"/>
<path d="M5582 770 c-7 -19 -6 -26 5 -28 22 -5 27 5 16 30 l-11 23 -10 -25z"/>
<path d="M5927 783 c-13 -12 -7 -43 8 -43 8 0 15 6 15 13 0 18 -15 38 -23 30z"/>
<path d="M5445 750 c-3 -5 1 -10 10 -10 9 0 13 5 10 10 -3 6 -8 10 -10 10 -2
0 -7 -4 -10 -10z"/>
<path d="M6065 750 c-3 -5 1 -10 10 -10 9 0 13 5 10 10 -3 6 -8 10 -10 10 -2
0 -7 -4 -10 -10z"/>
<path d="M5375 710 c4 -6 11 -8 16 -5 14 9 11 15 -7 15 -8 0 -12 -5 -9 -10z"/>
<path d="M5511 699 c9 -17 13 -19 20 -8 14 22 11 29 -11 29 -18 0 -19 -3 -9
-21z"/>
<path d="M5645 678 c11 -67 20 -67 31 0 6 39 5 42 -16 42 -20 0 -21 -3 -15
-42z"/>
<path d="M5851 693 c0 -16 4 -37 8 -48 l8 -20 6 20 c18 67 18 75 -3 75 -15 0
-20 -6 -19 -27z"/>
<path d="M5990 704 c0 -17 22 -14 28 4 2 7 -3 12 -12 12 -9 0 -16 -7 -16 -16z"/>
<path d="M6138 713 c7 -3 16 -2 19 1 4 3 -2 6 -13 5 -11 0 -14 -3 -6 -6z"/>
<path d="M8736 1283 c-9 -51 -46 -465 -46 -530 0 -9 18 -13 56 -13 55 0 56 0
50 28 -3 15 -10 97 -16 182 -11 164 -29 353 -35 358 -2 2 -6 -9 -9 -25z"/>
<path d="M10147 1264 c-4 -27 -14 -141 -22 -254 -8 -113 -18 -220 -20 -237
l-6 -33 56 0 c41 0 55 4 55 14 0 8 -4 73 -10 143 -31 396 -41 464 -53 367z"/>
<path d="M8566 774 c-10 -25 -7 -34 9 -34 8 0 15 9 15 19 0 26 -16 35 -24 15z"/>
<path d="M8900 783 c0 -6 -3 -18 -6 -27 -4 -12 0 -16 15 -16 12 0 21 4 21 8 0
13 -29 48 -30 35z"/>
<path d="M9982 770 c-7 -19 -6 -26 5 -28 21 -5 25 2 14 29 l-9 24 -10 -25z"/>
<path d="M10317 783 c-13 -12 -7 -43 8 -43 8 0 15 6 15 13 0 18 -15 38 -23 30z"/>
<path d="M8430 750 c0 -5 5 -10 10 -10 6 0 10 5 10 10 0 6 -4 10 -10 10 -5 0
-10 -4 -10 -10z"/>
<path d="M9030 750 c0 -5 7 -10 16 -10 8 0 12 5 9 10 -3 6 -10 10 -16 10 -5 0
-9 -4 -9 -10z"/>
<path d="M9845 750 c-3 -5 1 -10 9 -10 9 0 16 5 16 10 0 6 -4 10 -9 10 -6 0
-13 -4 -16 -10z"/>
<path d="M10450 750 c0 -5 5 -10 10 -10 6 0 10 5 10 10 0 6 -4 10 -10 10 -5 0
-10 -4 -10 -10z"/>
<path d="M8360 710 c0 -5 4 -10 9 -10 6 0 13 5 16 10 3 6 -1 10 -9 10 -9 0
-16 -4 -16 -10z"/>
<path d="M8492 708 c6 -18 25 -20 31 -3 5 10 0 15 -14 15 -12 0 -19 -5 -17
-12z"/>
<path d="M8623 703 c3 -10 8 -31 12 -48 7 -27 8 -28 15 -10 5 11 9 32 9 48 1
21 -4 27 -20 27 -15 0 -19 -5 -16 -17z"/>
<path d="M8826 688 c10 -56 16 -66 24 -38 15 47 11 70 -10 70 -17 0 -19 -5
-14 -32z"/>
<path d="M8962 708 c6 -18 25 -20 31 -3 5 10 0 15 -14 15 -12 0 -19 -5 -17
-12z"/>
<path d="M9105 710 c4 -6 11 -8 16 -5 14 9 11 15 -7 15 -8 0 -12 -5 -9 -10z"/>
<path d="M9775 710 c3 -5 10 -10 16 -10 5 0 9 5 9 10 0 6 -7 10 -16 10 -8 0
-12 -4 -9 -10z"/>
<path d="M9907 705 c6 -17 25 -15 31 3 2 7 -5 12 -17 12 -14 0 -19 -5 -14 -15z"/>
<path d="M10044 678 c11 -67 20 -67 29 0 5 37 3 42 -15 42 -19 0 -20 -4 -14
-42z"/>
<path d="M10241 698 c1 -13 4 -34 9 -48 l7 -25 7 30 c5 17 10 38 13 48 3 12
-1 17 -16 17 -15 0 -21 -6 -20 -22z"/>
<path d="M10380 704 c0 -9 5 -14 12 -12 18 6 21 28 4 28 -9 0 -16 -7 -16 -16z"/>
<path d="M10515 710 c4 -6 11 -8 16 -5 14 9 11 15 -7 15 -8 0 -12 -5 -9 -10z"/>
<path d="M7885 830 c-8 -13 -9 -106 0 -119 11 -19 32 -12 39 12 17 66 -13 150
-39 107z"/>
<path d="M2060 429 c-12 -21 -9 -103 3 -116 4 -3 13 -3 22 1 13 4 15 18 13 68
-3 66 -18 84 -38 47z"/>
<path d="M5745 440 c-9 -14 -10 -104 -1 -118 21 -34 46 0 46 61 0 48 -28 84
-45 57z"/>
<path d="M9430 429 c-12 -21 -9 -103 3 -116 4 -3 13 -3 22 1 13 4 15 18 13 68
-3 66 -18 84 -38 47z"/>
</g>
</svg>
