<?xml version="1.0" standalone="no"?>
<!DOCTYPE svg PUBLIC "-//W3C//DTD SVG 20010904//EN"
 "http://www.w3.org/TR/2001/REC-SVG-20010904/DTD/svg10.dtd">
<svg version="1.0" xmlns="http://www.w3.org/2000/svg"
 width="1148.000000pt" height="613.000000pt" viewBox="0 0 1148.000000 613.000000"
 preserveAspectRatio="xMidYMid meet">

<g transform="translate(0.000000,613.000000) scale(0.100000,-0.100000)"
fill="#000000" stroke="none">
<path d="M0 3065 l0 -3065 5740 0 5740 0 0 3065 0 3065 -5740 0 -5740 0 0
-3065z m5970 2075 l0 -760 -642 0 c-2857 -1 -3972 1 -3976 5 -3 3 310 5 696 5
l702 0 0 595 0 595 -99 0 c-56 0 -103 4 -106 10 -4 6 32 10 99 10 l106 0 0
128 c0 86 3 122 10 112 5 -8 10 -66 10 -127 l0 -113 380 0 380 0 0 145 0 145
-377 3 c-208 1 341 3 1220 5 l1597 2 0 -760z m-2906 610 c16 -39 26 -73 23
-76 -2 -3 -32 -4 -65 -2 l-61 3 32 72 c18 40 34 73 37 73 3 0 18 -32 34 -70z
m102 -1 c-30 -35 -35 -72 -9 -67 9 2 21 18 25 36 5 17 13 32 19 32 7 0 8 -7 4
-17 -17 -41 -17 -53 -2 -53 22 0 40 36 35 70 -3 19 0 26 8 23 18 -7 25 -30 15
-56 -14 -36 -32 -45 -86 -44 -46 2 -50 4 -53 28 -2 19 5 33 28 53 42 35 48 33
16 -5z m-936 -159 c0 -7 -62 -11 -182 -10 -101 0 -402 1 -670 0 l-488 0 0
-584 c0 -379 -4 -587 -10 -591 -7 -4 -10 197 -10 594 l0 601 680 0 c464 0 680
-3 680 -10z m235 0 c4 -6 -20 -10 -64 -10 -38 0 -73 5 -76 10 -4 6 20 10 64
10 38 0 73 -4 76 -10z m47 -190 c2 -66 0 -80 -12 -80 -12 0 -15 14 -13 77 1
43 2 79 3 81 0 1 4 2 9 2 5 0 11 -36 13 -80z m-812 55 c12 -15 5 -55 -11 -55
-17 0 -9 -22 20 -51 24 -24 26 -29 11 -29 -10 0 -30 16 -44 35 -15 19 -31 35
-37 35 -13 0 -11 -44 3 -58 9 -9 7 -12 -12 -12 -25 0 -25 1 -22 75 l4 75 38 0
c21 0 43 -6 50 -15z m124 -41 c21 -21 12 -34 -25 -34 -30 0 -34 -6 -20 -29 5
-8 19 -12 35 -9 21 4 24 3 15 -8 -17 -20 -57 -17 -69 5 -14 27 -13 44 5 67 13
16 14 16 9 2 -5 -14 -1 -18 15 -18 24 0 27 10 9 28 -8 8 -9 12 -1 12 6 0 19
-7 27 -16z m106 1 c7 -9 10 -19 6 -23 -4 -4 -12 1 -17 11 -13 22 -26 22 -39
-3 -16 -30 5 -63 36 -57 20 3 22 2 13 -9 -27 -33 -71 -6 -71 43 0 43 47 68 72
38z m158 3 c15 -15 16 -58 2 -58 -5 0 -11 6 -11 13 -1 6 -2 19 -3 27 0 8 -9
14 -18 14 -10 -1 -15 2 -12 7 7 13 28 11 42 -3z m118 0 c4 -7 11 -32 14 -55 6
-35 4 -43 -9 -43 -12 0 -16 10 -16 42 0 36 -3 43 -20 43 -17 0 -20 -7 -20 -43
0 -28 -4 -42 -13 -42 -10 0 -12 8 -7 29 3 17 1 40 -5 52 -11 20 -10 21 8 17
11 -3 26 -2 33 3 19 12 27 11 35 -3z m106 4 c11 -4 14 -12 10 -19 -6 -9 -12
-7 -25 7 -17 21 -14 23 15 12z m284 0 c6 -4 13 -28 16 -53 l5 -47 -38 0 c-34
-1 -39 2 -39 22 0 15 9 27 26 35 25 11 29 31 6 39 -7 2 -12 -3 -12 -12 0 -9
-4 -16 -10 -16 -14 0 -13 13 2 28 14 14 28 15 44 4z m96 -10 c-22 -3 -24 -8
-20 -48 2 -34 0 -44 -12 -44 -11 0 -15 12 -15 47 0 43 3 49 25 54 14 3 30 3
35 0 6 -3 -1 -7 -13 -9z m-409 -54 c8 -5 6 -8 -6 -8 -10 0 -15 -4 -12 -10 3
-5 2 -10 -2 -10 -11 0 -14 70 -5 85 4 5 9 -3 10 -20 2 -16 9 -33 15 -37z m166
14 l1 -48 -39 -1 c-44 -2 -56 13 -41 49 8 22 9 22 9 -4 1 -33 17 -44 37 -27
10 8 14 24 12 46 -2 20 0 33 7 33 7 0 13 -20 14 -48z m-939 28 c0 -6 -92 -10
-255 -10 -163 0 -255 4 -255 10 0 6 92 10 255 10 163 0 255 -4 255 -10z m489
-62 c7 1 10 -2 6 -8 -9 -14 -32 -13 -37 2 -3 7 -2 24 1 38 5 25 5 25 11 -5 3
-17 12 -29 19 -27z m325 -55 c-10 -7 -25 -13 -33 -12 -9 1 -4 6 12 12 15 6 27
18 28 26 0 13 2 13 6 2 3 -8 -2 -20 -13 -28z m-54 -83 c0 -5 -4 -10 -10 -10
-5 0 -10 5 -10 10 0 6 5 10 10 10 6 0 10 -4 10 -10z m-627 -20 c-3 -11 -9 -20
-13 -20 -4 0 -10 9 -13 20 -4 15 0 20 13 20 13 0 17 -5 13 -20z m92 10 c-3 -5
-10 -10 -16 -10 -5 0 -9 5 -9 10 0 6 7 10 16 10 8 0 12 -4 9 -10z m102 -45 c8
-23 0 -24 -19 -3 -15 15 -16 18 -3 18 9 0 18 -7 22 -15z m85 6 c14 8 23 8 31
0 7 -7 16 -7 29 0 28 15 45 -4 50 -56 2 -35 0 -45 -12 -45 -11 0 -15 11 -15
42 0 36 -3 43 -20 43 -24 0 -34 -48 -14 -71 9 -12 7 -14 -15 -14 -23 0 -25 2
-15 18 17 26 3 74 -19 70 -13 -3 -17 -14 -17 -46 0 -31 -4 -42 -15 -42 -11 0
-15 12 -15 47 0 43 15 77 23 53 2 -6 11 -6 24 1z m180 0 c14 8 23 8 31 0 7 -7
16 -7 29 0 28 15 45 -4 50 -56 2 -35 0 -45 -12 -45 -11 0 -15 11 -15 42 0 36
-3 43 -20 43 -24 0 -34 -48 -14 -71 9 -11 8 -14 -9 -14 -18 0 -20 5 -16 33 6
39 -8 62 -31 53 -13 -5 -16 -15 -13 -46 3 -31 0 -40 -12 -40 -11 0 -15 12 -15
47 0 43 15 77 23 53 2 -6 11 -6 24 1z m240 0 c27 15 39 1 48 -56 6 -37 4 -45
-9 -45 -12 0 -16 10 -16 42 0 36 -3 43 -20 43 -17 0 -20 -7 -20 -43 0 -29 -4
-42 -14 -42 -9 0 -11 8 -7 24 3 14 2 36 -3 50 -7 17 -7 26 2 29 7 2 13 0 15
-4 2 -5 13 -4 24 2z m152 -1 c26 0 5 -52 -27 -65 l-30 -12 37 -7 c41 -8 50
-38 17 -56 -36 -19 -92 -5 -77 19 5 8 12 7 22 -4 18 -17 33 -19 54 -5 20 12 3
28 -35 32 -26 3 -29 7 -32 43 -3 42 18 70 45 60 8 -3 19 -5 26 -5z m-222 -50
c2 -39 0 -50 -12 -50 -11 0 -15 12 -15 50 0 67 22 67 27 0z m-542 2 c0 -15 5
-33 12 -40 9 -9 6 -12 -13 -12 -23 0 -24 3 -21 40 5 45 22 55 22 12z m-76 -44
c6 -4 -1 -8 -17 -8 -16 0 -26 3 -24 8 2 4 8 16 12 27 l8 20 5 -20 c2 -11 9
-23 16 -27z m196 7 c0 -8 -4 -15 -10 -15 -5 0 -10 7 -10 15 0 8 5 15 10 15 6
0 10 -7 10 -15z m-108 -170 c-2 -14 -8 -25 -12 -25 -4 0 -10 11 -12 25 -4 19
-1 25 12 25 13 0 16 -6 12 -25z m184 -24 c22 18 42 -6 46 -56 2 -35 0 -45 -12
-45 -12 0 -14 10 -11 46 3 40 1 45 -15 42 -15 -3 -19 -12 -19 -46 0 -31 -4
-42 -15 -42 -11 0 -15 12 -15 47 0 44 15 77 23 52 3 -6 9 -6 18 2z m116 0 c27
15 39 1 48 -56 6 -37 4 -45 -9 -45 -12 0 -16 10 -16 42 0 36 -3 43 -20 43 -17
0 -20 -7 -20 -43 0 -25 -5 -42 -11 -42 -7 0 -11 13 -9 33 1 17 -1 40 -6 49 -6
11 -5 18 4 21 6 2 13 0 15 -4 2 -5 13 -4 24 2z m-388 -60 c1 -37 -1 -41 -23
-41 -20 0 -22 3 -13 12 7 7 12 30 12 52 0 55 22 33 24 -23z m207 -21 c6 0 8
-4 5 -9 -9 -14 -84 -11 -89 4 -6 14 1 25 15 25 4 0 8 -7 8 -15 0 -8 5 -15 10
-15 6 0 13 7 15 15 15 46 19 50 23 23 2 -16 8 -28 13 -28z m-121 5 c0 -7 6
-16 13 -18 6 -3 -4 -5 -23 -5 -19 0 -29 2 -22 5 6 2 12 14 12 24 0 11 5 17 10
14 6 -3 10 -12 10 -20z m52 -225 c2 -66 0 -80 -12 -80 -12 0 -15 14 -13 77 1
43 2 79 3 81 0 1 4 2 9 2 5 0 11 -36 13 -80z m261 35 c-5 -46 5 -57 27 -30 7
8 17 15 23 15 5 0 2 -9 -8 -20 -19 -21 -13 -36 24 -67 13 -11 13 -13 -3 -13
-9 0 -28 12 -42 28 l-24 27 6 -27 c5 -25 3 -28 -17 -28 -18 0 -20 3 -10 9 10
6 12 27 9 80 -2 49 0 71 8 71 7 0 9 -16 7 -45z m-411 5 c-3 -24 0 -32 19 -39
23 -10 24 -10 2 -10 -17 -1 -22 -8 -25 -33 -2 -17 -7 -33 -13 -35 -6 -2 -9 25
-7 72 3 51 7 75 16 75 8 0 11 -10 8 -30z m234 -18 c6 -4 14 -28 18 -53 l7 -46
-38 1 c-49 1 -57 28 -14 54 22 13 27 22 20 32 -8 13 -12 12 -24 -4 -8 -11 -18
-16 -22 -12 -5 4 1 14 11 22 22 16 27 17 42 6z m108 2 c9 -3 16 -14 16 -23 -1
-13 -3 -13 -15 4 -14 18 -16 18 -31 3 -25 -25 -11 -68 22 -68 14 0 23 -4 19
-10 -11 -17 -54 -11 -65 9 -15 29 -12 49 10 71 22 22 22 22 44 14z m208 -3
c14 8 23 8 31 0 7 -7 16 -7 29 0 28 15 45 -4 50 -56 2 -35 0 -45 -12 -45 -11
0 -15 11 -15 42 0 36 -3 43 -20 43 -24 0 -34 -48 -14 -71 9 -11 8 -14 -8 -14
-15 0 -18 7 -18 39 0 45 -7 56 -31 47 -12 -5 -15 -16 -12 -46 3 -31 0 -40 -12
-40 -11 0 -15 12 -15 47 0 43 15 77 23 53 2 -6 11 -6 24 1z m196 -3 c5 -7 11
-32 14 -55 l3 -42 -40 2 c-47 2 -60 28 -23 48 21 11 22 11 9 -5 -10 -12 -11
-20 -3 -28 17 -17 31 0 30 38 -2 42 -16 54 -35 29 -11 -16 -13 -16 -13 -3 0
26 40 37 58 16z m84 3 c27 15 39 1 48 -56 6 -37 4 -45 -9 -45 -12 0 -16 10
-16 42 0 36 -3 43 -20 43 -17 0 -20 -6 -19 -42 1 -36 -2 -43 -18 -43 -13 0
-17 4 -11 13 10 16 11 48 1 69 -5 10 -3 18 5 21 6 2 13 0 15 -4 2 -5 13 -4 24
2z m-1437 -21 c-3 -5 -13 -10 -21 -10 -8 0 -14 5 -14 10 0 6 9 10 21 10 11 0
17 -4 14 -10z m350 0 c4 -6 -15 -10 -49 -10 -31 0 -56 5 -56 10 0 6 22 10 49
10 28 0 53 -4 56 -10z m-217 -7 c-10 -2 -26 -2 -35 0 -10 3 -2 5 17 5 19 0 27
-2 18 -5z m547 -62 c-14 -13 -16 -13 -11 -1 3 8 9 24 13 35 7 19 7 19 11 1 2
-10 -4 -26 -13 -35z m-717 -118 c-15 -2 -42 -2 -60 0 -18 2 -6 4 27 4 33 0 48
-2 33 -4z m260 0 c-32 -2 -84 -2 -115 0 -32 2 -6 3 57 3 63 0 89 -1 58 -3z
m-511 -135 c12 -16 24 -48 17 -48 -2 0 -9 11 -14 25 -12 31 -24 32 -44 3 -9
-12 -18 -19 -22 -16 -7 7 31 48 45 48 5 0 13 -6 18 -12z m-44 -89 c7 -50 12
-57 39 -40 17 10 19 10 16 -1 -3 -7 -14 -14 -25 -16 -26 -4 -53 32 -53 70 0
43 17 33 23 -13z m215 23 c-36 -3 -37 -4 -41 -50 l-3 -47 -2 55 -2 56 43 -6
42 -5 -37 -3z m4875 -25 c83 -41 170 -120 240 -219 50 -70 54 -78 35 -78 -7 0
-40 37 -73 82 -33 44 -85 101 -115 126 -60 49 -153 97 -173 89 -8 -4 -6 -6 4
-6 33 -2 82 -79 121 -191 31 -90 60 -232 49 -243 -6 -6 -13 13 -21 49 -35 181
-79 290 -147 367 -29 34 -37 37 -84 37 -29 0 -49 -3 -46 -6 3 -4 -4 -15 -17
-25 -57 -45 -125 -229 -161 -432 -21 -125 -43 -363 -51 -560 -6 -149 -9 -169
-25 -178 -17 -9 -19 -6 -19 33 -1 199 -35 522 -64 604 -8 23 -11 47 -6 54 23
37 69 -173 83 -375 l3 -40 6 35 c4 19 12 100 18 180 27 340 108 627 193 681
l32 21 -30 -7 c-16 -4 -55 -22 -85 -40 -163 -99 -312 -336 -441 -700 l-32 -90
12 -105 c18 -174 22 -280 13 -375 l-9 -90 -2 106 c-1 134 -21 371 -31 382 -16
18 -132 -522 -156 -728 -4 -36 -15 -70 -26 -85 l-20 -25 7 60 c25 211 101 591
156 777 31 104 30 149 -6 217 -24 47 -42 57 -65 36 -52 -47 -93 -249 -110
-545 -6 -107 -18 -241 -26 -297 -8 -56 -15 -117 -15 -135 -1 -18 -8 89 -15
237 -18 382 -51 582 -104 630 -19 17 -21 17 -40 0 -66 -60 -107 -316 -119
-740 -4 -165 -11 -278 -18 -289 -14 -25 -18 20 -33 364 -14 328 -40 505 -87
576 -48 74 -107 -40 -138 -270 -20 -152 -35 -414 -35 -638 0 -103 -4 -189 -9
-192 -12 -8 -18 63 -30 349 -15 362 -40 569 -81 663 -25 55 -46 63 -76 29 -72
-84 -109 -427 -115 -1052 l-1 -150 -13 120 c-8 66 -16 197 -20 290 -13 365
-35 577 -71 677 -47 133 -97 114 -137 -52 -33 -133 -48 -315 -57 -675 -5 -198
-10 -369 -11 -380 -4 -40 -17 137 -33 450 -23 472 -60 685 -121 709 -80 30
-143 -342 -146 -857 -1 -167 -14 -405 -17 -312 -1 22 -6 101 -12 175 -5 74
-14 239 -20 365 -11 236 -29 402 -55 490 -8 28 -14 54 -14 58 0 12 -42 47 -57
47 -72 0 -133 -398 -134 -880 0 -74 -3 -173 -8 -220 l-7 -85 -6 85 c-4 47 -12
204 -18 350 -19 462 -52 667 -115 719 -21 18 -43 0 -67 -54 -46 -105 -68 -287
-80 -680 -12 -392 -21 -481 -32 -300 -4 66 -12 228 -17 360 -17 399 -53 603
-114 654 -75 62 -146 -314 -146 -767 0 -174 -10 -332 -20 -332 -8 0 -10 33
-30 470 -17 347 -48 539 -99 602 -40 47 -81 -14 -111 -164 -28 -139 -39 -270
-50 -618 -11 -367 -10 -344 -21 -300 -5 19 -13 161 -19 315 -16 438 -48 672
-100 746 -27 37 -44 37 -68 -3 -51 -84 -79 -263 -92 -603 -5 -137 -13 -311
-17 -385 -6 -124 -7 -130 -14 -75 -4 33 -13 190 -19 350 -16 414 -44 624 -94
697 -31 46 -55 43 -82 -12 -49 -99 -71 -272 -85 -675 -6 -165 -14 -334 -17
-375 l-7 -75 -8 130 c-4 72 -12 238 -17 370 -18 413 -52 613 -116 665 -14 13
-19 11 -39 -13 -61 -77 -89 -274 -105 -729 -6 -161 -14 -311 -19 -333 -11 -49
-9 -76 -26 335 -17 426 -41 605 -91 702 -28 55 -34 30 -34 -147 l0 -175 38 -1
37 -2 -35 -6 -35 -6 -3 -367 -2 -368 35 0 c22 0 34 -4 30 -10 -3 -6 -19 -10
-36 -10 l-29 0 0 -365 0 -365 833 0 832 0 16 39 c9 22 28 47 43 56 25 16 27
16 52 0 15 -9 34 -34 43 -56 16 -38 17 -39 71 -39 l56 0 21 73 c29 96 59 141
100 145 41 4 66 -31 95 -137 22 -78 24 -81 53 -81 l31 0 18 105 c45 253 149
322 206 138 11 -35 24 -94 30 -131 17 -103 19 -112 33 -112 9 0 20 47 36 153
25 162 49 242 88 295 63 84 125 4 168 -218 6 -32 6 -34 -9 -19 -9 8 -25 49
-34 90 -51 209 -112 197 -162 -31 -19 -90 -24 -132 -21 -217 l1 -53 54 0 c30
0 58 -4 61 -10 4 -6 -23 -10 -72 -10 -313 -2 -2648 1 -2650 4 -3 3 -4 1732 -1
2376 2 442 3 455 8 185 l5 -290 35 -4 35 -4 -35 -6 -35 -6 -3 -168 -2 -169 29
-34 c53 -60 92 -236 107 -493 4 -61 9 -110 11 -108 2 2 8 64 13 138 18 247 54
409 100 459 15 17 35 30 43 30 24 0 65 -56 82 -113 19 -60 52 -291 61 -420 3
-49 7 -87 9 -85 1 2 8 71 14 153 30 376 99 537 184 435 42 -49 70 -167 87
-365 6 -71 15 -155 19 -185 l8 -55 2 70 c2 105 30 330 52 420 46 187 122 206
178 45 25 -71 51 -244 58 -393 3 -66 9 -113 13 -105 4 7 10 67 13 133 12 219
55 413 104 467 23 26 58 22 82 -8 44 -56 81 -237 96 -477 4 -59 9 -106 11
-105 2 2 8 64 14 138 26 335 79 505 151 487 64 -16 111 -195 135 -522 l8 -100
8 100 c33 433 100 617 189 517 41 -46 70 -161 88 -352 27 -283 24 -271 33
-126 13 218 45 403 84 478 8 15 26 35 39 44 23 15 27 15 49 0 50 -32 98 -233
112 -476 9 -150 18 -130 33 80 23 303 82 466 156 432 58 -27 95 -183 123 -522
l8 -85 12 148 c29 328 71 485 138 501 68 18 120 -146 144 -459 13 -159 18
-187 19 -100 2 87 27 318 46 410 21 106 58 183 92 191 14 4 33 3 42 -3 48 -28
89 -202 110 -462 6 -68 12 -125 14 -127 2 -3 7 53 11 123 15 290 67 509 126
528 83 26 131 -117 159 -475 l7 -95 8 80 c40 443 92 605 181 571 42 -16 88
-197 108 -429 l13 -142 13 155 c24 287 63 460 116 510 44 42 81 12 122 -99 8
-20 14 -9 47 80 49 135 142 325 201 414 91 135 225 251 334 286 14 5 59 7 99
5 59 -2 86 -10 145 -39z m4119 -344 c-3 -51 -8 -73 -16 -73 -9 0 -12 9 -8 26
5 25 3 26 -26 22 -17 -2 -29 -1 -26 4 3 4 16 8 29 8 24 0 42 30 30 50 -4 6 -1
18 6 26 6 8 12 13 13 12 1 -2 0 -36 -2 -75z m758 2 c0 -41 -3 -75 -7 -75 -5 0
-8 34 -8 75 0 41 3 75 8 75 4 0 7 -34 7 -75z m126 47 c1 -17 1 -18 -3 -3 -2
11 -14 22 -26 25 -18 3 -18 4 3 3 18 -2 25 -8 26 -25z m194 -49 c0 -42 -2 -74
-4 -72 -8 8 -11 149 -4 149 5 0 8 -34 8 -77z m62 8 c-2 -59 0 -70 15 -74 14
-4 13 -5 -4 -6 -22 -1 -23 3 -23 74 0 41 3 75 8 75 4 0 6 -31 4 -69z m-1265
-71 c2 -2 12 1 22 7 14 9 18 8 18 -3 0 -11 -18 -14 -81 -12 -62 1 -68 3 -28 5
28 2 52 6 52 8 0 3 -11 29 -24 59 -13 30 -21 57 -18 61 3 3 17 -23 31 -57 13
-35 26 -65 28 -68z m1353 100 c0 -10 -5 -20 -12 -22 -7 -3 -6 -12 6 -30 14
-22 15 -27 2 -37 -12 -10 -13 -8 -9 10 4 14 0 26 -11 35 -11 8 -13 14 -7 19 6
3 11 17 11 31 0 14 4 22 10 19 6 -3 10 -15 10 -25z m-330 -64 c0 -18 -2 -17
-15 8 -19 36 -19 42 0 26 8 -7 15 -22 15 -34z m114 -8 c4 -17 13 -28 24 -29
11 0 12 -2 4 -6 -21 -8 -42 17 -41 51 1 32 3 29 13 -16z m-4785 -24 c24 -31
26 -44 8 -44 -7 0 -21 16 -30 35 -20 41 -7 46 22 9z m3821 -9 c0 -14 -2 -25
-4 -25 -2 0 -6 11 -8 25 -3 14 -1 25 3 25 5 0 9 -11 9 -25z m66 -19 c-8 -25
-11 -47 -8 -50 3 -4 0 -6 -6 -6 -15 0 -15 -1 -1 41 6 19 12 40 15 47 2 6 6 12
8 12 3 0 -1 -20 -8 -44z m148 8 c4 -19 10 -42 13 -50 3 -8 -1 -14 -8 -14 -7 0
-10 3 -6 6 3 3 0 26 -8 50 -7 24 -9 44 -5 44 4 0 11 -16 14 -36z m-74 -19 c0
-25 -4 -45 -8 -45 -5 0 -8 10 -6 23 1 12 3 32 3 45 2 42 11 22 11 -23z m-133
-27 c-3 -8 -6 -5 -6 6 -1 11 2 17 5 13 3 -3 4 -12 1 -19z m-3644 5 c-7 -2 -21
-2 -30 0 -10 3 -4 5 12 5 17 0 24 -2 18 -5z m340 0 c-7 -2 -21 -2 -30 0 -10 3
-4 5 12 5 17 0 24 -2 18 -5z m105 0 c-10 -2 -26 -2 -35 0 -10 3 -2 5 17 5 19
0 27 -2 18 -5z m120 0 c-10 -2 -26 -2 -35 0 -10 3 -2 5 17 5 19 0 27 -2 18 -5z
m105 0 c-7 -2 -21 -2 -30 0 -10 3 -4 5 12 5 17 0 24 -2 18 -5z m94 1 c-3 -3
-12 -4 -19 -1 -8 3 -5 6 6 6 11 1 17 -2 13 -5z m131 -1 c-10 -2 -26 -2 -35 0
-10 3 -2 5 17 5 19 0 27 -2 18 -5z m110 0 c-10 -2 -26 -2 -35 0 -10 3 -2 5 17
5 19 0 27 -2 18 -5z m115 0 c-7 -2 -21 -2 -30 0 -10 3 -4 5 12 5 17 0 24 -2
18 -5z m110 0 c-7 -2 -21 -2 -30 0 -10 3 -4 5 12 5 17 0 24 -2 18 -5z m115 0
c-10 -2 -26 -2 -35 0 -10 3 -2 5 17 5 19 0 27 -2 18 -5z m115 0 c-7 -2 -21 -2
-30 0 -10 3 -4 5 12 5 17 0 24 -2 18 -5z m84 1 c-3 -3 -12 -4 -19 -1 -8 3 -5
6 6 6 11 1 17 -2 13 -5z m141 -1 c-10 -2 -26 -2 -35 0 -10 3 -2 5 17 5 19 0
27 -2 18 -5z m105 0 c-7 -2 -19 -2 -25 0 -7 3 -2 5 12 5 14 0 19 -2 13 -5z
m94 1 c-3 -3 -12 -4 -19 -1 -8 3 -5 6 6 6 11 1 17 -2 13 -5z m241 -1 c-10 -2
-26 -2 -35 0 -10 3 -2 5 17 5 19 0 27 -2 18 -5z m115 0 c-7 -2 -21 -2 -30 0
-10 3 -4 5 12 5 17 0 24 -2 18 -5z m110 0 c-7 -2 -21 -2 -30 0 -10 3 -4 5 12
5 17 0 24 -2 18 -5z m115 0 c-10 -2 -26 -2 -35 0 -10 3 -2 5 17 5 19 0 27 -2
18 -5z m199 1 c-3 -3 -12 -4 -19 -1 -8 3 -5 6 6 6 11 1 17 -2 13 -5z m141 -1
c-10 -2 -26 -2 -35 0 -10 3 -2 5 17 5 19 0 27 -2 18 -5z m110 0 c-10 -2 -26
-2 -35 0 -10 3 -2 5 17 5 19 0 27 -2 18 -5z m89 1 c-3 -3 -12 -4 -19 -1 -8 3
-5 6 6 6 11 1 17 -2 13 -5z m136 -1 c-7 -2 -21 -2 -30 0 -10 3 -4 5 12 5 17 0
24 -2 18 -5z m110 0 c-7 -2 -21 -2 -30 0 -10 3 -4 5 12 5 17 0 24 -2 18 -5z
m94 1 c-3 -3 -12 -4 -19 -1 -8 3 -5 6 6 6 11 1 17 -2 13 -5z m126 -1 c-7 -2
-21 -2 -30 0 -10 3 -4 5 12 5 17 0 24 -2 18 -5z m565 0 c-10 -2 -26 -2 -35 0
-10 3 -2 5 17 5 19 0 27 -2 18 -5z m220 0 c-10 -2 -26 -2 -35 0 -10 3 -2 5 17
5 19 0 27 -2 18 -5z m99 1 c-3 -3 -12 -4 -19 -1 -8 3 -5 6 6 6 11 1 17 -2 13
-5z m136 -1 c-7 -2 -21 -2 -30 0 -10 3 -4 5 12 5 17 0 24 -2 18 -5z m105 0
c-10 -2 -26 -2 -35 0 -10 3 -2 5 17 5 19 0 27 -2 18 -5z m110 0 c-10 -2 -26
-2 -35 0 -10 3 -2 5 17 5 19 0 27 -2 18 -5z m99 1 c-3 -3 -12 -4 -19 -1 -8 3
-5 6 6 6 11 1 17 -2 13 -5z m-5988 -96 c-26 -76 -60 -227 -87 -388 -8 -46 -10
-49 -11 -19 -3 85 37 317 68 400 20 52 50 104 56 97 2 -2 -9 -42 -26 -90z
m994 57 c4 -8 2 -17 -3 -20 -6 -4 -10 -4 -10 -1 0 2 -3 11 -6 20 -3 9 -2 16 4
16 5 0 12 -7 15 -15z m-93 -2 c-1 -27 -38 -115 -44 -105 -11 18 19 112 35 112
5 0 9 -3 9 -7z m217 -156 c40 -109 42 -111 53 -82 24 67 33 85 46 96 25 20 24
5 -3 -49 -40 -81 -40 -119 2 -275 20 -77 38 -149 39 -160 2 -12 6 -29 9 -37
22 -54 89 -466 121 -740 12 -103 14 -108 15 -51 1 35 4 61 8 58 3 -4 10 -130
14 -280 4 -149 13 -393 19 -540 7 -148 11 -269 9 -270 -13 -7 -269 6 -269 14
0 5 50 9 111 9 l112 0 -6 353 c-9 613 -88 1217 -219 1682 l-11 40 -8 -34 c-4
-19 -13 -123 -19 -230 -7 -108 -14 -198 -16 -200 -14 -15 -7 255 11 409 l13
114 -40 115 c-22 63 -44 124 -50 134 -10 20 -3 55 10 43 4 -4 26 -58 49 -119z
m-72 18 c19 -73 45 -247 44 -295 -1 -34 -2 -33 -10 10 -5 25 -11 59 -13 75
-10 61 -36 191 -45 224 -6 19 -8 38 -5 43 9 14 12 8 29 -57z m-255 -145 c14
-190 15 -192 24 -75 9 128 16 169 27 158 5 -5 4 -50 -2 -103 -7 -60 -13 -473
-16 -1128 l-5 -1032 141 0 141 0 3 418 2 417 3 -427 2 -428 -615 0 -615 0 6
478 c4 262 8 479 10 481 2 2 4 -208 4 -467 l0 -472 138 0 137 0 -3 601 c-2
589 -2 601 18 626 l20 26 0 -627 0 -626 139 0 140 0 4 33 3 32 8 -32 9 -33
138 0 139 0 -1 683 c0 672 -13 1455 -25 1592 -5 50 -3 67 4 60 6 -6 16 -76 22
-155z m-5292 134 c29 -20 28 -33 -8 -82 l-30 -42 30 0 c16 0 30 -4 30 -10 0
-5 -20 -10 -45 -10 l-46 0 30 38 c38 49 46 76 25 92 -12 11 -20 11 -35 2 -23
-15 -25 -9 -3 12 19 20 24 20 52 0z m116 3 c25 -19 33 -90 12 -122 -31 -48
-74 -26 -83 42 -4 29 0 44 17 66 24 31 29 32 54 14z m5693 -19 c11 -18 27 -56
36 -84 34 -105 70 -384 50 -384 -6 0 -13 35 -17 77 -17 184 -59 355 -96 388
-23 21 -26 35 -6 35 8 0 23 -15 33 -32z m-5919 -55 c-15 -2 -42 -2 -60 0 -18
2 -6 4 27 4 33 0 48 -2 33 -4z m6216 -32 c45 -49 121 -381 88 -381 -4 0 -16
49 -25 109 -27 169 -68 276 -105 269 -37 -7 -73 -111 -95 -279 -8 -56 -17 -94
-25 -97 -9 -3 -11 3 -8 20 3 12 8 50 11 83 13 121 48 240 82 277 21 23 55 23
77 -1z m1683 -46 c-12 -30 -25 -55 -29 -55 -4 0 1 23 12 50 11 28 20 53 20 55
0 3 4 5 9 5 5 0 -1 -25 -12 -55z m-57 -32 c0 -7 -4 -13 -8 -13 -5 0 -9 6 -10
13 0 6 -3 23 -7 37 l-6 25 15 -25 c8 -14 15 -31 16 -37z m401 40 l-24 -16 22
-8 c28 -11 37 -37 19 -55 -12 -12 -14 -11 -13 12 0 15 -6 29 -12 31 -19 7 -28
-27 -13 -51 11 -20 11 -20 -5 -4 -25 23 -22 68 5 90 12 10 27 18 33 18 6 0 1
-8 -12 -17z m155 -24 c-3 -17 -6 -44 -6 -60 0 -16 -5 -29 -11 -29 -7 0 -8 11
-4 30 4 20 2 37 -7 47 -9 12 -9 15 0 9 8 -5 12 0 12 13 0 12 5 21 11 21 8 0 9
-11 5 -31z m104 6 c10 -12 10 -19 2 -27 -8 -8 -7 -16 1 -30 10 -16 9 -22 -7
-34 -11 -8 -27 -14 -35 -13 -10 0 -7 4 7 10 29 11 26 43 -6 47 -18 3 -22 -1
-22 -22 0 -15 -6 -26 -14 -26 -10 0 -12 9 -5 43 4 23 8 48 9 55 0 17 55 15 70
-3z m65 -60 c-15 -36 -32 -65 -36 -65 -5 0 1 21 12 48 12 26 25 58 30 71 5 13
12 21 16 18 3 -4 -7 -36 -22 -72z m-532 58 c-13 -2 -33 -2 -45 0 -13 2 -3 4
22 4 25 0 35 -2 23 -4z m-1510 -21 c9 -10 24 -35 32 -56 17 -40 54 -197 55
-228 0 -33 -19 -18 -25 20 -24 142 -60 247 -90 258 -37 15 -72 -54 -95 -186
-18 -103 -20 -110 -30 -110 -16 0 8 146 37 230 28 82 79 113 116 72z m1600 1
c-7 -2 -19 -2 -25 0 -7 3 -2 5 12 5 14 0 19 -2 13 -5z m219 -18 c-2 -14 2 -33
9 -42 13 -15 12 -15 -8 -4 -25 13 -30 40 -11 59 16 16 16 16 10 -13z m-319 8
c-13 -2 -33 -2 -45 0 -13 2 -3 4 22 4 25 0 35 -2 23 -4z m154 1 c-3 -3 -12 -4
-19 -1 -8 3 -5 6 6 6 11 1 17 -2 13 -5z m487 -10 c9 -8 16 -22 16 -29 0 -15
-27 -45 -40 -45 -12 0 -40 29 -40 42 0 13 30 48 41 48 4 0 15 -7 23 -16z m124
-35 c-8 -25 -8 -33 3 -40 11 -7 10 -9 -3 -9 -14 0 -18 8 -18 38 0 40 7 55 21
47 4 -3 3 -19 -3 -36z m-82 16 c-8 -21 3 -45 21 -45 8 0 11 -5 8 -10 -11 -17
-45 9 -45 34 0 21 7 36 18 36 2 0 2 -7 -2 -15z m44 5 c0 -5 -2 -10 -4 -10 -3
0 -8 5 -11 10 -3 6 -1 10 4 10 6 0 11 -4 11 -10z m-1905 -48 c13 -20 33 -73
45 -117 22 -90 24 -105 11 -105 -5 0 -18 39 -30 86 -24 101 -48 148 -78 152
-27 4 -66 -76 -83 -170 -7 -38 -16 -68 -21 -68 -13 0 -11 21 7 103 9 40 28 91
41 115 20 34 30 42 54 42 22 0 34 -9 54 -38z m1519 -47 c512 -49 655 -65 562
-65 -15 0 -288 25 -607 55 -319 30 -586 55 -594 55 -8 0 -15 4 -15 9 0 5 17 7
38 5 20 -3 298 -29 616 -59z m-1225 16 c25 -27 48 -83 67 -163 10 -46 -14 -32
-26 15 -17 68 -40 125 -55 137 -36 30 -65 -4 -95 -114 -23 -82 -43 -87 -24 -6
22 96 60 158 97 160 5 0 21 -13 36 -29z m305 -34 c13 -13 33 -49 45 -81 24
-65 26 -79 9 -74 -6 2 -18 28 -26 56 -8 28 -26 64 -40 79 l-25 27 -23 -27
c-13 -15 -31 -52 -40 -82 -19 -59 -40 -76 -29 -22 13 58 37 107 63 127 32 25
38 25 66 -3z m305 -28 c22 -21 40 -55 55 -106 9 -27 -12 -32 -21 -5 -40 119
-72 130 -116 40 -15 -32 -32 -58 -37 -58 -17 0 28 104 55 128 32 27 36 27 64
1z m-2042 -26 c-3 -10 -5 -4 -5 12 0 17 2 24 5 18 2 -7 2 -21 0 -30z m-1200
-30 c-3 -10 -5 -2 -5 17 0 19 2 27 5 18 2 -10 2 -26 0 -35z m3537 41 c17 -7
50 -56 61 -93 12 -39 -12 -20 -37 29 -16 31 -29 45 -43 45 -14 0 -27 -14 -43
-45 -12 -25 -27 -46 -32 -48 -13 -5 -13 2 5 45 27 64 51 82 89 67z m311 -20
c19 -8 60 -83 50 -92 -4 -4 -12 2 -19 12 -6 10 -21 30 -32 45 -18 21 -24 23
-37 13 -8 -7 -20 -26 -27 -42 -12 -29 -30 -41 -30 -19 0 14 19 50 38 72 16 18
30 21 57 11z m-8507 -34 c4 -13 3 -13 -11 -2 -13 11 -17 10 -26 -5 -7 -12 -10
-13 -11 -4 0 8 -7 11 -21 8 -15 -4 -18 -2 -10 7 14 17 73 14 79 -4z m8842 -12
c22 -37 25 -48 10 -48 -5 0 -16 14 -25 30 -9 18 -23 30 -35 30 -12 0 -26 -12
-35 -30 -13 -26 -35 -41 -35 -25 0 14 31 64 42 68 34 14 59 6 78 -25z m304
-10 c14 -18 21 -35 15 -36 -5 -2 -19 8 -30 22 -26 33 -38 33 -65 -1 -29 -37
-39 -26 -14 15 26 43 60 43 94 0z m305 -5 c27 -33 18 -43 -12 -15 -29 27 -42
28 -61 1 -8 -12 -20 -19 -26 -17 -7 2 -4 13 10 31 28 35 62 35 89 0z m301 2
c31 -33 17 -45 -16 -14 l-26 24 -19 -23 c-10 -13 -24 -22 -30 -20 -14 5 35 58
54 58 7 0 24 -11 37 -25z m280 19 c0 -4 -12 -18 -26 -31 -36 -33 -55 -23 -22
10 25 25 48 35 48 21z m-10030 -32 c0 -5 -20 -10 -45 -10 -25 -1 -45 2 -45 8
0 5 20 10 45 10 25 0 45 -4 45 -8z m0 -56 c0 -27 -20 -39 -41 -25 -11 7 -9 9
9 9 13 0 22 6 22 16 0 12 -9 14 -40 11 -22 -2 -40 0 -40 5 0 4 20 8 45 8 41 0
45 -2 45 -24z m6172 -73 l1 -68 10 68 c6 37 13 67 17 67 6 0 3 -469 -4 -510
-1 -8 -10 44 -20 115 -23 168 -33 395 -17 395 7 0 12 -24 13 -67z m302 15 c3
-29 6 -78 7 -108 1 -76 8 -51 17 60 5 66 11 95 21 98 10 3 12 -2 8 -19 -3 -13
-11 -137 -17 -274 -5 -138 -13 -275 -17 -305 l-6 -55 -8 40 c-4 22 -10 123
-13 225 -4 102 -9 231 -12 288 -6 107 8 143 20 50z m300 -35 c4 -49 10 -117
13 -153 7 -62 8 -58 19 83 12 139 17 167 29 156 2 -3 -1 -80 -7 -172 -12 -161
-13 -167 -34 -167 -20 0 -22 6 -28 73 -16 195 -18 267 -8 267 5 0 13 -39 16
-87z m301 35 c15 -121 20 -288 9 -288 -7 0 -13 42 -17 118 -4 64 -10 141 -13
170 -5 34 -3 52 4 52 6 0 13 -24 17 -52z m74 2 c-4 -28 -11 -104 -15 -170 -4
-70 -11 -120 -17 -120 -7 0 -8 41 -4 118 10 165 18 222 32 222 9 0 10 -13 4
-50z m224 23 c11 -56 30 -304 23 -310 -11 -11 -14 0 -25 122 -6 66 -14 141
-18 168 -6 51 10 68 20 20z m93 -5 c-10 -60 -26 -212 -26 -260 0 -32 -4 -48
-13 -48 -14 0 -14 14 4 195 12 125 16 145 31 145 6 0 8 -13 4 -32z m207 10 c6
-26 25 -200 29 -270 2 -33 -1 -48 -9 -48 -9 0 -13 16 -13 48 0 47 -13 170 -26
250 -7 44 9 61 19 20z m107 15 c0 -5 -7 -62 -15 -128 -8 -65 -15 -139 -15
-162 0 -24 -4 -43 -10 -43 -14 0 -12 96 5 220 8 58 15 108 15 113 0 4 5 7 10
7 6 0 10 -3 10 -7z m195 -15 c23 -101 41 -318 27 -318 -6 0 -13 35 -17 78 -6
68 -12 119 -31 230 -6 36 13 45 21 10z m121 7 c-7 -19 -35 -217 -38 -274 -2
-25 -8 -46 -15 -48 -9 -3 -11 10 -7 49 9 90 35 272 40 280 9 14 26 8 20 -7z
m195 -86 c21 -127 30 -239 19 -239 -10 0 -11 6 -34 187 -9 67 -19 129 -23 139
-4 12 -2 15 8 12 9 -3 20 -38 30 -99z m119 97 c0 -3 -7 -37 -15 -77 -9 -40
-18 -112 -22 -161 -5 -76 -15 -110 -28 -97 -8 10 23 259 41 322 5 14 24 25 24
13z m174 -28 c16 -86 36 -237 36 -270 0 -77 -17 -35 -29 70 -6 59 -17 135 -25
170 -10 48 -10 62 0 62 6 0 14 -15 18 -32z m136 28 c0 -3 -7 -37 -15 -76 -8
-39 -18 -109 -21 -155 -7 -80 -16 -116 -29 -104 -15 16 38 339 56 339 5 0 9
-2 9 -4z m169 -43 c29 -128 47 -293 33 -293 -6 0 -13 21 -16 48 -7 53 -34 222
-42 265 -4 15 -2 27 4 27 5 0 15 -21 21 -47z m141 34 c0 -6 -4 -28 -10 -47 -5
-19 -17 -89 -26 -155 -15 -120 -19 -134 -30 -122 -16 16 39 337 57 337 5 0 9
-6 9 -13z m162 -23 c10 -38 35 -185 42 -252 4 -39 2 -52 -7 -49 -7 2 -15 34
-19 78 -8 74 -33 215 -45 245 -4 11 -2 15 7 12 8 -2 18 -18 22 -34z m148 30
c0 -3 -9 -49 -19 -102 -11 -54 -22 -127 -26 -164 -4 -38 -11 -68 -16 -68 -12
0 -11 17 2 120 13 111 38 220 50 220 5 0 9 -3 9 -6z m158 -37 c16 -62 42 -227
42 -264 0 -59 -18 -34 -25 35 -3 37 -15 110 -26 164 -22 111 -22 108 -10 108
5 0 13 -19 19 -43z m147 16 c-14 -58 -33 -171 -40 -240 -7 -73 -25 -102 -25
-40 1 89 45 307 62 307 6 0 7 -11 3 -27z m155 2 c12 -31 37 -170 45 -252 8
-75 -10 -89 -20 -15 -12 91 -35 227 -44 260 -11 38 5 45 19 7z m156 3 c-14
-44 -45 -233 -46 -270 0 -31 -14 -58 -24 -47 -4 5 20 202 29 244 14 62 27 95
37 95 6 0 8 -9 4 -22z m-10023 -35 c-40 -2 -107 -2 -150 0 -43 1 -10 3 72 3
83 0 118 -2 78 -3z m5037 -69 c0 -47 -3 -55 -17 -52 -24 4 -29 53 -8 84 8 13
18 24 20 24 3 0 5 -25 5 -56z m-5066 32 c19 -8 37 -19 41 -26 6 -9 2 -9 -14 0
-34 18 -128 14 -159 -6 -26 -17 -26 -17 -12 1 17 20 66 44 93 45 10 0 33 -6
51 -14z m-29 -68 c25 -11 34 -33 32 -75 -1 -20 -3 -21 -17 -8 -9 8 -24 15 -33
15 -9 0 -19 5 -23 12 -5 7 -1 9 12 6 10 -3 25 -7 33 -9 8 -2 16 3 18 13 6 23
-61 45 -82 28 -18 -15 -20 1 -3 18 15 15 30 15 63 0z m395 -102 c0 -23 5 -47
12 -54 9 -9 9 -12 0 -12 -7 0 -12 -9 -12 -20 0 -11 -4 -20 -10 -20 -5 0 -10 9
-10 20 0 16 -7 20 -35 20 -19 0 -35 3 -35 6 0 13 76 111 83 107 4 -2 7 -23 7
-47z m110 34 c38 -38 17 -140 -29 -140 -26 0 -42 23 -48 67 -4 29 0 44 17 66
26 32 34 33 60 7z m-500 -44 c33 -1 36 -19 4 -24 -22 -3 -74 33 -74 50 0 6 9
3 20 -7 11 -10 33 -18 50 -19z m5090 -36 c0 -33 -4 -60 -8 -60 -20 0 -32 28
-32 72 0 41 3 48 20 48 18 0 20 -7 20 -60z m-4822 13 c-15 -2 -42 -2 -60 0
-18 2 -6 4 27 4 33 0 48 -2 33 -4z m5709 -445 c-1 -79 -3 -15 -3 142 0 157 2
221 3 143 2 -79 2 -207 0 -285z m-6026 386 c30 -4 58 -1 84 10 l40 16 -24 -20
c-46 -39 -122 -38 -157 3 -12 14 -13 17 -3 9 9 -6 36 -15 60 -18z m6982 -121
c-2 -54 -8 -150 -15 -213 -16 -157 -26 -113 -27 123 l-1 187 23 0 c21 0 22 -2
20 -97z m303 -80 c-7 -222 -16 -323 -27 -323 -5 0 -9 111 -9 250 0 248 0 250
21 250 21 0 21 -2 15 -177z m314 98 c0 -123 -21 -445 -31 -461 -5 -9 -9 78 -9
210 0 124 -3 248 -6 276 -6 50 -6 52 20 52 26 0 26 -1 26 -77z m281 57 l2 -23
4 23 c10 51 23 16 23 -60 0 -177 -24 -497 -36 -485 -3 2 -7 131 -11 286 -4
209 -3 281 5 281 7 0 13 -10 13 -22z m307 -20 l10 -43 1 43 c1 58 21 53 21 -5
0 -110 -21 -481 -29 -509 -6 -21 -10 1 -14 86 -11 186 -14 470 -6 470 4 0 12
-19 17 -42z m302 -3 c0 -25 5 -45 10 -45 6 0 10 20 10 45 0 25 5 45 10 45 12
0 12 22 0 -280 -11 -272 -23 -356 -33 -230 -12 141 -16 510 -6 510 5 0 9 -20
9 -45z m311 -12 l2 -58 10 58 c16 88 29 68 23 -35 -3 -51 -8 -167 -11 -258 -7
-185 -13 -239 -26 -218 -5 7 -9 78 -10 158 -1 80 -4 205 -8 278 -5 102 -3 132
7 132 8 0 12 -19 13 -57z m303 26 c3 -17 7 -48 7 -68 1 -24 4 -15 9 27 6 58
14 82 24 71 4 -5 -12 -431 -20 -516 -3 -35 -9 -63 -14 -63 -9 0 -18 150 -23
403 -4 166 2 218 17 146z m307 -11 c1 -24 5 -56 9 -73 6 -23 8 -12 9 43 1 58
4 72 17 72 10 0 14 -6 10 -17 -2 -10 -7 -110 -11 -223 -7 -242 -14 -340 -25
-340 -11 0 -18 107 -24 363 -3 132 -1 217 5 217 5 0 10 -19 10 -42z m309 -30
c0 -51 3 -68 10 -58 5 8 10 41 10 73 0 32 4 57 10 57 10 0 7 -276 -6 -487 -6
-103 -20 -122 -28 -40 -11 114 -16 527 -6 527 6 0 10 -30 10 -72z m304 56 c3
-9 7 -43 7 -77 l2 -62 8 74 c8 71 14 90 23 80 6 -6 -13 -572 -19 -578 -20 -20
-33 113 -37 377 -3 188 1 226 16 186z m-9914 -74 c-19 -11 -42 -19 -50 -19 -8
0 1 8 20 19 19 11 42 19 50 19 8 0 -1 -8 -20 -19z m4717 -72 c-2 -13 -4 -3 -4
22 0 25 2 35 4 23 2 -13 2 -33 0 -45z m-4842 -3 c15 -11 10 -11 -17 2 -21 10
-38 24 -38 30 0 9 5 9 18 -2 9 -8 26 -22 37 -30z m80 -50 c19 -15 17 -16 -32
-10 -29 4 -53 5 -53 2 0 -3 23 -19 50 -37 28 -18 49 -34 48 -35 -2 -2 -36 -1
-75 2 -49 4 -73 10 -73 18 0 9 14 11 48 8 l47 -4 -25 20 c-14 12 -35 24 -47
27 -43 11 -26 29 23 25 35 -2 45 0 39 9 -9 14 18 1 50 -25z m4762 -137 c-2
-24 -4 -5 -4 42 0 47 2 66 4 43 2 -24 2 -62 0 -85z m-4657 12 c0 -6 -55 -10
-145 -10 -90 0 -145 4 -145 10 0 6 55 10 145 10 90 0 145 -4 145 -10z m4359
-95 c2 22 6 53 10 69 l6 30 12 -26 c9 -20 9 -50 1 -123 -10 -92 -12 -95 -29
-79 -17 15 -19 31 -17 128 2 109 2 110 8 36 5 -54 7 -64 9 -35z m6237 -34 l2
-78 -31 -1 c-17 0 -37 4 -44 10 -18 14 -16 63 2 78 14 11 14 10 7 -11 -13 -32
3 -72 25 -67 15 3 18 15 20 68 1 80 1 80 11 80 4 0 8 -35 8 -79z m-326 52
c-24 -10 -30 -17 -20 -20 29 -11 50 -36 49 -62 l-1 -26 -10 28 c-6 16 -20 30
-34 33 -26 7 -29 16 -14 45 7 12 21 19 38 19 26 -1 26 -1 -8 -17z m87 3 c-3
-8 2 -21 12 -30 15 -14 20 -14 30 -3 6 8 8 23 4 32 -4 13 -3 16 5 11 17 -10
15 -31 -3 -46 -14 -12 -14 -15 0 -30 8 -9 15 -27 14 -41 0 -22 -1 -22 -9 -4
-4 11 -22 33 -39 49 -30 28 -39 55 -24 69 11 11 15 8 10 -7z m305 -56 c-2 -63
-1 -70 17 -70 52 0 72 43 29 59 -20 8 -21 10 -5 16 20 8 23 35 5 53 -9 9 -8
12 5 12 23 0 42 -37 27 -55 -8 -10 -8 -19 2 -34 21 -34 0 -55 -58 -59 l-49 -3
0 76 c0 60 3 75 15 75 12 0 14 -13 12 -70z m-489 -7 c-18 -2 -48 -2 -65 0 -18
2 -4 4 32 4 36 0 50 -2 33 -4z m188 -21 c-6 -11 -6 -24 1 -37 10 -19 9 -19 -7
-4 -18 17 -13 59 6 59 6 0 6 -6 0 -18z m-106 -42 c18 -8 17 -9 -7 -9 -16 -1
-28 4 -28 9 0 12 8 12 35 0z m-3814 -103 c10 -23 24 -67 31 -97 10 -45 13 -50
18 -30 4 14 10 -36 14 -110 4 -74 11 -175 14 -225 l7 -90 13 140 c15 174 43
312 74 367 19 35 29 44 55 46 52 5 94 -67 126 -218 18 -80 46 -325 48 -412 1
-36 4 -21 10 47 19 221 53 367 99 418 28 31 30 31 57 17 73 -41 120 -221 148
-572 6 -81 1 -91 -35 -68 -13 9 -13 11 -1 19 12 8 12 21 3 80 -7 38 -12 90
-12 114 0 115 -55 338 -94 384 -21 24 -26 26 -41 13 -28 -23 -43 -63 -64 -166
-16 -79 -41 -330 -41 -408 0 -14 16 -16 100 -16 55 0 100 -4 100 -9 0 -9 -235
-21 -256 -14 -8 3 -13 72 -17 216 -7 279 -40 460 -97 528 -24 29 -30 32 -43
20 -26 -21 -54 -109 -71 -221 -16 -106 -36 -356 -36 -462 l0 -58 110 0 c61 0
110 -4 110 -9 0 -9 -236 -20 -276 -13 -21 4 -21 5 -16 223 5 229 -4 340 -38
477 -10 40 -26 84 -35 98 -15 24 -18 25 -34 10 -51 -47 -110 -434 -111 -728
l0 -58 90 0 c53 0 90 -4 90 -10 0 -6 -39 -11 -95 -11 -52 -1 -101 -2 -107 -3
-7 -1 -12 8 -11 19 1 11 7 103 13 205 21 347 58 549 111 603 24 24 32 26 50
17 11 -7 29 -30 40 -53z m-6061 31 c37 -40 17 -138 -29 -138 -26 0 -42 23 -48
67 -4 29 0 44 17 66 26 33 33 33 60 5z m3800 -18 c52 -103 84 -328 102 -738
l3 -63 -155 0 c-249 -1 -280 0 -280 11 0 6 25 10 57 10 l56 0 -6 178 c-7 173
-20 323 -33 366 l-6 21 20 -20 c17 -16 23 -41 31 -124 6 -57 12 -126 12 -155
1 -35 6 -16 14 64 7 63 13 122 14 130 1 10 4 11 12 3 10 -10 14 -102 18 -360
l1 -103 108 0 107 0 -3 83 c-10 324 -46 585 -93 679 -21 42 -24 58 -9 58 5 0
19 -18 30 -40z m2338 33 c-10 -2 -28 -2 -40 0 -13 2 -5 4 17 4 22 1 32 -1 23
-4z m110 0 c-10 -2 -28 -2 -40 0 -13 2 -5 4 17 4 22 1 32 -1 23 -4z m120 0
c-10 -2 -28 -2 -40 0 -13 2 -5 4 17 4 22 1 32 -1 23 -4z m110 0 c-10 -2 -28
-2 -40 0 -13 2 -5 4 17 4 22 1 32 -1 23 -4z m120 0 c-10 -2 -28 -2 -40 0 -13
2 -5 4 17 4 22 1 32 -1 23 -4z m110 0 c-10 -2 -28 -2 -40 0 -13 2 -5 4 17 4
22 1 32 -1 23 -4z m120 0 c-10 -2 -28 -2 -40 0 -13 2 -5 4 17 4 22 1 32 -1 23
-4z m110 0 c-10 -2 -28 -2 -40 0 -13 2 -5 4 17 4 22 1 32 -1 23 -4z m120 0
c-10 -2 -28 -2 -40 0 -13 2 -5 4 17 4 22 1 32 -1 23 -4z m110 0 c-10 -2 -28
-2 -40 0 -13 2 -5 4 17 4 22 1 32 -1 23 -4z m120 0 c-10 -2 -28 -2 -40 0 -13
2 -5 4 17 4 22 1 32 -1 23 -4z m110 0 c-10 -2 -28 -2 -40 0 -13 2 -5 4 17 4
22 1 32 -1 23 -4z m120 0 c-10 -2 -28 -2 -40 0 -13 2 -5 4 17 4 22 1 32 -1 23
-4z m110 0 c-10 -2 -28 -2 -40 0 -13 2 -5 4 17 4 22 1 32 -1 23 -4z m120 0
c-10 -2 -28 -2 -40 0 -13 2 -5 4 17 4 22 1 32 -1 23 -4z m110 0 c-10 -2 -28
-2 -40 0 -13 2 -5 4 17 4 22 1 32 -1 23 -4z m120 0 c-10 -2 -28 -2 -40 0 -13
2 -5 4 17 4 22 1 32 -1 23 -4z m110 0 c-10 -2 -28 -2 -40 0 -13 2 -5 4 17 4
22 1 32 -1 23 -4z m120 0 c-10 -2 -28 -2 -40 0 -13 2 -5 4 17 4 22 1 32 -1 23
-4z m110 0 c-10 -2 -28 -2 -40 0 -13 2 -5 4 17 4 22 1 32 -1 23 -4z m120 0
c-10 -2 -28 -2 -40 0 -13 2 -5 4 17 4 22 1 32 -1 23 -4z m110 0 c-10 -2 -28
-2 -40 0 -13 2 -5 4 17 4 22 1 32 -1 23 -4z m120 0 c-10 -2 -28 -2 -40 0 -13
2 -5 4 17 4 22 1 32 -1 23 -4z m110 0 c-10 -2 -28 -2 -40 0 -13 2 -5 4 17 4
22 1 32 -1 23 -4z m120 0 c-10 -2 -28 -2 -40 0 -13 2 -5 4 17 4 22 1 32 -1 23
-4z m110 0 c-10 -2 -28 -2 -40 0 -13 2 -5 4 17 4 22 1 32 -1 23 -4z m120 0
c-10 -2 -28 -2 -40 0 -13 2 -5 4 17 4 22 1 32 -1 23 -4z m110 0 c-10 -2 -28
-2 -40 0 -13 2 -5 4 17 4 22 1 32 -1 23 -4z m120 0 c-10 -2 -28 -2 -40 0 -13
2 -5 4 17 4 22 1 32 -1 23 -4z m110 0 c-10 -2 -28 -2 -40 0 -13 2 -5 4 17 4
22 1 32 -1 23 -4z m120 0 c-10 -2 -28 -2 -40 0 -13 2 -5 4 17 4 22 1 32 -1 23
-4z m110 0 c-10 -2 -28 -2 -40 0 -13 2 -5 4 17 4 22 1 32 -1 23 -4z m120 0
c-10 -2 -28 -2 -40 0 -13 2 -5 4 17 4 22 1 32 -1 23 -4z m110 0 c-10 -2 -28
-2 -40 0 -13 2 -5 4 17 4 22 1 32 -1 23 -4z m120 0 c-10 -2 -28 -2 -40 0 -13
2 -5 4 17 4 22 1 32 -1 23 -4z m110 0 c-10 -2 -28 -2 -40 0 -13 2 -5 4 17 4
22 1 32 -1 23 -4z m120 0 c-10 -2 -28 -2 -40 0 -13 2 -5 4 17 4 22 1 32 -1 23
-4z m85 0 c-7 -2 -19 -2 -25 0 -7 3 -2 5 12 5 14 0 19 -2 13 -5z m-10502 -27
c-13 -14 -20 -29 -16 -35 3 -6 1 -11 -4 -11 -12 0 -14 -29 -5 -54 8 -20 40
-21 47 -2 7 18 -3 56 -14 56 -5 0 -9 5 -9 10 0 18 19 10 36 -15 15 -23 15 -27
0 -50 -19 -29 -42 -32 -68 -8 -39 35 -6 128 46 132 5 1 -1 -10 -13 -23z m8396
-33 c-3 -10 -5 -4 -5 12 0 17 2 24 5 18 2 -7 2 -21 0 -30z m310 5 c-3 -7 -5
-2 -5 12 0 14 2 19 5 13 2 -7 2 -19 0 -25z m310 10 c-3 -8 -6 -5 -6 6 -1 11 2
17 5 13 3 -3 4 -12 1 -19z m305 -3 c-2 -14 -6 -25 -8 -25 -2 0 -4 11 -4 25 0
14 4 25 9 25 4 0 6 -11 3 -25z m305 -37 c-2 -13 -4 -3 -4 22 0 25 2 35 4 23 2
-13 2 -33 0 -45z m-5506 -140 c-6 -90 -11 -259 -11 -376 l0 -212 110 0 c67 0
110 -4 110 -10 0 -6 -44 -10 -112 -10 -62 0 -123 -3 -136 -6 -23 -7 -23 -6
-18 67 3 41 11 214 17 384 6 171 13 321 15 334 5 22 7 23 21 9 13 -14 14 -35
4 -180z m-478 164 c15 -16 47 -83 47 -97 0 -14 -22 9 -46 47 -14 22 -34 43
-45 45 -10 3 -19 9 -19 14 0 16 47 9 63 -9z m-3735 -19 c-15 -2 -42 -2 -60 0
-18 2 -6 4 27 4 33 0 48 -2 33 -4z m3623 -99 c-19 -57 -51 -242 -51 -300 -1
-28 -1 -28 -15 -10 -17 23 -13 81 15 223 23 111 46 171 61 156 7 -7 4 -28 -10
-69z m4499 43 c0 -17 -33 -107 -39 -107 -5 0 -1 25 8 55 9 30 19 55 24 55 4 0
7 -1 7 -3z m-4212 -75 c-13 -67 -31 -78 -36 -21 -2 24 4 44 19 63 12 15 23 25
25 23 2 -2 -2 -31 -8 -65z m4268 41 c0 -10 6 -18 14 -18 8 0 14 8 14 17 -1 10
2 15 7 12 14 -8 10 -34 -6 -40 -10 -4 -12 -11 -6 -22 9 -19 4 -42 -9 -42 -4 0
-6 8 -3 19 3 10 -1 22 -7 26 -14 9 -32 -14 -25 -33 3 -7 0 -10 -5 -7 -15 9
-12 31 5 45 8 7 12 16 9 22 -6 9 2 38 10 38 2 0 3 -8 2 -17z m-179 1 c-3 -3
-12 -4 -19 -1 -8 3 -5 6 6 6 11 1 17 -2 13 -5z m40 -10 c-3 -3 -12 -4 -19 -1
-8 3 -5 6 6 6 11 1 17 -2 13 -5z m-4622 -28 c24 -24 69 -151 59 -167 -12 -20
-21 -7 -33 44 -15 67 -46 119 -69 115 -39 -7 -112 -234 -112 -351 0 -21 -7
-36 -20 -45 -24 -15 -24 -23 0 123 24 143 55 238 91 276 33 35 53 36 84 5z
m4935 22 c0 -2 -6 -26 -14 -55 -8 -28 -11 -55 -7 -58 6 -7 -47 4 -61 12 -14 7
-9 41 8 58 9 9 24 13 35 10 14 -5 19 -1 19 14 0 12 5 21 10 21 6 0 10 -1 10
-2z m93 -47 c5 -5 6 -18 2 -28 -4 -10 -8 -29 -9 -43 -1 -22 -5 -25 -39 -24
-21 1 -40 3 -42 6 -3 2 1 29 7 60 12 56 12 56 42 47 16 -5 34 -13 39 -18z
m-178 -136 c621 -175 688 -195 682 -202 -3 -3 -29 2 -59 10 -29 9 -303 86
-608 172 -305 87 -559 162 -565 167 -7 7 -3 8 10 5 11 -3 254 -72 540 -152z
m254 88 c-38 -64 -61 -94 -66 -89 -7 7 69 126 80 126 5 0 -2 -17 -14 -37z m75
-29 c20 -19 20 -25 2 -50 -13 -18 -14 -17 -13 16 2 25 -2 35 -13 35 -10 0 -15
-10 -15 -32 0 -18 -3 -33 -6 -33 -7 0 -19 25 -19 40 0 11 29 40 40 40 5 0 16
-7 24 -16z m54 -15 c-25 -14 -22 -48 5 -59 21 -9 21 -9 -4 -9 -16 -1 -29 6
-33 15 -7 19 19 64 37 64 6 0 4 -5 -5 -11z m75 -11 c-3 -13 -7 -35 -10 -50 -3
-15 -9 -25 -14 -22 -12 7 0 77 15 86 15 11 15 11 9 -14z m-1534 -8 c25 -13 68
-114 86 -201 22 -108 44 -283 36 -291 -14 -15 -51 4 -50 26 0 11 3 15 6 9 8
-22 24 -14 19 10 -3 12 -10 60 -17 107 -16 114 -46 235 -70 282 -24 48 -54 48
-81 2 -26 -44 -57 -194 -64 -313 l-7 -101 91 0 c55 0 92 -4 92 -10 0 -6 -36
-10 -89 -10 -49 0 -97 -3 -107 -7 -16 -6 -17 1 -11 98 11 177 50 343 93 390
19 21 46 24 73 9z m-3684 -224 c6 -56 5 -68 -6 -64 -9 3 -17 28 -21 69 -4 35
-9 80 -12 99 l-5 35 19 -35 c10 -19 21 -66 25 -104z m4011 79 c31 -32 52 -79
74 -175 23 -98 32 -159 25 -170 -10 -16 -36 1 -30 20 7 21 -18 142 -46 226
-32 99 -71 118 -105 53 -18 -36 -54 -197 -54 -246 0 -33 0 -33 50 -33 49 0 50
1 50 30 0 17 5 30 10 30 6 0 10 -13 10 -30 0 -23 5 -30 19 -30 11 0 23 -4 26
-10 4 -6 -25 -10 -79 -10 -46 0 -91 -3 -100 -6 -21 -8 -21 46 0 156 27 145 65
220 112 220 7 0 24 -11 38 -25z m-3962 -142 c6 -17 3 -23 -8 -23 -12 0 -16 10
-16 38 1 38 10 32 24 -15z m4286 15 c21 -23 53 -99 65 -158 4 -19 12 -41 17
-47 10 -13 8 -14 -24 -17 -6 -1 -13 13 -15 29 -6 52 -43 151 -63 173 -24 26
-40 21 -63 -17 -14 -25 -47 -131 -47 -153 0 -4 31 -8 69 -8 97 0 103 -20 7
-21 -42 -1 -82 -2 -88 -3 -31 -2 13 180 53 222 25 28 63 28 89 0z m-4315 -90
c22 -10 25 -17 25 -60 l0 -48 45 0 c25 0 45 -4 45 -10 0 -11 -66 -15 -175 -11
-86 4 -113 21 -32 21 l57 0 0 60 c0 33 2 60 5 60 2 0 16 -5 30 -12z m4628 -23
c13 -14 30 -39 37 -55 7 -17 19 -30 26 -30 8 0 14 -4 14 -10 0 -5 -4 -10 -9
-10 -5 0 -16 -2 -23 -5 -10 -4 -22 11 -37 45 -29 64 -47 72 -78 34 -35 -44
-30 -54 27 -54 28 0 50 -4 50 -9 0 -10 -112 -20 -143 -13 -17 4 -17 6 3 24 11
10 20 25 20 32 0 19 55 76 73 76 8 0 26 -11 40 -25z m-4952 -79 c5 -6 9 6 9
33 0 38 2 42 15 31 8 -7 15 -25 15 -41 0 -25 4 -29 29 -29 45 0 49 -20 4 -21
-21 -1 -52 -2 -70 -4 -18 -1 -40 3 -50 11 -17 13 -17 13 0 14 13 0 17 9 17 38
0 52 14 64 18 15 2 -21 8 -42 13 -47z m-3090 54 c23 -13 25 -33 4 -50 -14 -12
-14 -15 0 -30 13 -15 22 -60 11 -60 -2 0 -13 -3 -23 -6 -17 -6 -17 -6 0 7 16
13 16 16 2 37 -9 12 -20 22 -25 22 -15 0 -22 -40 -10 -55 8 -10 9 -15 2 -15
-23 0 -32 36 -15 59 11 17 12 26 4 34 -14 14 -14 44 -1 52 5 3 7 0 4 -8 -6
-17 23 -50 37 -42 15 10 10 43 -8 54 -24 14 -7 14 18 1z m119 -10 c38 -38 17
-140 -29 -140 -26 0 -42 23 -48 67 -4 29 0 44 17 66 26 32 34 33 60 7z m9650
-20 l0 -30 121 0 c107 0 120 2 115 16 -5 12 -2 15 11 9 10 -4 32 -11 48 -17
17 -5 37 -12 45 -15 9 -3 -4 -10 -30 -18 -25 -6 -53 -16 -63 -20 -13 -5 -16
-4 -11 9 6 14 -14 16 -190 16 -124 0 -196 4 -196 10 0 6 28 10 65 10 l65 0 0
30 c0 17 5 30 10 30 6 0 10 -13 10 -30z m462 -2 c-27 -30 -40 -78 -20 -78 19
0 38 20 38 41 0 10 5 21 12 25 7 5 9 1 6 -12 -3 -10 -7 -25 -9 -33 -2 -8 3
-16 12 -18 24 -6 46 53 30 79 -11 17 -10 18 9 8 23 -12 25 -28 8 -65 -12 -28
-31 -34 -93 -32 -33 2 -41 6 -43 25 -2 14 7 33 27 52 34 35 55 41 23 8z
m-1612 -28 c21 0 42 -4 45 -10 4 -6 -15 -10 -50 -10 -48 0 -56 3 -51 16 3 9 7
21 7 27 1 7 3 4 6 -5 3 -13 15 -18 43 -18z m-755 -10 c-3 -5 -11 -10 -16 -10
-6 0 -7 5 -4 10 3 6 11 10 16 10 6 0 7 -4 4 -10z m330 0 c4 -6 -5 -10 -19 -10
-14 0 -26 5 -26 10 0 6 9 10 19 10 11 0 23 -4 26 -10z m155 0 c0 -6 -27 -10
-60 -10 -33 0 -60 4 -60 10 0 6 27 10 60 10 33 0 60 -4 60 -10z m75 0 c3 -5
-3 -10 -15 -10 -12 0 -18 5 -15 10 3 6 10 10 15 10 5 0 12 -4 15 -10z m105 0
c0 -5 -15 -10 -34 -10 -19 0 -38 5 -41 10 -4 6 10 10 34 10 23 0 41 -4 41 -10z
m185 0 c3 -5 1 -10 -4 -10 -6 0 -11 5 -11 10 0 6 2 10 4 10 3 0 8 -4 11 -10z
m185 0 c0 -6 -32 -10 -75 -10 -43 0 -75 4 -75 10 0 6 32 10 75 10 43 0 75 -4
75 -10z m380 0 c0 -6 -52 -10 -135 -10 -83 0 -135 4 -135 10 0 6 52 10 135 10
83 0 135 -4 135 -10z m310 0 c0 -6 -53 -10 -140 -10 -87 0 -140 4 -140 10 0 6
53 10 140 10 87 0 140 -4 140 -10z m-9702 -7 c-15 -2 -42 -2 -60 0 -18 2 -6 4
27 4 33 0 48 -2 33 -4z m9075 0 c-7 -2 -19 -2 -25 0 -7 3 -2 5 12 5 14 0 19
-2 13 -5z m-4936 -55 c-3 -7 -5 -2 -5 12 0 14 2 19 5 13 2 -7 2 -19 0 -25z
m1280 -35 c-2 -16 -4 -5 -4 22 0 28 2 40 4 28 2 -13 2 -35 0 -50z m660 35 c-3
-7 -5 -2 -5 12 0 14 2 19 5 13 2 -7 2 -19 0 -25z m-937 -9 c16 -28 12 -96 -6
-114 -26 -26 -57 -15 -70 25 -26 79 40 156 76 89z m-2360 -116 c-13 -38 -27
-72 -32 -78 -11 -11 -11 -10 23 100 12 39 24 64 26 58 3 -7 -5 -43 -17 -80z
m4734 -44 c-20 -63 -39 -109 -41 -103 -2 7 13 63 33 125 20 63 39 109 41 103
2 -7 -13 -63 -33 -125z m-3377 69 c-2 -13 -4 -5 -4 17 -1 22 1 32 4 23 2 -10
2 -28 0 -40z m1940 0 c-2 -13 -4 -5 -4 17 -1 22 1 32 4 23 2 -10 2 -28 0 -40z
m-3197 35 c0 -5 -11 -13 -25 -20 -28 -13 -34 1 -7 16 21 12 32 14 32 4z m4764
-9 c24 -23 20 -45 -16 -88 l-32 -39 36 5 c26 3 34 0 31 -9 -3 -8 -23 -13 -50
-13 l-45 0 36 42 c20 23 36 49 36 59 0 23 -24 41 -46 33 -18 -5 -18 -5 0 10
25 20 31 20 50 0z m-2227 -16 c-3 -8 -6 -5 -6 6 -1 11 2 17 5 13 3 -3 4 -12 1
-19z m-2719 -35 c-22 -6 -43 -64 -26 -74 17 -11 3 -23 -17 -15 -14 5 -14 9 0
42 18 44 18 44 2 44 -8 0 -22 -19 -33 -42 -10 -23 -25 -44 -32 -46 -7 -2 -1
13 13 33 29 44 32 57 8 48 -11 -4 -14 -3 -9 5 4 7 29 12 59 11 29 -1 44 -3 35
-6z m205 -8 c-3 -9 -8 -14 -10 -11 -3 3 -2 9 2 15 9 16 15 13 8 -4z m4545 8
c-21 -6 -47 -65 -30 -71 16 -5 5 -22 -15 -22 -11 0 -14 6 -9 23 17 60 18 67 8
67 -6 0 -20 -20 -31 -45 -11 -25 -24 -45 -30 -45 -6 0 -1 17 11 37 16 26 19
38 10 41 -28 9 3 22 51 21 29 -1 45 -3 35 -6z m-6994 -13 c-27 -11 -51 -70
-28 -70 8 0 12 -4 9 -10 -3 -5 -13 -10 -22 -10 -16 0 -15 28 2 73 15 38 -16
15 -37 -28 -12 -25 -26 -45 -30 -45 -13 0 -9 10 12 37 22 28 27 59 8 47 -7 -4
-8 -3 -4 4 4 7 30 12 59 11 39 0 47 -2 31 -9z m9464 3 c-21 -6 -47 -65 -30
-71 16 -5 5 -22 -15 -22 -11 0 -14 6 -9 23 17 60 18 67 8 67 -6 0 -20 -20 -31
-45 -11 -25 -24 -45 -30 -45 -6 0 -1 17 11 37 16 26 19 38 10 41 -28 9 3 22
51 21 29 -1 45 -3 35 -6z m-7358 -23 c0 -5 -25 -10 -56 -10 -34 0 -53 4 -49
10 3 6 28 10 56 10 27 0 49 -4 49 -10z m-2245 -10 c4 -6 -18 -10 -55 -10 -34
0 -59 4 -56 9 8 12 104 13 111 1z m4625 -10 c90 0 131 -4 145 -14 15 -11 22
-11 44 0 18 10 65 14 147 14 66 0 125 4 132 10 7 5 5 2 -3 -8 -13 -14 -37 -17
-147 -19 -108 -2 -134 -6 -141 -19 -8 -14 -10 -14 -20 0 -9 11 -41 15 -144 18
-111 2 -135 6 -148 20 -8 10 -10 13 -3 8 7 -6 69 -10 138 -10z m-803 -42 c-2
-13 -4 -5 -4 17 -1 22 1 32 4 23 2 -10 2 -28 0 -40z m1940 0 c-2 -13 -4 -5 -4
17 -1 22 1 32 4 23 2 -10 2 -28 0 -40z m-3157 22 c0 -5 -5 -10 -11 -10 -5 0
-7 5 -4 10 3 6 8 10 11 10 2 0 4 -4 4 -10z m2214 -134 c-14 -47 -30 -86 -35
-86 -5 0 -5 10 0 23 5 12 19 56 31 97 13 41 25 70 27 63 2 -6 -8 -50 -23 -97z
m-164 24 c3 -55 1 -70 -10 -70 -5 0 -10 6 -10 14 0 8 -11 16 -26 18 -24 3 -24
4 -10 23 13 16 15 17 10 3 -4 -12 -1 -18 10 -18 11 0 16 9 16 26 0 15 -4 23
-11 19 -6 -4 -5 2 3 14 16 26 26 16 28 -29z m271 8 c7 -18 17 -36 22 -39 6 -4
7 -15 3 -25 -6 -16 -11 -12 -24 21 -9 22 -19 42 -24 43 -4 2 -8 13 -8 23 0 28
15 16 31 -23z m53 27 c-4 -8 -8 -15 -10 -15 -2 0 -4 7 -4 15 0 8 4 15 10 15 5
0 7 -7 4 -15z m-1157 -57 c-2 -13 -4 -5 -4 17 -1 22 1 32 4 23 2 -10 2 -28 0
-40z m1940 0 c-2 -13 -4 -5 -4 17 -1 22 1 32 4 23 2 -10 2 -28 0 -40z m-1006
16 c-11 -14 -17 -32 -14 -40 3 -8 0 -14 -7 -14 -7 0 -10 8 -7 18 13 46 12 47
-12 44 -15 -2 -21 0 -17 7 4 6 23 11 42 11 l35 0 -20 -26z m-51 -34 c-6 -12
-14 -20 -17 -17 -2 3 1 14 8 26 17 26 24 19 9 -9z m180 -15 c0 -8 -4 -15 -10
-15 -5 0 -7 7 -4 15 4 8 8 15 10 15 2 0 4 -7 4 -15z m-1063 -77 c-2 -13 -4 -5
-4 17 -1 22 1 32 4 23 2 -10 2 -28 0 -40z m1940 0 c-2 -13 -4 -5 -4 17 -1 22
1 32 4 23 2 -10 2 -28 0 -40z m-986 -35 c10 -10 16 -10 27 0 19 15 637 28 621
12 -6 -6 -128 -11 -312 -13 -258 -2 -303 -5 -310 -18 -8 -14 -10 -14 -20 0
-10 13 -57 16 -314 18 -184 2 -306 7 -312 13 -7 7 93 8 299 5 225 -4 312 -8
321 -17z m-954 -85 c-2 -13 -4 -5 -4 17 -1 22 1 32 4 23 2 -10 2 -28 0 -40z
m998 -48 c-16 -50 -33 -90 -37 -90 -5 0 -7 3 -5 8 3 4 17 47 31 96 15 48 30
85 33 82 4 -4 -6 -47 -22 -96z m942 48 c-2 -13 -4 -5 -4 17 -1 22 1 32 4 23 2
-10 2 -28 0 -40z m-1109 4 c2 -12 -1 -22 -6 -22 -6 0 -8 9 -5 20 4 14 0 20
-11 20 -24 0 -20 -20 11 -52 25 -26 26 -29 11 -45 -16 -15 -17 -15 -12 4 3 12
0 24 -6 28 -17 10 -31 -16 -18 -32 7 -9 7 -13 -1 -13 -17 0 -26 29 -13 42 8 8
8 17 1 30 -7 14 -7 24 2 34 17 21 43 13 47 -14z m279 -29 c3 -13 9 -23 14 -23
5 0 9 -7 9 -15 0 -27 -19 -16 -31 20 -7 19 -17 35 -21 35 -4 0 -8 10 -8 23 1
22 1 22 16 2 8 -11 17 -30 21 -42z m46 37 c-3 -11 -7 -20 -9 -20 -2 0 -4 9 -4
20 0 11 4 20 9 20 5 0 7 -9 4 -20z m-222 -46 c-16 -21 -18 -30 -10 -40 9 -11
8 -14 -5 -14 -18 0 -20 13 -6 41 9 17 7 19 -17 19 -22 0 -25 2 -13 10 8 5 28
10 43 10 l28 0 -20 -26z m-51 -34 c-6 -12 -14 -20 -17 -17 -2 3 1 14 8 26 17
26 24 19 9 -9z m-883 -22 c-3 -7 -5 -2 -5 12 0 14 2 19 5 13 2 -7 2 -19 0 -25z
m1063 17 c0 -8 -4 -15 -10 -15 -5 0 -7 7 -4 15 4 8 8 15 10 15 2 0 4 -7 4 -15z
m877 -17 c-3 -7 -5 -2 -5 12 0 14 2 19 5 13 2 -7 2 -19 0 -25z m-986 -95 c10
-10 16 -10 27 0 22 18 955 27 940 10 -8 -10 -116 -13 -471 -13 -411 0 -462 -1
-470 -16 -8 -14 -10 -14 -20 0 -11 14 -71 16 -474 18 -291 2 -466 7 -472 13
-7 7 146 8 459 5 351 -4 472 -8 481 -17z m54 -143 c-16 -50 -32 -90 -37 -90
-4 0 -6 6 -3 13 37 118 58 177 63 172 3 -3 -7 -46 -23 -95z m-181 74 c21 -8
20 -48 -1 -65 -15 -13 -15 -12 -4 9 15 27 5 45 -20 39 -21 -6 -26 8 -6 16 6 3
13 6 14 6 1 1 8 -2 17 -5z m293 -51 c3 -13 9 -23 14 -23 5 0 9 -7 9 -15 0 -27
-19 -16 -31 20 -7 19 -17 35 -21 35 -4 0 -8 10 -8 23 1 22 1 22 16 2 8 -11 17
-30 21 -42z m46 37 c-3 -11 -7 -20 -9 -20 -2 0 -4 9 -4 20 0 11 4 20 9 20 5 0
7 -9 4 -20z m-784 -52 l20 -48 -49 0 c-28 0 -50 4 -50 8 0 4 16 6 35 4 21 -3
35 0 35 6 0 21 -23 61 -31 56 -11 -6 -11 -1 -3 21 9 21 18 11 43 -47z m351 23
c0 -22 3 -46 6 -55 4 -10 1 -16 -7 -16 -10 0 -14 15 -14 55 0 30 3 55 8 55 4
0 7 -18 7 -39z m-288 -21 c-15 -27 -15 -32 -2 -40 13 -8 13 -10 -2 -10 -24 0
-31 16 -17 42 10 19 27 37 36 38 1 0 -6 -14 -15 -30z m78 -4 c0 -28 -24 -50
-45 -42 -17 6 -20 42 -5 51 7 4 9 -2 4 -19 -4 -16 -2 -26 5 -26 15 0 34 39 27
56 -3 9 -1 12 4 9 6 -3 10 -17 10 -29z m421 8 c-16 -21 -18 -30 -10 -40 9 -11
8 -14 -6 -14 -12 0 -16 6 -12 18 13 46 12 47 -13 44 -20 -2 -22 -1 -10 7 8 6
28 11 43 11 l28 0 -20 -26z m-51 -34 c-6 -12 -14 -20 -17 -17 -2 3 1 14 8 26
17 26 24 19 9 -9z m-247 3 c-13 -2 -35 -2 -50 0 -16 2 -5 4 22 4 28 0 40 -2
28 -4z m427 -8 c0 -8 -4 -15 -10 -15 -5 0 -7 7 -4 15 4 8 8 15 10 15 2 0 4 -7
4 -15z m-227 -7 c-2 -5 -18 -8 -34 -8 -17 0 -28 3 -26 8 3 4 19 7 35 7 17 0
28 -3 25 -7z"/>
<path d="M3550 5745 l0 -145 560 0 560 0 0 145 0 145 -560 0 -560 0 0 -145z
m842 6 l3 -79 -35 0 c-44 0 -60 13 -60 49 0 31 40 66 60 54 8 -5 11 1 10 16
-3 33 -1 39 9 39 5 0 11 -36 13 -79z m213 38 c24 -45 19 -103 -11 -136 -22
-25 -24 -25 -10 -3 24 36 21 121 -5 154 -16 20 -17 25 -4 20 9 -4 22 -19 30
-35z m-893 -43 c13 -33 28 -61 33 -62 6 -2 33 28 60 66 28 38 52 70 55 70 3 0
3 -30 0 -67 -4 -44 -2 -71 4 -75 6 -4 -1 -8 -16 -8 -25 0 -27 2 -18 25 9 22 7
25 -15 25 -24 0 -51 -31 -38 -44 3 -3 -33 -6 -80 -6 -48 0 -87 2 -87 5 0 18
65 144 71 138 4 -4 18 -35 31 -67z m548 55 c-14 -27 -13 -134 2 -149 6 -6 9
-14 6 -18 -4 -3 -15 7 -25 22 -23 36 -23 102 0 137 20 31 33 37 17 8z m270 4
c7 -8 10 -25 6 -39 -3 -14 -2 -28 4 -31 15 -9 12 -31 -6 -49 -10 -10 -33 -16
-62 -16 l-47 0 3 75 4 75 43 0 c25 0 47 -6 55 -15z m-610 -135 c0 -17 5 -30
12 -30 9 0 9 -3 0 -12 -15 -15 -18 -11 -26 35 -4 23 -3 37 4 37 5 0 10 -13 10
-30z m57 -18 c-6 -23 -15 -42 -20 -42 -4 0 -5 10 -2 21 4 12 8 27 9 33 2 14
17 38 21 34 2 -2 -2 -22 -8 -46z m71 3 c-2 -25 -8 -45 -14 -45 -10 0 -9 45 1
78 9 26 15 10 13 -33z m66 18 c4 -16 9 -36 12 -45 3 -10 1 -18 -4 -18 -6 0
-13 12 -16 28 -4 15 -9 35 -12 45 -3 9 -1 17 4 17 6 0 13 -12 16 -27z m46 23
c0 -2 -7 -7 -16 -10 -8 -3 -12 -2 -9 4 6 10 25 14 25 6z m-160 -76 c0 -5 -5
-10 -11 -10 -5 0 -7 5 -4 10 3 6 8 10 11 10 2 0 4 -4 4 -10z"/>
<path d="M4332 5758 c-17 -17 -15 -53 3 -68 22 -19 37 0 33 40 -3 37 -17 47
-36 28z"/>
<path d="M3643 5730 l-22 -50 46 0 c32 0 44 4 40 13 -2 6 -10 29 -18 50 -7 20
-15 37 -19 37 -3 0 -15 -23 -27 -50z"/>
<path d="M3817 5755 c-17 -24 -17 -25 3 -25 15 0 20 6 20 25 0 30 -1 30 -23 0z"/>
<path d="M4452 5783 c4 -32 29 -41 51 -18 23 22 10 45 -25 45 -26 0 -29 -3
-26 -27z"/>
<path d="M4450 5723 c0 -29 16 -45 41 -41 18 2 24 9 24 28 0 21 -5 26 -32 28
-26 3 -33 0 -33 -15z"/>
<path d="M4690 5745 l0 -145 340 0 c245 0 340 3 340 11 0 22 73 239 80 239 5
0 -10 -55 -31 -122 -21 -68 -39 -124 -39 -125 0 -2 130 -3 289 -3 l289 0 1
128 c1 71 -1 136 -5 145 -6 16 -56 17 -635 17 l-629 0 0 -145z m229 23 c-10
-35 -19 -71 -19 -80 0 -10 -4 -18 -10 -18 -14 0 -13 18 6 79 8 29 13 59 10 67
-3 9 1 14 13 14 19 0 19 -1 0 -62z m291 -16 l0 -79 -40 -1 c-35 -2 -42 2 -51
25 -13 35 17 79 51 75 20 -2 22 1 17 28 -5 22 -3 30 8 30 12 0 15 -16 15 -78z
m-154 46 c-21 -29 -21 -116 0 -148 14 -22 12 -22 -10 3 -19 20 -26 39 -26 68
0 42 23 99 41 99 5 0 3 -10 -5 -22z m295 6 c11 -13 10 -19 0 -37 -10 -15 -11
-22 -2 -25 15 -5 14 -45 -1 -60 -7 -7 -37 -12 -67 -12 -35 0 -51 4 -43 9 10 6
13 27 10 75 l-3 66 46 0 c30 0 51 -6 60 -16z m474 -14 c24 -46 19 -104 -11
-137 -22 -25 -24 -25 -10 -3 21 32 21 119 0 148 -8 12 -10 22 -5 22 6 0 17
-13 26 -30z m-95 -105 c6 4 10 1 10 -4 0 -6 -9 -11 -19 -11 -16 0 -20 9 -23
53 -2 28 0 58 6 66 8 11 12 -1 14 -48 2 -36 7 -59 12 -56z m-182 79 c38 -26
22 -94 -23 -94 -51 0 -72 53 -35 90 24 24 29 24 58 4z m106 10 c9 -3 16 -12
16 -20 0 -20 -13 -17 -28 6 -13 22 -12 23 12 14z m-795 -21 c0 -11 -3 -13 -6
-5 -5 12 -33 18 -33 7 0 -4 7 -19 15 -34 13 -26 13 -30 -2 -42 -11 -9 -14 -10
-10 -2 5 7 0 24 -9 38 -21 32 -12 55 21 55 17 0 25 -5 24 -17z m756 -20 c0
-35 2 -38 28 -38 32 1 31 -18 -2 -23 -30 -5 -51 15 -51 47 0 20 15 51 25 51 0
0 0 -17 0 -37z m-821 -48 c3 -8 1 -15 -4 -15 -6 0 -10 7 -10 15 0 8 2 15 4 15
2 0 6 -7 10 -15z"/>
<path d="M5144 5756 c-3 -8 -4 -27 -2 -43 4 -40 42 -40 46 0 5 42 -31 77 -44
43z"/>
<path d="M5270 5786 c0 -30 13 -40 41 -31 31 10 21 49 -13 53 -24 3 -28 0 -28
-22z"/>
<path d="M5270 5710 c0 -25 4 -30 24 -30 13 0 29 6 35 14 18 22 2 46 -30 46
-26 0 -29 -4 -29 -30z"/>
<path d="M5499 5749 c-15 -28 4 -72 29 -67 21 4 27 39 12 67 -14 27 -26 26
-41 0z"/>
<path d="M2770 4985 l0 -595 380 0 380 0 0 595 0 595 -380 0 -380 0 0 -595z
m405 395 c-20 -61 -39 -109 -42 -106 -3 3 12 61 33 128 21 67 40 115 42 106 2
-8 -13 -66 -33 -128z m-212 7 c9 -7 9 -10 0 -14 -7 -2 -13 -13 -13 -24 0 -10
-5 -19 -10 -19 -6 0 -10 8 -8 18 2 13 -5 18 -29 20 -18 2 -33 6 -33 9 0 4 17
31 38 61 l37 55 3 -49 c2 -27 9 -52 15 -57z m361 43 c10 -27 21 -50 25 -50 4
0 13 23 20 50 7 28 16 50 20 50 7 0 -34 -138 -43 -147 -2 -2 -14 24 -27 58
l-23 62 -13 -34 c-12 -31 -13 -31 -7 -4 4 17 7 38 8 48 1 34 22 16 40 -33z
m-216 -7 c-22 -6 -43 -64 -26 -74 17 -11 3 -23 -17 -15 -14 5 -14 9 0 42 18
44 18 44 2 44 -8 0 -22 -19 -33 -42 -10 -23 -25 -44 -32 -46 -7 -2 -1 13 13
33 29 44 32 57 8 48 -11 -4 -14 -3 -9 5 4 7 29 12 59 11 29 -1 44 -3 35 -6z
m160 -68 c-1 -14 -8 -25 -14 -25 -9 0 -9 6 -1 25 15 31 17 31 15 0z m-97 -255
c-22 -63 -40 -109 -40 -101 -1 24 72 247 76 231 2 -8 -14 -67 -36 -130z m-220
100 c23 -13 25 -33 4 -50 -14 -12 -14 -15 0 -30 20 -22 19 -56 -1 -64 -50 -19
-85 13 -57 53 11 17 12 26 4 34 -14 14 -14 44 -1 52 5 3 7 0 4 -8 -6 -17 23
-50 37 -42 15 10 10 43 -8 54 -24 14 -7 14 18 1z m369 -41 c8 -23 20 -48 28
-56 11 -10 12 -20 5 -35 -8 -19 -12 -13 -33 42 l-24 63 -13 -34 c-12 -31 -13
-31 -7 -4 4 17 7 38 8 48 1 32 23 18 36 -24z m62 -3 c-9 -25 -18 -43 -20 -41
-6 5 21 85 28 85 4 0 0 -20 -8 -44z m-274 -3 c-21 -6 -47 -65 -30 -71 16 -5 5
-22 -15 -22 -11 0 -14 6 -9 23 17 60 18 67 8 67 -6 0 -20 -20 -31 -45 -11 -25
-25 -45 -31 -45 -7 0 -3 14 9 34 23 37 28 61 9 50 -7 -4 -8 -3 -4 4 4 7 29 12
59 11 29 -1 45 -3 35 -6z m160 -78 c-1 -14 -8 -25 -14 -25 -9 0 -9 6 -1 25 15
31 17 31 15 0z m-94 -246 c-20 -63 -39 -109 -41 -103 -2 7 13 63 33 125 20 63
39 109 41 103 2 -7 -13 -63 -33 -125z m-223 101 c23 -13 25 -33 4 -50 -14 -12
-14 -15 0 -30 20 -22 19 -56 -1 -64 -13 -5 -14 -4 -6 7 9 10 8 19 -4 35 -8 12
-19 22 -24 22 -15 0 -22 -40 -10 -55 8 -10 9 -15 2 -15 -23 0 -32 36 -15 59
11 17 12 26 4 34 -14 14 -14 44 -1 52 5 3 7 0 4 -8 -6 -17 23 -50 37 -42 15
10 10 43 -8 54 -24 14 -7 14 18 1z m373 -50 c10 -27 21 -50 25 -50 4 0 13 23
20 50 7 28 16 50 20 50 7 0 -34 -138 -43 -147 -2 -2 -14 24 -27 58 l-23 62
-13 -34 c-12 -31 -13 -31 -7 -4 4 17 7 38 8 48 1 34 22 16 40 -33z m-216 -7
c-21 -6 -47 -65 -30 -71 16 -5 5 -22 -15 -22 -11 0 -14 6 -9 23 17 60 18 67 8
67 -6 0 -20 -20 -31 -45 -11 -25 -25 -45 -31 -45 -12 0 3 35 20 45 6 3 10 15
10 26 0 13 -4 18 -12 13 -7 -4 -8 -3 -4 4 4 7 29 12 59 11 29 -1 45 -3 35 -6z
m160 -68 c-1 -14 -8 -25 -14 -25 -9 0 -9 6 -1 25 15 31 17 31 15 0z m-34 -252
c-20 -65 -39 -112 -41 -106 -5 15 67 237 74 229 2 -2 -12 -58 -33 -123z m-233
97 c28 -16 23 -54 -13 -96 l-32 -37 37 5 c23 2 36 0 34 -6 -2 -6 -25 -12 -52
-14 l-48 -3 36 40 c39 43 49 87 22 97 -8 4 -22 1 -30 -6 -10 -8 -15 -9 -15 -2
0 6 8 16 18 21 21 13 20 13 43 1z m-119 -75 c2 -62 0 -75 -12 -75 -12 0 -15
15 -15 75 0 51 4 75 12 75 7 0 13 -26 15 -75z m502 25 c10 -27 21 -50 25 -50
4 0 13 23 20 50 7 28 16 50 20 50 7 0 -34 -138 -43 -147 -2 -2 -14 24 -27 58
l-23 62 -13 -34 c-12 -31 -13 -31 -7 -4 4 17 7 38 8 48 1 34 22 16 40 -33z
m-216 -7 c-21 -6 -47 -65 -30 -71 16 -5 5 -22 -15 -22 -11 0 -14 6 -9 23 17
60 18 67 8 67 -6 0 -20 -20 -31 -45 -11 -25 -25 -45 -31 -45 -12 0 3 35 20 45
6 3 10 15 10 26 0 13 -4 18 -12 13 -7 -4 -8 -3 -4 4 4 7 29 12 59 11 29 -1 45
-3 35 -6z m160 -68 c-1 -14 -8 -25 -14 -25 -9 0 -9 6 -1 25 15 31 17 31 15 0z"/>
<path d="M2908 5425 c-23 -30 -22 -35 2 -35 16 0 20 7 20 30 0 36 0 36 -22 5z"/>
<path d="M2905 5100 c-8 -25 1 -40 25 -40 27 0 32 13 14 38 -19 27 -31 28 -39
2z"/>
<path d="M3550 4985 l0 -595 560 0 560 0 0 595 0 595 -560 0 -560 0 0 -595z
m709 491 c7 -8 9 -25 6 -39 -4 -14 -2 -28 4 -31 32 -20 -6 -76 -52 -76 -17 0
-27 3 -23 7 4 4 19 7 34 8 33 0 43 32 16 52 -15 11 -16 15 -5 22 22 14 9 46
-18 45 -23 -1 -23 0 -6 13 24 16 30 16 44 -1z m-123 -28 c-1 -17 1 -51 4 -75
7 -41 6 -43 -19 -43 -19 0 -22 3 -12 9 11 7 13 25 9 75 -4 50 -3 66 7 66 9 0
13 -11 11 -32z m-76 -57 c0 -7 -23 -11 -55 -11 -30 0 -55 4 -55 8 0 5 25 10
55 11 33 1 55 -2 55 -8z m103 -274 c9 -7 9 -10 0 -14 -7 -2 -13 -13 -13 -24 0
-10 -4 -19 -10 -19 -5 0 -10 9 -10 20 0 16 -7 20 -30 20 -16 0 -30 3 -30 7 0
3 17 31 38 61 l37 55 3 -49 c2 -27 9 -52 15 -57z m96 89 c7 -8 9 -25 6 -39 -4
-14 -2 -28 4 -31 16 -10 13 -42 -5 -60 -16 -16 -64 -22 -64 -8 0 4 12 8 27 7
34 0 44 32 17 52 -15 11 -16 15 -5 22 22 14 9 46 -18 45 -23 -1 -23 0 -6 13
24 16 30 16 44 -1z m-199 -87 c0 -5 -25 -9 -55 -9 -30 0 -55 4 -55 9 0 5 25
10 55 10 30 0 55 -5 55 -10z m84 -195 c12 -11 13 -20 6 -34 -7 -13 -7 -21 0
-25 14 -9 13 -62 -2 -71 -8 -5 -9 -2 -5 10 4 10 -1 24 -12 35 -15 15 -16 21
-5 35 19 27 6 49 -25 42 -25 -6 -25 -6 -7 9 25 19 31 19 50 -1z m120 0 c24
-23 20 -45 -16 -88 l-32 -39 36 5 c26 3 34 0 31 -9 -3 -8 -23 -13 -50 -13
l-45 0 36 42 c20 23 36 49 36 59 0 23 -24 41 -46 33 -18 -5 -18 -5 0 10 25 20
31 20 50 0z m-204 -86 c0 -4 -25 -8 -55 -8 -32 0 -55 4 -55 11 0 6 22 9 55 8
30 -1 55 -6 55 -11z m55 -48 c18 -8 17 -9 -7 -9 -16 -1 -28 4 -28 9 0 12 8 12
35 0z m123 -141 c-26 -14 -23 -27 17 -71 29 -32 34 -42 25 -58 -6 -11 -16 -20
-23 -19 -9 0 -9 2 1 6 6 2 12 10 12 17 0 17 -35 48 -43 39 -12 -11 -8 -53 5
-53 6 0 9 -2 6 -5 -3 -3 -13 -3 -22 1 -19 7 -21 45 -4 62 9 9 9 15 0 24 -25
25 -4 67 33 67 6 0 2 -4 -7 -10z m-78 -9 c0 -5 -11 -10 -24 -10 -14 0 -28 -4
-31 -10 -3 -5 1 -10 9 -10 22 0 46 -28 46 -55 0 -13 -7 -31 -16 -39 -17 -18
-64 -22 -64 -6 0 6 10 8 23 5 29 -8 51 16 42 44 -3 12 -17 24 -31 27 -26 7
-29 16 -14 45 11 20 60 27 60 9z m118 -26 c-1 -9 -9 -19 -16 -22 -11 -3 -12 0
-4 14 5 11 7 26 4 34 -3 11 -2 12 8 4 6 -7 10 -20 8 -30z m-218 -56 c0 -4 -25
-8 -55 -8 -32 0 -55 4 -55 11 0 6 22 9 55 8 30 -1 55 -6 55 -11z"/>
<path d="M4108 5155 c-23 -30 -22 -35 1 -35 24 0 30 9 22 37 l-6 21 -17 -23z"/>
<path d="M4690 4985 l0 -595 633 2 632 3 3 593 2 592 -635 0 -635 0 0 -595z
m692 472 c-27 -29 -28 -37 -3 -30 13 3 25 -3 36 -21 16 -24 16 -28 1 -51 -29
-44 -86 -22 -86 33 0 38 38 91 64 92 5 0 0 -10 -12 -23z m-77 -67 c4 -6 -15
-10 -49 -10 -31 0 -56 5 -56 10 0 6 22 10 49 10 28 0 53 -4 56 -10z m75 -202
c-11 -12 -18 -28 -16 -35 3 -7 1 -13 -4 -13 -11 0 -13 -30 -4 -54 8 -20 40
-21 47 -2 7 18 -3 56 -14 56 -5 0 -9 5 -9 10 0 18 19 10 36 -15 15 -23 15 -27
0 -50 -19 -29 -42 -32 -68 -8 -30 27 -16 96 26 125 23 16 26 7 6 -14z m-70
-68 c0 -5 -25 -10 -55 -10 -30 0 -55 5 -55 10 0 6 25 10 55 10 30 0 55 -4 55
-10z m155 -196 c14 -14 14 -19 2 -37 -12 -18 -12 -25 2 -48 13 -23 13 -30 2
-43 -7 -9 -19 -16 -25 -15 -7 0 -6 2 2 6 17 6 15 38 -3 53 -29 24 -50 -21 -22
-49 10 -11 9 -13 -2 -9 -27 8 -37 35 -19 55 14 16 15 20 2 37 -18 25 -18 31 2
50 20 20 38 20 59 0z m-133 -69 c2 -62 0 -75 -12 -75 -12 0 -15 15 -15 75 0
51 4 75 12 75 7 0 13 -26 15 -75z m-76 -17 c3 -4 -22 -8 -56 -8 -40 0 -59 4
-55 10 8 12 104 11 111 -2z m209 -194 c14 -14 14 -19 2 -37 -12 -18 -12 -25 2
-48 13 -23 13 -30 2 -43 -7 -9 -19 -16 -25 -15 -7 0 -6 2 2 6 17 6 15 38 -3
53 -29 24 -50 -21 -22 -49 10 -11 9 -13 -2 -9 -27 8 -37 35 -19 55 14 16 15
20 2 37 -18 25 -18 31 2 50 20 20 38 20 59 0z m-133 -69 c2 -62 0 -75 -12 -75
-12 0 -15 15 -15 75 0 51 4 75 12 75 7 0 13 -26 15 -75z m-77 -15 c4 -6 -17
-10 -55 -10 -38 0 -59 4 -55 10 3 6 28 10 55 10 27 0 52 -4 55 -10z"/>
<path d="M5363 5413 c-27 -9 -11 -73 17 -73 21 0 31 20 23 48 -5 22 -21 32
-40 25z"/>
<path d="M5413 4914 c-3 -8 1 -22 9 -30 13 -13 16 -13 27 0 7 9 11 23 7 31 -7
20 -35 19 -43 -1z"/>
<path d="M5413 4634 c-3 -8 1 -22 9 -30 13 -13 16 -13 27 0 7 9 11 23 7 31 -7
20 -35 19 -43 -1z"/>
<path d="M3001 5736 c-12 -27 -20 -51 -17 -53 2 -2 22 -3 43 -1 l39 3 -22 50
-22 50 -21 -49z"/>
<path d="M1630 5429 c0 -26 3 -30 23 -27 16 2 23 11 25 31 3 23 0 27 -22 27
-22 0 -26 -4 -26 -31z"/>
<path d="M2573 5373 c-15 -6 -17 -43 -3 -43 12 0 24 25 18 38 -1 5 -9 7 -15 5z"/>
<path d="M2444 5136 c-8 -22 3 -49 19 -43 6 2 12 14 12 27 0 27 -22 39 -31 16z"/>
<path d="M1853 4543 c-7 -2 -13 -14 -13 -25 0 -14 5 -18 16 -14 9 3 18 6 20 6
2 0 4 9 4 20 0 20 -5 23 -27 13z"/>
<path d="M3232 1478 c-23 -38 -47 -114 -66 -216 l-14 -72 49 0 c46 0 48 1 52
33 l4 32 1 -32 2 -33 56 0 55 0 -6 48 c-14 97 -47 222 -66 247 -27 33 -43 32
-67 -7z"/>
<path d="M2921 1364 c-18 -23 -61 -139 -61 -165 0 -5 38 -9 85 -9 97 0 96 -2
69 91 -16 55 -48 109 -64 109 -5 0 -18 -12 -29 -26z"/>
<path d="M2608 1253 c-9 -10 -21 -28 -27 -40 -12 -23 -11 -23 49 -23 l61 0
-17 33 c-26 50 -42 57 -66 30z"/>
<path d="M3463 1230 c0 -25 2 -35 4 -22 2 12 2 32 0 45 -2 12 -4 2 -4 -23z"/>
<path d="M716 3498 c-19 -61 -11 -121 16 -126 17 -3 28 25 28 71 0 48 -34 90
-44 55z"/>
<path d="M8970 3330 c0 -16 5 -21 23 -18 12 2 22 10 22 18 0 8 -10 16 -22 18
-18 3 -23 -2 -23 -18z"/>
<path d="M9154 3296 c-9 -23 0 -51 16 -51 10 0 15 10 15 29 0 32 -21 47 -31
22z"/>
<path d="M600 2700 l-21 -30 25 0 c22 0 26 4 26 30 0 17 -2 30 -4 30 -3 0 -14
-13 -26 -30z"/>
<path d="M715 2750 c-9 -14 -10 -104 -1 -118 21 -34 46 0 46 61 0 48 -28 84
-45 57z"/>
<path d="M7193 1235 c0 -27 2 -38 4 -22 2 15 2 37 0 50 -2 12 -4 0 -4 -28z"/>
<path d="M715 1990 c-9 -14 -10 -104 -1 -118 21 -34 46 0 46 61 0 48 -28 84
-45 57z"/>
<path d="M8817 1773 c-4 -3 -7 -17 -7 -30 0 -28 26 -31 35 -3 9 30 -10 52 -28
33z"/>
<path d="M8917 1760 c-4 -16 0 -20 20 -20 18 0 24 5 21 17 -5 26 -34 28 -41 3z"/>
<path d="M8904 1715 c-4 -9 -2 -21 4 -27 15 -15 44 -1 40 19 -4 23 -36 29 -44
8z"/>
<path d="M716 1238 c-19 -61 -11 -121 16 -126 17 -3 28 25 28 71 0 48 -34 90
-44 55z"/>
<path d="M5621 1116 c-7 -8 -11 -37 -9 -68 3 -45 6 -53 23 -53 17 0 20 8 23
56 3 62 -14 92 -37 65z"/>
</g>
</svg>
